<?xml version="1.0" standalone="no"?>
<!DOCTYPE svg PUBLIC "-//W3C//DTD SVG 1.1//EN" "http://www.w3.org/Graphics/SVG/1.1/DTD/svg11.dtd" >
<svg xmlns="http://www.w3.org/2000/svg" xmlns:xlink="http://www.w3.org/1999/xlink" version="1.1">
<metadata>
Created by FontForge 20170924 at Sun Feb 16 18:47:46 2014
 By www-data
Copyright (c) 2014 by iSkyFalConS, | ZakDesigN . All rights reserved.
</metadata>
<defs>
<font id="AraHalaBoShe'sha-Regular" horiz-adv-x="0" >
  <font-face 
    font-family="Ara Hala Bo She'sha"
    font-weight="400"
    font-stretch="normal"
    units-per-em="1000"
    panose-1="0 0 5 0 0 0 0 0 0 0"
    ascent="800"
    descent="-200"
    x-height="367"
    cap-height="520"
    bbox="-171 -449 1073.18 847.083"
    underline-thickness="50"
    underline-position="-100"
    unicode-range="U+000D-FEFC"
  />
<missing-glyph horiz-adv-x="598" 
 />
    <glyph glyph-name="allahar" unicode="&#xfedf;&#xfee0;&#xfeea;" horiz-adv-x="1103" arabic-form="isolated" 
d="M1031 587q9 -1 9 -2t-8 -3q-24 -6 -32 -52q-8 -39 0 -70q10 -59 47 -150q48 -112 8 -198q-37 -82 -129 -106q-95 -24 -198 31q-117 -80 -217 -1q-94 74 -115 222q-76 12 -132 6q-58 -6 -92.5 -34.5t-39.5 -64.5t21.5 -65.5t80.5 -40.5q48 -9 80.5 5t42.5 41
q10 25 -5.5 45t-51.5 20q12 -22 0 -43q-14 -22 -39 -22q-18 0 -31 13t-13 31t14 32t37 20q50 14 96 -7q53 -24 54 -79q2 -60 -69 -97q-65 -34 -145 -7q-77 24 -128 84q-54 64 -44 128q10 72 72 107q52 29 142 36q43 3 158 1q12 35 40.5 53t83.5 20q-79 -82 -55 -185
q20 -84 92 -138q31 -23 58.5 -27t44.5 14q15 20 12 66q-3 48 -37 126q-20 50 -26 95q-8 51 9 95q16 40 52 71t74 30q9 -1 9 -2t-8 -3q-24 -6 -32 -52q-8 -39 0 -70q10 -59 47 -150q38 -90 22 -166q50 -41 90 -52q39 -10 59 10t18 68q-3 48 -35 126q-20 50 -26 95
q-7 52 10 95q13 38 51 71q36 31 74 30z" />
    <glyph glyph-name="lam_alefMaddaar" unicode="&#xfedf;&#xfe82;" horiz-adv-x="499" arabic-form="isolated" 
d="M134 684l61 -31q-34 -23 -87 -14q-24 3 -37 7q-35 6 -61 -6q-14 -8 -30 -24q20 51 62 58q16 2 36 0q19 -2 36 4q10 3 13 9zM161 587l9 -1q0 -1 -8 -3q-26 -7 -33 -53q-6 -37 0 -69q15 -73 48 -151q38 -90 11 -176q-23 -74 -100 -151l-6 8q24 45 30 82q9 64 -26 144
q-13 29 -34 79q-48 113 -17 191q18 40 52 70q36 31 74 30zM370 587l9 -1q0 -1 -8 -3q-25 -6 -32 -53q-6 -37 0 -69q8 -40 39 -127l26 -72q12 -33 25 -74q9 -27 24 -91q14 -59 15 -96q6 -109 -55 -160q-57 -49 -146 -24q-39 11 -92 55q-46 37 -64 36q-12 0 -12 6.5t10 13.5
q27 18 54 -4q14 -12 22.5 -18t22.5 -14.5t23.5 -10t25.5 -4t29 2.5q47 9 58 68q9 44 -4 117q-10 48 -26 97l-33 89q-41 101 -46 165q-5 59 31 109q27 36 66 55q22 8 38 7z" />
    <glyph glyph-name="lam_alefMaddaar.fina" unicode="&#xfee0;&#xfe82;" horiz-adv-x="537" arabic-form="final" 
d="M128 687l68 -34q-34 -23 -88 -14q-24 3 -37 7q-34 6 -60 -6q-13 -8 -30 -24q20 51 62 58q17 2 36 0t36 4q10 3 13 9zM162 587q12 -1 0 -4q-25 -6 -32 -53q-6 -37 0 -69q10 -61 47 -151q38 -87 12 -176q-23 -74 -100 -151l-6 8q25 46 29 82q9 64 -26 144q-13 29 -34 79
q-46 114 -16 191q18 40 52 70q36 31 74 30zM371 587l9 -1q0 -1 -8 -3q-39 -11 -25 -118q9 -79 47 -205q32 -106 52 -142q20 -35 91 -35q11 0 18 -12t7 -30t-7 -29.5t-18 -11.5q-36 0 -68 5q6 -101 -47 -156q-57 -59 -154 -32q-39 11 -92 55q-46 37 -65 36q-8 0 -10.5 3
t0 7.5t9.5 9.5q27 18 54 -4q33 -28 60 -39.5t62 -4.5q48 10 59 68q9 44 -4 117q-9 48 -26 97l-33 89q-41 101 -46 165q-6 58 31 109q28 37 65 55q22 8 39 7z" />
    <glyph glyph-name="lam_alefHamzaabovear" unicode="&#xfedf;&#xfe84;" horiz-adv-x="499" arabic-form="isolated" 
d="M186 831q17 -5 17 -23q0 -11 -7 -17.5t-17 -6.5q-25 0 -25 23q-23 2 -41 -11q-20 -14 -3 -31q13 -13 35 -13q6 -1 18 -1q6 0 18 -2q23 -6 33 -26.5t2 -41.5q-8 -24 -35.5 -37t-72.5 -5q-24 3 -37 7q-35 6 -61 -6q-14 -8 -30 -24q20 51 62 58q16 2 36 0t38 4.5t12 17.5
q-8 13 -32 14q-33 2 -48.5 12.5t-13.5 36.5q4 40 62 63q55 22 90 9zM161 587l9 -1q0 -1 -8 -3q-26 -7 -33 -53q-6 -37 0 -69q15 -73 48 -151q38 -90 11 -176q-23 -74 -100 -151l-6 8q24 45 30 82q9 64 -26 144q-13 29 -34 79q-48 113 -17 191q18 40 52 70q36 31 74 30z
M370 587l9 -1q0 -1 -8 -3q-25 -6 -32 -53q-6 -37 0 -69q8 -40 39 -127l26 -72q12 -33 25 -74q9 -27 24 -91q14 -59 15 -96q6 -109 -55 -160q-57 -49 -146 -24q-39 11 -92 55q-46 37 -64 36q-12 0 -12 6.5t10 13.5q27 18 54 -4q14 -12 22.5 -18t22.5 -14.5t23.5 -10t25.5 -4
t29 2.5q47 9 58 68q9 44 -4 117q-10 48 -26 97l-33 89q-41 101 -46 165q-5 59 31 109q27 36 66 55q22 8 38 7z" />
    <glyph glyph-name="lam_alefHamzaabovear.fina" unicode="&#xfee0;&#xfe84;" horiz-adv-x="536" arabic-form="final" 
d="M186 831q17 -5 17 -23q0 -11 -7 -17.5t-17 -6.5q-25 0 -26 23q-22 2 -40 -11q-20 -14 -3 -31q13 -13 35 -13q6 -1 18 -1q6 0 18 -2q22 -6 32 -26.5t2 -41.5q-8 -24 -35.5 -37t-72.5 -5q-24 3 -37 7q-34 6 -60 -6q-14 -8 -30 -24q20 51 62 58q16 2 36 0t37.5 4.5
t11.5 17.5q-8 13 -32 14q-33 3 -48 13t-13 36q4 40 62 63q55 22 90 9zM161 587q12 -1 0 -4q-25 -6 -32 -53q-6 -37 0 -69q10 -61 47 -151q38 -87 12 -176q-23 -74 -100 -151l-6 8q25 46 29 82q9 64 -26 144q-13 29 -34 79q-46 114 -16 191q18 40 52 70q36 31 74 30zM370 587
l9 -1q0 -1 -8 -3q-39 -11 -25 -118q9 -79 47 -205q32 -106 52 -142q20 -35 91 -35q11 0 18 -12t7 -30t-7 -29.5t-18 -11.5q-36 0 -68 5q6 -101 -47 -156q-57 -59 -154 -32q-39 11 -92 55q-46 37 -65 36q-8 0 -10.5 3t0 7.5t9.5 9.5q27 18 54 -4q33 -28 60 -39.5t62 -4.5
q48 10 59 68q9 44 -4 117q-10 48 -26 97l-33 89q-41 101 -46 165q-6 58 31 109q28 37 65 55q22 8 39 7z" />
    <glyph glyph-name="lam_alefHamzabelowar" unicode="&#xfedf;&#xfe88;" horiz-adv-x="499" arabic-form="isolated" 
d="M161 587l9 -1q0 -1 -8 -3q-26 -7 -33 -53q-6 -37 0 -69q15 -73 48 -151q38 -90 11 -176q-23 -74 -100 -151l-6 8q43 81 28 155q-8 35 -24 71q-1 1 -13 28t-15.5 36t-12 31.5t-13 41t-7.5 37.5q-8 50 10 96q18 40 52 70q36 31 74 30zM370 587l9 -1q0 -1 -8 -3
q-25 -6 -32 -53q-6 -37 0 -69q8 -40 39 -127l26 -72q12 -33 25 -74q9 -27 24 -91q14 -59 15 -96q6 -109 -55 -160q-57 -49 -146 -24q-39 11 -92 55q-46 37 -64 36q-12 0 -12 6.5t10 13.5q27 18 54 -4q14 -12 22.5 -18t22.5 -14.5t23.5 -10t25.5 -4t29 2.5q47 9 58 68
q9 44 -4 117q-10 48 -26 97l-33 89q-41 101 -46 165q-5 59 31 109q27 36 66 55q22 8 38 7zM299 -234q16 -6 16 -23q0 -11 -7 -17.5t-17 -6.5q-23 -2 -25 23q-22 2 -40 -11q-20 -15 -4 -31q13 -12 36 -14q6 -1 18 -1q6 0 18 -2q22 -6 32 -26.5t2 -41.5q-8 -24 -35.5 -36.5
t-72.5 -4.5l-37 6q-35 7 -60 -5q-13 -7 -30 -24q20 51 62 58q17 1 36 0q20 -2 37.5 4.5t11.5 17.5q-8 13 -32 14q-32 2 -47.5 12.5t-13.5 35.5q4 41 61 64q54 22 91 9z" />
    <glyph glyph-name="lam_alefHamzabelowar.fina" unicode="&#xfee0;&#xfe88;" horiz-adv-x="536" arabic-form="final" 
d="M161 587q12 -1 0 -4q-25 -6 -32 -53q-6 -37 0 -69q10 -61 47 -151q38 -87 12 -176q-23 -74 -100 -151l-6 8q43 80 27 155q-8 35 -24 71q-51 116 -60 174q-8 50 10 96q18 40 52 70q36 31 74 30zM370 587l9 -1q0 -1 -8 -3q-39 -11 -25 -118q9 -79 47 -205q32 -106 52 -142
q20 -35 91 -35q11 0 18 -12t7 -30t-7 -29.5t-18 -11.5q-36 0 -68 5q6 -101 -47 -156q-57 -59 -154 -32q-39 11 -92 55q-46 37 -65 36q-8 0 -10.5 3t0 7.5t9.5 9.5q27 18 54 -4q33 -28 60 -39.5t62 -4.5q48 10 59 68q9 44 -4 117q-10 48 -26 97l-33 89q-41 101 -46 165
q-6 58 31 109q28 37 65 55q22 8 39 7zM299 -234q16 -7 16 -23q0 -11 -7 -17.5t-17 -6.5q-10 -1 -17.5 5.5t-7.5 17.5q-22 2 -40 -11q-21 -14 -4 -31q13 -12 36 -14q6 -1 18 -1q7 0 17 -2q23 -6 33 -26.5t2 -41.5q-8 -24 -35.5 -36.5t-72.5 -4.5l-37 6q-35 7 -60 -5
q-13 -7 -30 -24q20 51 62 58q17 1 36 0q20 -2 37.5 4.5t11.5 17.5q-8 13 -32 14q-33 2 -48 12.5t-13 35.5q1 40 61 64q54 22 91 9z" />
    <glyph glyph-name="lam_alefar" unicode="&#xfedf;&#xfe8e;" horiz-adv-x="497" arabic-form="isolated" 
d="M159 587l9 -1q0 -1 -8 -3q-26 -7 -33 -53q-6 -37 0 -69q15 -73 48 -151q38 -90 11 -176q-23 -74 -100 -151l-6 8q43 81 28 155q-8 35 -24 71q-1 1 -13 28t-15.5 36t-12 31.5t-13 41t-7.5 37.5q-8 50 10 96q18 40 52 70q36 31 74 30zM368 587l9 -1q0 -1 -8 -3
q-25 -6 -32 -53q-6 -37 0 -69q8 -40 39 -127l26 -72q12 -33 25 -74q9 -27 24 -91q14 -59 15 -96q6 -109 -55 -160q-57 -49 -146 -24q-39 11 -92 55q-46 37 -64 36q-12 0 -12 6.5t10 13.5q27 18 54 -4q14 -12 22.5 -18t22.5 -14.5t23.5 -10t25.5 -4t29 2.5q47 9 58 68
q9 44 -4 117q-10 48 -26 97l-33 89q-41 101 -46 165q-5 59 31 109q27 36 66 55q22 8 38 7z" />
    <glyph glyph-name="lam_alefar.fina" unicode="&#xfee0;&#xfe8e;" horiz-adv-x="536" arabic-form="final" 
d="M161 587q12 -1 0 -4q-25 -6 -32 -53q-6 -37 0 -69q10 -61 47 -151q38 -87 12 -176q-23 -74 -100 -151l-6 8q43 80 27 155q-8 35 -24 71q-51 116 -60 174q-8 50 10 96q18 40 52 70q36 31 74 30zM370 587l9 -1q0 -1 -8 -3q-39 -11 -25 -118q9 -79 47 -205q32 -106 52 -142
q20 -35 91 -35q11 0 18 -12t7 -30t-7 -29.5t-18 -11.5q-36 0 -68 5q6 -101 -47 -156q-57 -59 -154 -32q-39 11 -92 55q-46 37 -65 36q-8 0 -10.5 3t0 7.5t9.5 9.5q27 18 54 -4q33 -28 60 -39.5t62 -4.5q48 10 59 68q9 44 -4 117q-10 48 -26 97l-33 89q-41 101 -46 165
q-6 58 31 109q28 37 65 55q22 8 39 7z" />
    <glyph glyph-name="uni066E.fina" unicode="&#x66e;" horiz-adv-x="838" 
d="M464 374v11q20 -12 31.5 -39t6.5 -48q-9 -38 -61 -45q-44 -7 -100 0q-55 5 -84 4q-45 -2 -67 -25q-12 -12 -13 -31q-1 -31 27.5 -54t78.5 -38q95 -29 207 -24q115 5 134 42q7 15 -15 60q-10 22 -19 36q-5 7 -14 26q51 36 116 77q22 -42 29 -52q24 -41 27 -80
q1 -20 -5 -60q-5 -29 10 -38q8 -7 29 -10q20 -3 56 -3q10 0 17 -12t7 -29t-7 -29.5t-17 -12.5q-128 1 -173 54q-75 -42 -225 -51q-165 -10 -276 29q-134 45 -133 152q1 92 98 121q76 22 171 0q3 -1 15 -3t19 -4q43 -9 82 -8q43 2 53 29q5 15 -2 39q-3 6 -3 16z" />
    <glyph glyph-name="uniFB51" unicode="&#x671;" horiz-adv-x="292" arabic-form="final" 
d="M73 847l1 -1q-10 -3 -12.5 -19t1.5 -25q3 -19 11 -41q6 -14 6 -43q0 -3 -0.5 -10t-1.5 -10q24 24 48 40q31 19 54 15q33 -5 38 -37q7 -43 -52 -69q-53 -25 -116 -18q-65 5 -71 45q-3 21 26 35v-2q-1 -1 -1 -3q-18 -12 -10 -27q7 -16 28 -16q27 -2 31 26q2 14 -6 28
q-7 12 -12 28q-19 34 -7 68q6 15 18.5 26t26.5 10zM153 713q-34 -9 -50 -44q14 0 36 8q25 9 32 20q6 10 0 14.5t-18 1.5zM168 586q9 0 9 -1t-8 -3q-26 -7 -33 -53q-6 -37 0 -69q14 -71 48 -150q37 -88 14 -167v-26q-2 -24 34 -31q17 -4 60 -4q11 0 18 -11.5t7 -29.5
t-7 -29.5t-18 -11.5q-106 0 -152 34q-13 -19 -45 -51l-6 8q43 81 28 154q-8 35 -24 71q-52 119 -61 174q-8 50 10 96q16 40 52 71q35 30 74 29z" />
    <glyph glyph-name="pehar.fina" unicode="&#x67e;" horiz-adv-x="838" arabic-form="final" 
d="M464 374v11q20 -12 31.5 -39t6.5 -48q-9 -38 -61 -45q-44 -7 -100 0q-55 5 -84 4q-45 -2 -67 -25q-12 -12 -13 -31q-1 -31 27.5 -54t78.5 -38q95 -29 207 -24q115 5 134 42q7 15 -15 60q-10 22 -19 36q-5 7 -14 26q51 36 116 77q22 -42 29 -52q24 -41 27 -80
q1 -20 -5 -60q-5 -29 10 -38q8 -7 29 -10q20 -3 56 -3q10 0 17 -12t7 -29t-7 -29.5t-17 -12.5q-128 1 -173 54q-75 -42 -225 -51q-165 -10 -276 29q-134 45 -133 152q1 92 98 121q76 22 171 0q3 -1 15 -3t19 -4q43 -9 82 -8q43 2 53 29q5 15 -2 39q-3 6 -3 16zM473 -59
q25 0 42.5 -17t17.5 -42t-17.5 -42.5t-42.5 -17.5t-42.5 17.5t-17.5 42.5t17.5 42t42.5 17zM334 -84q25 0 42.5 -17t17.5 -42t-17.5 -42.5t-42.5 -17.5t-42.5 17.5t-17.5 42.5t17.5 42t42.5 17zM432 -209q25 0 42.5 -17.5t17.5 -42.5t-17.5 -42t-42.5 -17t-42.5 17t-17.5 42
t17.5 42.5t42.5 17.5z" />
    <glyph glyph-name="pehar.init" unicode="&#x67e;" horiz-adv-x="366" arabic-form="initial" 
d="M163 249l116 77q15 -27 22 -39q26 -47 31 -67q4 -15 4 -37q0 -69 -61 -115q-51 -37 -136 -54q-70 -14 -139 -14q-11 0 -18 12t-7 30t7 29.5t18 11.5q82 0 146 16q67 17 67 45q0 1 -1 3t-2 4.5t-1 4.5q-1 5 -7 15zM232 -35q25 0 42.5 -17.5t17.5 -42.5t-17.5 -42.5
t-42.5 -17.5t-42.5 17.5t-17.5 42.5t17.5 42.5t42.5 17.5zM93 -60q25 0 42 -17.5t17 -42.5t-17 -42.5t-42 -17.5t-42.5 17.5t-17.5 42.5t17.5 42.5t42.5 17.5zM184 -179q25 0 42.5 -17.5t17.5 -42.5t-17.5 -42.5t-42.5 -17.5t-42.5 17.5t-17.5 42.5t17.5 42.5t42.5 17.5z
" />
    <glyph glyph-name="pehar.medi" unicode="&#x67e;" horiz-adv-x="424" arabic-form="medial" 
d="M163 249l116 77q15 -27 22 -39q26 -47 31 -67q4 -15 4 -37q0 -23 -5 -45q-11 -39 23 -49q20 -6 70 -6q11 0 18 -11.5t7 -29.5t-7 -30t-18 -12q-127 1 -172 54q-52 -29 -128 -43q-62 -11 -124 -11q-11 0 -18 12t-7 30t7 29.5t18 11.5q82 0 146 16q66 17 66 45
q-5 20 -21 52l-16 30q-5 9 -12 23zM232 -35q25 0 42 -17.5t17 -42.5t-17 -42.5t-42 -17.5t-42.5 17.5t-17.5 42.5t17.5 42.5t42.5 17.5zM92 -60q25 0 42.5 -17.5t17.5 -42.5t-17.5 -42.5t-42.5 -17.5t-42 17.5t-17 42.5t17 42.5t42 17.5zM184 -179q25 0 42.5 -17.5
t17.5 -42.5t-17.5 -42.5t-42.5 -17.5t-42.5 17.5t-17.5 42.5t17.5 42.5t42.5 17.5z" />
    <glyph glyph-name="ttehar.fina" unicode="&#x679;" horiz-adv-x="838" arabic-form="final" 
d="M405 641l1 -1q-10 -3 -12.5 -19t1.5 -25q3 -19 11 -41q6 -14 6 -43q0 -3 -0.5 -10t-1.5 -10q24 24 48 40q31 19 54 15q33 -5 38 -37q7 -43 -52 -69q-53 -25 -116 -18q-65 5 -71 45q-3 21 26 35v-2q-1 -1 -1 -3q-18 -12 -10 -27q7 -16 28 -16q27 -2 31 26q2 14 -6 28
q-7 12 -12 28q-19 34 -7 68q6 15 18.5 26t26.5 10zM485 507q-34 -9 -50 -44q14 0 36 8q25 9 32 20q6 10 0 14.5t-18 1.5zM464 374v11q20 -12 31.5 -39t6.5 -48q-9 -38 -61 -45q-44 -7 -100 0q-55 5 -84 4q-45 -2 -67 -25q-12 -12 -13 -31q-1 -31 27.5 -54t78.5 -38
q95 -29 207 -24q115 5 134 42q7 15 -15 60q-10 22 -19 36q-5 7 -14 26q51 36 116 77q22 -42 29 -52q24 -41 27 -80q1 -20 -5 -60q-5 -29 10 -38q8 -7 29 -10q20 -3 56 -3q10 0 17 -12t7 -29t-7 -29.5t-17 -12.5q-128 1 -173 54q-75 -42 -225 -51q-165 -10 -276 29
q-134 45 -133 152q1 92 98 121q76 22 171 0q3 -1 15 -3t19 -4q43 -9 82 -8q43 2 53 29q5 15 -2 39q-3 6 -3 16z" />
    <glyph glyph-name="ttehar.init" unicode="&#x679;" horiz-adv-x="366" arabic-form="initial" 
d="M147 609l1 -1q-10 -3 -12.5 -19t1.5 -25q3 -19 11 -41q6 -14 6 -43q0 -3 -0.5 -10t-1.5 -10q24 24 48 40q31 19 54 15q33 -5 38 -37q7 -43 -52 -69q-53 -25 -116 -18q-65 5 -71 45q-3 21 26 35v-2q-1 -1 -1 -3q-18 -12 -10 -27q7 -16 28 -16q27 -2 31 26q2 14 -6 28
q-7 12 -12 28q-19 34 -7 68q6 15 18.5 26t26.5 10zM227 475q-34 -9 -50 -44q14 0 36 8q25 9 32 20q6 10 0 14.5t-18 1.5zM163 249l116 77q15 -27 22 -39q26 -47 31 -67q4 -15 4 -37q0 -69 -61 -115q-51 -37 -136 -54q-70 -14 -139 -14q-11 0 -18 12t-7 30t7 29.5t18 11.5
q82 0 146 16q67 17 67 45q0 1 -1 3t-2 4.5t-1 4.5q-1 5 -7 15z" />
    <glyph glyph-name="ttehar.medi" unicode="&#x679;" horiz-adv-x="424" arabic-form="medial" 
d="M147 609l1 -1q-10 -3 -12.5 -19t1.5 -25q3 -19 11 -41q6 -14 6 -43q0 -3 -0.5 -10t-1.5 -10q24 24 48 40q31 19 54 15q33 -5 38 -37q7 -43 -52 -69q-53 -25 -116 -18q-65 5 -71 45q-3 21 26 35v-2q-1 -1 -1 -3q-18 -12 -10 -27q7 -16 28 -16q27 -2 31 26q2 14 -6 28
q-7 12 -12 28q-19 34 -7 68q6 15 18.5 26t26.5 10zM227 475q-34 -9 -50 -44q14 0 36 8q25 9 32 20q6 10 0 14.5t-18 1.5zM163 249l116 77q15 -27 22 -39q26 -47 31 -67q4 -15 4 -37q0 -23 -5 -45q-11 -39 23 -49q20 -6 70 -6q11 0 18 -11.5t7 -29.5t-7 -30t-18 -12
q-127 1 -172 54q-52 -29 -128 -43q-62 -11 -124 -11q-11 0 -18 12t-7 30t7 29.5t18 11.5q82 0 146 16q66 17 66 45q-5 20 -21 52l-16 30q-5 9 -12 23z" />
    <glyph glyph-name="vehar.fina" unicode="&#x6a4;" horiz-adv-x="845" arabic-form="final" 
d="M460 675q20 -15 23 -39.5t-13 -44.5q-15 -20 -39.5 -23t-44.5 13q-20 15 -22.5 39t12.5 44t39.5 23t44.5 -12zM592 601q20 -15 23 -39.5t-13 -44.5q-15 -20 -39.5 -23t-44.5 13q-20 15 -22.5 39t12.5 44t39.5 23t44.5 -12zM470 526q20 -15 23 -39.5t-13 -44.5
q-15 -20 -39.5 -23t-44.5 13q-20 15 -22.5 39.5t12.5 44.5t39.5 22.5t44.5 -12.5zM529 399q47 38 88 35t77 -37q34 -34 53.5 -85.5t16.5 -103.5q-2 -36 -9 -58q-14 -50 18 -60q18 -7 72 -7q11 0 18 -12t7 -30t-7 -29.5t-18 -11.5q-130 0 -174 55q-76 -39 -197 -52
q-126 -13 -234 9q-135 27 -187 115q-23 38 -22.5 76t23.5 66q54 64 174 36q70 -17 116 -15q70 4 50 68q-2 10 -2 16v11q22 -16 33 -46.5t0 -50.5q-21 -41 -96 -39q-44 2 -65 4q-52 5 -72 -9q-40 -30 7 -82q42 -47 151 -59q123 -13 211 9q43 10 62 29q-82 8 -104 15
q-42 14 -53 62q-12 48 6 97.5t57 83.5zM571 335q-15 0 -19.5 -17t4.5 -41q9 -21 36 -33q10 -5 50 -12q-19 59 -37 80q-20 23 -34 23z" />
    <glyph glyph-name="vehar.init" unicode="&#x6a4;" horiz-adv-x="385" arabic-form="initial" 
d="M122 718q20 -15 23 -39.5t-13 -44.5q-15 -20 -39.5 -23t-44.5 13q-20 15 -22.5 39t12.5 44t39.5 23t44.5 -12zM254 644q20 -15 23 -39.5t-13 -44.5q-15 -20 -39.5 -23t-44.5 13q-20 15 -22.5 39t12.5 44t39.5 23t44.5 -12zM132 569q20 -15 23 -39.5t-13 -44.5
q-15 -20 -39.5 -23t-44.5 13q-20 15 -22.5 39.5t12.5 44.5t39.5 22.5t44.5 -12.5zM270 409q32 -25 54.5 -68t28.5 -91q14 -112 -59 -173q-50 -40 -140 -60q-76 -17 -154 -17q-10 0 -17 12t-7 29t7 29.5t17 12.5q84 0 144 15q65 17 69 43l-57 6q-55 5 -80 30q-14 14 -20 41
q-12 48 6 97.5t57 83.5q75 68 151 10zM162 335q-15 0 -20 -17t4 -41q9 -21 37 -33q9 -4 49 -12q-19 59 -37 80q-20 23 -33 23z" />
    <glyph glyph-name="vehar.medi" unicode="&#x6a4;" horiz-adv-x="435" arabic-form="medial" 
d="M122 718q20 -15 23 -39.5t-13 -44.5q-15 -20 -39.5 -23t-44.5 13q-20 15 -22.5 39t12.5 44t39.5 23t44.5 -12zM254 644q20 -15 23 -39.5t-13 -44.5q-15 -20 -39.5 -23t-44.5 13q-20 15 -22.5 39t12.5 44t39.5 23t44.5 -12zM132 569q20 -15 23 -39.5t-13 -44.5
q-15 -20 -39.5 -23t-44.5 13q-20 15 -23 39.5t13 44.5q15 20 39.5 22.5t44.5 -12.5zM242 426q56 -26 89 -100q33 -75 20 -148q-5 -27 -9 -45q-9 -36 27 -45q23 -5 66 -5q11 0 18 -12t7 -30t-7 -29.5t-18 -11.5q-127 0 -174 55q-52 -29 -130 -42q-68 -13 -131 -13
q-10 0 -17.5 12t-7.5 29t7.5 29.5t17.5 12.5q84 0 144 15q65 17 69 43q-82 8 -104 15q-42 14 -53 62q-12 48 6 97.5t57 83.5q60 54 123 27zM161 335q-15 0 -19.5 -17t4.5 -41q9 -21 37 -33q9 -4 49 -12q-19 59 -37 80q-20 23 -34 23z" />
    <glyph glyph-name="tchehar.fina" unicode="&#x686;" horiz-adv-x="712" arabic-form="final" 
d="M181 382q57 26 117 -3q38 -18 114 -74q74 -55 166 -85q63 -21 162 -30l-99 -101q25 -6 71 -7q11 0 18 -11.5t7 -29.5t-7 -29.5t-18 -11.5q-93 0 -140 26q-41 22 -60 79q-100 18 -196 0q-80 -14 -129 -47q-63 -42 -59 -106q4 -77 86 -115q70 -34 172 -27q97 6 160 44
q39 24 46 50q8 30 -25 56q-1 1 -1 4t-1 4q53 -25 53 -67q-1 -57 -55 -101q-49 -38 -119 -58q-65 -19 -121 -21q-120 -5 -207 52q-102 67 -82 181q18 109 125 171q82 48 209 72q-44 30 -46 32q-59 40 -112 50q-29 5 -54 -7q-24 -12 -35 -35q-10 -23 6 -39v2q-1 1 -1 2
q0 17 12.5 29.5t29.5 12.5t29.5 -12.5t12.5 -29.5t-12 -30t-28 -16q-50 -10 -74 21q-33 42 -10 100q13 31 39.5 61.5t55.5 43.5zM402 81q25 0 42.5 -17t17.5 -42t-17.5 -42.5t-42.5 -17.5t-42.5 17.5t-17.5 42.5t17.5 42t42.5 17zM263 56q25 0 42.5 -17t17.5 -42
t-17.5 -42.5t-42.5 -17.5t-42.5 17.5t-17.5 42.5t17.5 42t42.5 17zM353 -52q25 0 42.5 -17.5t17.5 -42.5t-17.5 -42t-42.5 -17t-42.5 17t-17.5 42t17.5 42.5t42.5 17.5z" />
    <glyph glyph-name="tchehar.init" unicode="&#x686;" horiz-adv-x="765" arabic-form="initial" 
d="M176 382q57 26 117 -3q38 -18 114 -74q74 -55 166 -85q63 -21 162 -30l-49 -50q-8 -9 -25 -25.5t-25 -25.5l-12 -13q-63 19 -118 29q-99 19 -181 -7q-35 -12 -68 -29q-74 -39 -151 -58q-47 -11 -106 -11q-10 0 -17.5 14t-7.5 27q0 18 7 29.5t18 11.5q83 0 146 24
q33 13 51 23q62 34 100 50q29 11 66 18q-44 30 -46 32q-59 40 -112 50q-29 5 -54 -7q-26 -13 -36 -35t7 -39q-2 19 10 32.5t31 13.5q17 0 29.5 -12.5t12.5 -29.5q0 -15 -12.5 -29t-27.5 -17q-50 -9 -75 21q-33 40 -9 100q13 31 39.5 61.5t55.5 43.5zM423 -2q25 0 42.5 -17
t17.5 -42t-17.5 -42.5t-42.5 -17.5t-42.5 17.5t-17.5 42.5t17.5 42t42.5 17zM284 -27q25 0 42.5 -17t17.5 -42t-17.5 -42.5t-42.5 -17.5t-42.5 17.5t-17.5 42.5t17.5 42t42.5 17zM382 -152q25 0 42.5 -17.5t17.5 -42.5t-17.5 -42t-42.5 -17t-42.5 17t-17.5 42t17.5 42.5
t42.5 17.5z" />
    <glyph glyph-name="tchehar.medi" unicode="&#x686;" horiz-adv-x="708" arabic-form="medial" 
d="M177 382q57 26 117 -3q38 -18 114 -74q74 -55 166 -85q63 -21 161 -30l-49 -50q-32 -34 -49 -51q18 -5 71 -7q10 0 17 -12t7 -29t-7 -29t-17 -12q-94 0 -141 26q-41 22 -60 79q-100 19 -181 -7q-35 -12 -68 -29q-73 -38 -152 -58q-47 -11 -106 -11q-10 0 -17.5 14
t-7.5 27q0 18 7 29.5t18 11.5q83 0 146 24q33 13 51 23q62 34 100 50q29 11 66 18q-44 30 -46 32q-59 40 -112 50q-29 5 -54 -7t-35 -35t6 -39q-2 19 10.5 32.5t31.5 13.5q17 0 29 -12.5t12 -29.5q0 -15 -12.5 -29t-27.5 -17q-18 -4 -40 0.5t-34 20.5q-33 43 -9 100
q13 31 39.5 61.5t55.5 43.5zM423 -2q25 0 42.5 -17t17.5 -42t-17.5 -42.5t-42.5 -17.5t-42.5 17.5t-17.5 42.5t17.5 42t42.5 17zM284 -27q25 0 42.5 -17t17.5 -42t-17.5 -42.5t-42.5 -17.5t-42.5 17.5t-17.5 42.5t17.5 42t42.5 17zM382 -152q25 0 42.5 -17.5t17.5 -42.5
t-17.5 -42t-42.5 -17t-42.5 17t-17.5 42t17.5 42.5t42.5 17.5z" />
    <glyph glyph-name="ddalar.fina" unicode="&#x688;" horiz-adv-x="508" arabic-form="final" 
d="M125 641l1 -1q-10 -3 -12.5 -19t1.5 -25q3 -19 11 -41q6 -14 6 -43q0 -3 -0.5 -10t-1.5 -10q24 24 48 40q31 19 54 15q33 -5 38 -37q7 -43 -52 -69q-53 -25 -116 -18q-65 5 -71 45q-3 21 26 35v-2q-1 -1 -1 -3q-18 -12 -10 -27q7 -16 28 -16q27 -2 31 26q2 14 -6 28
q-7 12 -12 28q-19 34 -7 68q6 15 18.5 26t26.5 10zM205 507q-34 -9 -50 -44q14 0 36 8q25 9 32 20q6 10 0 14.5t-18 1.5zM80 327q-5 -35 9.5 -50t44.5 -18q37 -3 65 1q10 2 30 4t30 4q63 10 101 -7t52 -69q3 -12 2 -26q-1 -11 -1 -30q0 -37 17 -45q20 -9 78 -9
q10 0 17.5 -12t7.5 -29t-7.5 -29t-17.5 -12q-126 0 -173 53q-89 -50 -187 -52q-71 -1 -95 46q-13 25 -23 112l8 2q1 1 3.5 1.5t3.5 0.5q39 -36 135 -27q94 9 123 46q22 27 -1 36q-10 3 -26 3q-30 0 -62 -5q-25 -5 -47 -4q-34 0 -64 15q-32 16 -36 52q-3 19 3 46q2 1 6 1
q3 0 4 1z" />
    <glyph glyph-name="jehar.fina" unicode="&#x698;" horiz-adv-x="432" arabic-form="final" 
d="M151 659q25 0 42.5 -17t17.5 -42t-17.5 -42.5t-42.5 -17.5t-42.5 17.5t-17.5 42.5t17.5 42t42.5 17zM250 534q25 0 42.5 -17.5t17.5 -42.5t-17.5 -42t-42.5 -17t-42.5 17t-17.5 42t17.5 42.5t42.5 17.5zM111 509q25 0 42.5 -17.5t17.5 -42.5t-17.5 -42t-42.5 -17
t-42.5 17t-17.5 42t17.5 42.5t42.5 17.5zM226 332q17 -5 47 -17l26 -11q-24 -20 -15 -75q7 -59 42 -98q41 -49 106 -49q11 0 18 -11.5t7 -29.5t-7 -29.5t-18 -11.5q-40 0 -75 5q6 -101 -46 -156q-57 -60 -155 -33q-41 12 -92 56q-46 37 -64 36q-8 0 -10.5 3t0 7.5t9.5 9.5
q26 17 53 -4q33 -28 60 -39.5t63 -5.5q49 10 61 81q5 30 -23 100q-9 19 -27 61q-14 29 -27 62q-16 43 -21 72q-7 44 9 72q15 24 79 5z" />
    <glyph glyph-name="rrehar.fina" unicode="&#x691;" horiz-adv-x="380" arabic-form="final" 
d="M124 641l1 -1q-10 -3 -12.5 -19t1.5 -25q3 -19 11 -41q6 -14 6 -43q0 -3 -0.5 -10t-1.5 -10q24 24 48 40q31 19 54 15q33 -5 38 -37q7 -43 -52 -69q-53 -25 -116 -18q-65 5 -71 45q-3 21 26 35v-2q-1 -1 -1 -3q-18 -12 -10 -27q7 -16 28 -16q27 -2 31 26q2 14 -6 28
q-7 12 -12 28q-19 34 -7 68q6 15 18.5 26t26.5 10zM204 507q-34 -9 -50 -44q14 0 36 8q25 9 32 20q6 10 0 14.5t-18 1.5zM174 332q17 -5 47 -17l26 -11q-24 -20 -15 -75q7 -59 42 -98q41 -49 106 -49q11 0 18 -11.5t7 -29.5t-7 -29.5t-18 -11.5q-40 0 -75 5q6 -101 -46 -156
q-57 -60 -155 -33q-41 12 -92 56q-46 37 -64 36q-8 0 -10.5 3t0 7.5t9.5 9.5q26 17 53 -4q33 -28 60 -39.5t63 -5.5q49 10 61 81q5 30 -23 100q-9 19 -27 61q-14 29 -27 62q-16 43 -21 72q-7 44 9 72q15 24 79 5z" />
    <glyph glyph-name="uniFB8F" unicode="&#x6a9;" horiz-adv-x="841" arabic-form="final" 
d="M713 586q9 0 9 -1t-8 -3q-24 -6 -32 -52q-7 -36 -1 -70q14 -71 48 -150q21 -50 19 -121q0 -8 -0.5 -23t-1.5 -22q-2 -43 34 -55q18 -7 61 -7q10 0 17 -12t7 -29t-7 -29t-17 -12q-130 0 -172 54q-73 -38 -196 -51q-126 -13 -234 9q-130 27 -183 110q-24 35 -25.5 73
t17.5 66q42 66 152 49q15 -1 29 -6q30 -9 50 -4q11 3 27 14q5 -30 -36 -51q-24 -11 -66 -14q-28 -2 -34.5 -19t10.5 -39q38 -55 136 -82q117 -34 257 6q77 22 72 75q-3 25 -16 50q-40 86 -51 150q-9 50 9 96q16 40 52 71q35 30 74 29zM499 403q17 -5 17 -23q0 -11 -7 -17.5
t-17 -6.5q-25 0 -25 23q-23 2 -41 -11q-20 -14 -3 -31q12 -12 35 -14q6 -1 18 -1q6 0 18 -2q23 -5 33 -25t2 -42q-8 -24 -35.5 -37t-72.5 -5q-24 3 -37 7q-35 6 -61 -6q-13 -8 -30 -24q20 51 62 58q17 2 36 0q20 -2 37.5 4.5t11.5 17.5q-8 13 -31 14q-33 2 -48.5 12.5
t-13.5 36.5q4 40 62 63q55 22 90 9z" />
    <glyph glyph-name="uniFB90" unicode="&#x6a9;" horiz-adv-x="590" arabic-form="initial" 
d="M230 642l96 -91q-11 -101 -65 -191q-21 -36 -53 -71q57 33 137 48q92 18 148 -3q67 -26 66 -106q-4 -79 -97 -134q-79 -47 -215 -72q-113 -22 -247 -22q-11 0 -18 11.5t-7 29.5t7 29.5t18 11.5q86 0 180 17q100 18 160 47q69 33 70 70q1 32 -16.5 45.5t-50.5 11.5
q-34 -2 -152 -36q-107 -31 -154 -26q-80 9 -80 59q0 17 12 29t29 12q24 0 36 -21q5 -12 5 -21q0 -11 -6 -21q72 4 118 75q35 55 56 156q11 54 23 163z" />
    <glyph glyph-name="uniFB91" unicode="&#x6a9;" horiz-adv-x="618" arabic-form="medial" 
d="M230 642l96 -91q-11 -101 -65 -191q-21 -36 -53 -71q57 33 137 48q92 18 148 -3q69 -28 65 -106q-2 -47 -34 -85q-1 -3 -2 -9q-8 -26 30 -42q19 -10 66 -10q11 0 18 -11.5t7 -29.5t-7 -29.5t-18 -11.5q-82 0 -124.5 18t-63.5 58q-84 -40 -206 -59q-108 -17 -224 -17
q-11 0 -18 11.5t-7 29.5t7 29.5t18 11.5q86 0 180 17q100 18 160 47q69 33 70 70q1 32 -16.5 45.5t-50.5 11.5q-34 -2 -152 -36q-107 -31 -154 -26q-80 9 -80 59q0 17 12 29t29 12q24 0 36 -21q5 -12 5 -21q0 -11 -6 -21q72 4 118 75q35 55 56 156q11 54 23 163z" />
    <glyph glyph-name="gafar.fina" unicode="&#x6af;" horiz-adv-x="841" arabic-form="final" 
d="M713 586q9 0 9 -1t-8 -3q-24 -6 -32 -52q-7 -36 -1 -70q14 -71 48 -150q21 -50 19 -121q0 -8 -0.5 -23t-1.5 -22q-2 -43 34 -55q18 -7 61 -7q10 0 17 -12t7 -29t-7 -29t-17 -12q-130 0 -172 54q-73 -38 -196 -51q-126 -13 -234 9q-130 27 -183 110q-24 35 -25.5 73
t17.5 66q42 66 152 49q15 -1 29 -6q30 -9 50 -4q11 3 27 14q5 -30 -36 -51q-24 -11 -66 -14q-28 -2 -34.5 -19t10.5 -39q38 -55 136 -82q117 -34 257 6q77 22 72 75q-3 25 -16 50q-40 86 -51 150q-9 50 9 96q16 40 52 71q35 30 74 29zM519 552q-99 -96 -197 -150
q-52 -28 -99 -33l-16 4q-12 2 -17 3q42 6 95 33q36 18 92 58q47 34 98 79l22 3q3 1 11 2t11 1zM499 403q17 -5 17 -23q0 -11 -7 -17.5t-17 -6.5q-25 0 -25 23q-23 2 -41 -11q-20 -14 -3 -31q12 -12 35 -14q6 -1 18 -1q6 0 18 -2q23 -5 33 -25t2 -42q-8 -24 -35.5 -37
t-72.5 -5q-24 3 -37 7q-35 6 -61 -6q-13 -8 -30 -24q20 51 62 58q17 2 36 0q20 -2 37.5 4.5t11.5 17.5q-8 13 -31 14q-33 2 -48.5 12.5t-13.5 36.5q4 40 62 63q55 22 90 9z" />
    <glyph glyph-name="gafar.init" unicode="&#x6af;" horiz-adv-x="590" arabic-form="initial" 
d="M197 644q-6 -69 -18 -132q-13 -68 -30 -110q-22 -56 -53 -90l-14 -8l-15 -9q27 32 49 88q18 47 31 104q14 61 21 124q5 5 15 17q3 2 7 8t7 8zM230 642l96 -91q-8 -64 -26 -109q-37 -95 -92 -153q57 33 137 48q92 18 148 -3q67 -26 66 -106q-4 -79 -97 -134
q-79 -47 -215 -72q-113 -22 -247 -22q-11 0 -18 11.5t-7 29.5t7 29.5t18 11.5q86 0 180 17q100 18 160 47q69 33 70 70q1 32 -16.5 45.5t-50.5 11.5q-34 -2 -152 -36q-107 -31 -154 -26q-80 9 -80 59q0 17 12 29t29 12q12 0 22 -6q19 -13 19 -36q0 -11 -6 -21q72 4 118 75
q35 55 56 156q11 54 23 163z" />
    <glyph glyph-name="gafar.medi" unicode="&#x6af;" horiz-adv-x="618" arabic-form="medial" 
d="M198 644q-6 -69 -18 -132q-15 -66 -31 -110q-19 -53 -53 -90q-12 -7 -14 -8l-14 -9q27 32 49 88q18 47 31 104q14 61 21 124q5 5 15 17q8 10 14 16zM230 642l96 -91q-8 -64 -26 -109q-37 -95 -92 -153q27 14 61 27q78 28 154 29q84 0 119 -48q20 -23 16.5 -70t-34.5 -84
q-1 -3 -2 -9q-8 -26 30 -42q19 -10 66 -10q11 0 18 -11.5t7 -29.5t-7 -29.5t-18 -11.5q-82 0 -124.5 18t-63.5 58q-84 -40 -206 -59q-108 -17 -224 -17q-11 0 -18 11.5t-7 29.5t7 29.5t18 11.5q86 0 180 17q100 18 160 47q69 33 70 70q1 32 -16.5 45.5t-50.5 11.5
q-34 -2 -152 -36q-107 -31 -154 -26q-80 9 -80 59q0 17 12 29t29 12q12 0 22 -6q19 -13 19 -36q0 -11 -6 -21q72 4 118 75q35 55 56 156q11 54 23 163z" />
    <glyph glyph-name="uniFBE8" unicode="&#x649;" horiz-adv-x="366" arabic-form="initial" 
d="M163 249l116 77q15 -27 22 -39q26 -47 31 -67q4 -15 4 -37q0 -69 -61 -115q-51 -37 -136 -54q-70 -14 -139 -14q-11 0 -18 12t-7 30t7 29.5t18 11.5q82 0 146 16q67 17 67 45q0 1 -1 3t-2 4.5t-1 4.5q-1 5 -7 15z" />
    <glyph glyph-name="uniFBE9" unicode="&#x649;" horiz-adv-x="424" arabic-form="medial" 
d="M163 249l116 77q15 -27 22 -39q26 -47 31 -67q4 -15 4 -37q0 -23 -5 -45q-11 -39 23 -49q20 -6 70 -6q11 0 18 -11.5t7 -29.5t-7 -30t-18 -12q-127 1 -172 54q-52 -29 -128 -43q-62 -11 -124 -11q-11 0 -18 12t-7 30t7 29.5t18 11.5q82 0 146 16q66 17 66 45
q-5 20 -21 52l-16 30q-5 9 -12 23z" />
    <glyph glyph-name="uniFBFD" unicode="&#x6cc;" horiz-adv-x="588" arabic-form="final" 
d="M79 431q65 15 80 -37q4 -15 4.5 -33t-1 -33t-7 -36.5t-9.5 -35t-12 -36.5q-8 -24 -12.5 -36.5t-10 -33t-7.5 -34.5t-2 -30.5t4 -30.5q23 -75 113 -121q81 -42 165 -37q44 3 72 23t32 46q4 27 -19.5 47.5t-73.5 26.5q-59 7 -76 42q-9 19 -10 40q-3 20 -9 50q33 -9 61 -10
q78 -7 121 -26q28 -14 48 -41q9 -7 16 -9q6 -2 15 -2q6 -1 27 -1q11 0 18 -12t7 -30t-7 -29.5t-18 -11.5h-11q-4 0 -5 1q-3 0 -4 1q-5 0 -9 1q3 -53 -22 -97t-71 -73q-97 -61 -212 -38q-130 26 -197 141q-31 53 -25 123q3 37 44 140q41 107 47 149q10 72 -44 83z" />
    <glyph glyph-name="uniFBFE" unicode="&#x6cc;" horiz-adv-x="367" arabic-form="initial" 
d="M163 249l116 77q15 -27 22 -39q26 -47 31 -67q4 -15 4 -37q0 -69 -61 -115q-51 -37 -136 -54q-70 -14 -139 -14q-11 0 -18 12t-7 30t7 29.5t18 11.5q82 0 146 16q67 17 67 45q0 1 -1 3t-2 4.5t-1 4.5q-1 5 -7 15z" />
    <glyph glyph-name="uniFBFF" unicode="&#x6cc;" horiz-adv-x="424" arabic-form="medial" 
d="M163 249l116 77q15 -27 22 -39q26 -47 31 -67q4 -15 4 -37q0 -23 -5 -45q-11 -39 23 -49q20 -6 70 -6q11 0 18 -11.5t7 -29.5t-7 -30t-18 -12q-127 1 -172 54q-52 -29 -128 -43q-62 -11 -124 -11q-11 0 -18 12t-7 30t7 29.5t18 11.5q82 0 146 16q66 17 66 45
q-5 20 -21 52l-16 30q-5 9 -12 23z" />
    <glyph glyph-name="uniFC5E" unicode="&#xfc5e;" arabic-form="isolated" 
d="M-19 256l-30 -6q-79 -17 -100 36q-19 49 22 113q50 79 147 100q43 9 90 4l-19 -16q-109 7 -170 -61q-46 -52 -32 -105q14 -55 85 -64q4 -1 7 -1zM124 405q20 -55 -21 -113q-36 -49 -106 -83q-63 -32 -120 -37l-16 8q53 18 97 39q62 31 100 66q44 39 37 81q-3 13 -12.5 18
t-24.5 -5q32 -16 21 -33q-18 -38 -42 -17q-19 19 -18.5 38t14.5 36q25 30 53 31t38 -29zM63 169q9 0 15 -13q4 -11 5 -14q18 -47 13 -71q-17 -87 -83 -38q-30 -33 -58 -33q-33 0 -39 44q-2 10 7 44q-18 -11 -30 -4t-13 23q0 39 28 41q34 4 40 -37q2 -16 1 -24q-3 -24 9 -32
q20 -14 30 0q7 10 -4 48q-1 3 -7 18l15 16q3 3 7.5 8t7.5 8q14 -12 17 -33q4 -26 11 -37q13 -22 27 -20q4 1 5 8q0 13 -20 44q-9 15 -4 27q3 7 9.5 16.5t10.5 10.5z" />
    <glyph glyph-name="uniFC5F" unicode="&#xfc5f;" arabic-form="isolated" 
d="M52 466q8 0 15 -13q4 -11 5 -14q18 -47 13 -71q-17 -87 -83 -38q-30 -33 -58 -33q-34 0 -39 44q-2 10 7 44q-18 -11 -30 -4t-13 23q0 39 28 41q34 4 40 -37q2 -16 1 -24q-3 -24 9 -32q20 -14 30 0q7 10 -4 48q-1 3 -7 18l15 16q3 2 7.5 8t6.5 8q15 -12 18 -33
q4 -26 11 -37q13 -22 27 -20q4 1 5 8q0 13 -20 44q-9 15 -4 27q3 7 9.5 16.5t10.5 10.5zM107 320l10 -7q-8 -36 -12 -50q-7 -34 -37 -46q-14 -7 -135 -46l-28 -9q-19 -6 -31 -22q-5 -6 -17 -25l-4 13l9 38q6 25 26 34q18 8 35 13q133 43 148 53q21 14 36 54zM123 215l10 -7
q-8 -36 -12 -50q-7 -34 -37 -46q-14 -7 -135 -46l-28 -9q-19 -6 -31 -22q-5 -6 -17 -25l-4 13l9 38q6 25 26 34q18 8 35 13q133 43 148 53q21 14 36 54z" />
    <glyph glyph-name="uniFC60" unicode="&#xfc60;" arabic-form="isolated" 
d="M99 356l10 -7q-8 -36 -12 -50q-7 -34 -37 -46q-14 -7 -135 -46l-28 -9q-19 -6 -31 -22q-5 -6 -17 -25l-4 13l9 38q6 25 26 34q18 8 35 13q133 43 148 53q21 14 36 54zM52 169q8 0 15 -13q4 -11 5 -14q18 -47 13 -71q-17 -87 -83 -38q-30 -33 -58 -33q-34 0 -39 44
q-2 10 7 44q-18 -11 -30 -4t-13 23q0 39 28 41q34 4 40 -37q2 -16 1 -24q-3 -24 9 -32q20 -14 30 0q7 10 -4 48q-1 3 -7 18l15 16q3 3 7.5 8t6.5 8q15 -12 18 -33q4 -26 11 -37q13 -22 27 -20q4 1 5 8q0 13 -20 44q-9 15 -4 27q3 7 9.5 16.5t10.5 10.5z" />
    <glyph glyph-name="uniFC61" unicode="&#xfc61;" arabic-form="isolated" 
d="M124 404q20 -55 -21 -113q-36 -49 -106 -83q-63 -32 -120 -37l-16 8q42 12 97 39q62 31 100 66q44 39 37 81q-3 13 -12.5 18t-24.5 -5q32 -16 21 -33q-18 -38 -42 -17q-19 19 -18.5 38t14.5 36q25 30 53 31t38 -29zM67 169q9 0 15 -13q4 -11 5 -14q18 -47 13 -71
q-17 -87 -83 -38q-28 -33 -57 -33q-34 0 -39 44q-2 10 7 44q-18 -11 -30 -4t-13 23q0 39 28 41q34 4 40 -37q2 -16 1 -24q-3 -24 9 -32q20 -14 30 0q7 10 -4 48q-1 3 -7 18l15 16q2 3 6.5 8t7.5 8q14 -12 17 -33q4 -26 11 -37q13 -22 27 -20q4 1 5 8q0 13 -20 44
q-9 15 -4 27q3 7 9.5 16.5t10.5 10.5z" />
    <glyph glyph-name="uniFC62" unicode="&#xfc62;" arabic-form="isolated" 
d="M52 336q8 0 15 -13q4 -11 5 -14q18 -47 13 -71q-17 -87 -83 -38q-30 -33 -58 -33q-34 0 -39 44q-2 10 7 44q-18 -11 -30 -4t-13 23q0 39 28 41q34 4 40 -37q2 -16 1 -24q-3 -24 9 -32q20 -14 30 0q7 10 -4 48q-1 3 -7 18l15 16q3 2 7.5 8t6.5 8q15 -12 18 -33
q4 -26 11 -37q13 -22 27 -20q4 1 5 8q0 13 -20 44q-9 15 -4 27q3 7 9.5 16.5t10.5 10.5zM123 215l10 -7q-8 -36 -12 -50q-7 -34 -37 -46q-14 -7 -135 -46l-28 -9q-19 -6 -31 -22q-5 -6 -17 -25l-4 13l9 38q6 25 26 34q18 8 35 13q133 43 148 53q21 14 36 54z" />
    <glyph glyph-name="uniFC63" unicode="&#xfc63;" arabic-form="isolated" 
d="M-19 370l29 41q32 -57 37 -102q4 -48 -25 -107l-5 6q7 43 -4 84q-6 20 -32 78zM73 169q9 0 15 -13q4 -11 5 -14q18 -47 13 -71q-17 -87 -83 -38q-28 -33 -58 -33q-33 0 -39 44q-2 10 7 44q-18 -11 -30 -4t-13 23q0 39 28 41q34 4 40 -37q2 -16 1 -24q-3 -24 9 -32
q20 -14 30 0q8 9 -4 48q-1 3 -7 18l16 16q2 3 6.5 8t7.5 8q14 -12 17 -33q4 -26 11 -37q13 -22 27 -20q4 1 5 8q0 13 -20 44q-9 15 -4 27q3 7 9.5 16.5t10.5 10.5z" />
    <glyph glyph-name="alefMaddaar.fina" unicode="&#x622;" horiz-adv-x="291" arabic-form="final" 
d="M138 683l62 -30q-34 -23 -87 -14l-37 6q-36 7 -61 -5q-13 -8 -30 -24q20 51 62 58q17 2 36 0t36 4q7 2 13 8zM167 586q9 0 9 -1t-8 -3q-26 -7 -33 -53q-6 -37 0 -69q14 -71 48 -150q37 -88 14 -167v-26q-2 -24 34 -31q17 -4 60 -4q11 0 18 -11.5t7 -29.5t-7 -29.5
t-18 -11.5q-106 0 -152 34q-13 -19 -45 -51l-6 8q24 45 30 82q9 63 -26 143q-9 20 -34 80q-48 112 -17 190q16 40 52 71q35 30 74 29z" />
    <glyph glyph-name="alefHamzaabovear.fina" unicode="&#x623;" horiz-adv-x="286" arabic-form="final" 
d="M186 831q17 -5 17 -23q0 -11 -7 -17.5t-17 -6.5q-10 -1 -17.5 5.5t-7.5 17.5q-23 2 -41 -11q-20 -14 -3 -31q12 -12 35 -14q6 -1 18 -1q28 0 43 -17q19 -24 10 -52q-9 -31 -54 -42q-25 -6 -91 6q-36 7 -61 -5q-14 -8 -30 -24q20 51 62 58q16 2 36 0t37.5 4.5t11.5 17.5
q-8 13 -31 14q-33 2 -48.5 12.5t-13.5 35.5q4 41 62 64q55 22 90 9zM162 586q9 0 9 -1t-8 -3q-26 -7 -33 -53q-6 -37 0 -69q14 -71 48 -150q37 -88 14 -167v-26q-2 -24 34 -31q17 -4 60 -4q11 0 18 -11.5t7 -29.5t-7 -29.5t-18 -11.5q-106 0 -152 34q-13 -19 -45 -51l-6 8
q24 45 30 82q9 63 -26 143q-9 20 -34 80q-48 112 -17 190q16 40 52 71q35 30 74 29z" />
    <glyph glyph-name="wawHamzaabovear.fina" unicode="&#x624;" horiz-adv-x="431" arabic-form="final" 
d="M214 591q16 -4 16 -23q0 -11 -7 -17.5t-17 -6.5q-10 -1 -17.5 5.5t-7.5 17.5q-22 2 -40 -11q-21 -14 -4 -31q12 -12 36 -14q6 -1 18 -1q7 0 17 -2q23 -5 33 -25t2 -42q-8 -24 -35.5 -37t-72.5 -5q-24 3 -37 7q-34 6 -60 -6q-14 -8 -30 -24q20 51 62 58q16 2 36 0
t37.5 4.5t11.5 17.5q-8 13 -32 14q-33 2 -48 12.5t-13 36.5q1 39 61 63q54 22 91 9zM170 331q41 5 129 -27q-18 -18 -16.5 -55t20.5 -74q20 -40 53 -66.5t75 -26.5q10 0 17 -12t7 -29t-7 -29t-17 -12q-44 0 -74 5q6 -101 -46 -156q-56 -60 -155 -32q-39 11 -92 55
q-46 37 -64 36q-12 0 -12 6.5t10 13.5q27 18 54 -4q33 -28 60 -39.5t63 -5.5q56 11 64 109q-44 -31 -81.5 -28t-70.5 33q-30 26 -50 68t-23 82q-5 73 38 125q44 56 118 63zM151 235q-31 -58 -27 -96q5 -50 58 -59q31 30 13 77q-8 22 -21 40q-5 8 -23 38z" />
    <glyph glyph-name="alefHamzabelowar.fina" unicode="&#x625;" horiz-adv-x="284" arabic-form="final" 
d="M160 586q9 0 9 -1t-8 -3q-26 -7 -33 -53q-6 -37 0 -69q14 -71 48 -150q37 -88 14 -167v-26q-2 -24 34 -31q17 -4 60 -4q11 0 18 -11.5t7 -29.5t-7 -29.5t-18 -11.5q-106 0 -152 34q-13 -19 -45 -51l-6 8q43 81 28 154q-8 35 -24 71q-52 119 -61 174q-8 50 10 96
q16 40 52 71q35 30 74 29zM201 -36q16 -4 16 -23q0 -11 -7 -17.5t-17 -6.5q-10 -1 -17.5 5.5t-7.5 17.5q-22 2 -40 -11q-21 -14 -4 -31q13 -12 36 -14q6 -1 18 -1q7 0 17 -2q23 -6 33 -26.5t2 -41.5q-8 -24 -35.5 -36.5t-72.5 -4.5l-37 6q-35 7 -60 -5q-13 -7 -30 -24
q20 51 62 58q17 1 36 0q20 -2 37.5 4.5t11.5 17.5q-8 13 -32 14q-33 2 -48 12.5t-13 35.5q1 40 61 64q54 22 91 9z" />
    <glyph glyph-name="yehHamzaabovear.fina" unicode="&#x626;" horiz-adv-x="588" arabic-form="final" 
d="M283 664q17 -5 17 -23q0 -11 -7 -17.5t-17 -6.5q-10 -1 -17.5 5.5t-8.5 17.5q-22 2 -40 -11q-20 -14 -3 -31q12 -12 35 -14q6 -1 18 -1q6 0 18 -2q22 -5 32 -25.5t2 -41.5q-8 -24 -35.5 -37t-72.5 -5q-24 3 -37 7q-34 6 -60 -6q-13 -7 -30 -24q20 51 62 58q17 1 36 0
q20 -2 37.5 4.5t11.5 17.5q-8 13 -32 14q-33 3 -48 13t-13 36q4 40 62 63q55 22 90 9zM79 431q65 15 80 -37q4 -15 4.5 -33t-1 -33t-7 -36.5t-9.5 -35t-12 -36.5q-8 -24 -12.5 -36.5t-10 -33t-7.5 -34.5t-2 -30.5t4 -30.5q23 -75 113 -121q81 -42 165 -37q44 3 72 23t32 46
q4 27 -19.5 47.5t-73.5 26.5q-59 7 -76 42q-9 19 -10 40q-3 20 -9 50q33 -9 61 -10q78 -7 121 -26q28 -14 48 -41q9 -7 16 -9q6 -2 15 -2q6 -1 27 -1q11 0 18 -12t7 -30t-7 -29.5t-18 -11.5h-11q-4 0 -5 1q-3 0 -4 1q-5 0 -9 1q3 -53 -22 -97t-71 -73q-97 -61 -212 -38
q-130 26 -197 141q-31 53 -25 123q3 37 44 140q41 107 47 149q10 72 -44 83z" />
    <glyph glyph-name="yehHamzaabovear.init" unicode="&#x626;" horiz-adv-x="366" arabic-form="initial" 
d="M220 584q16 -6 16 -24q0 -11 -7 -17.5t-17 -6.5q-24 0 -25 23q-22 2 -40 -11q-20 -14 -3 -30q14 -14 35 -14q6 -1 18 -1q6 0 18 -2q22 -6 32 -26.5t2 -41.5q-8 -24 -35.5 -37t-72.5 -5q-24 3 -37 7q-34 6 -60 -6q-14 -8 -30 -24q20 52 62 59q16 1 36 0q20 -2 37.5 4.5
t11.5 17.5q-8 13 -32 14q-33 3 -48 12.5t-13 35.5q4 41 61 64q56 21 91 9zM163 249l116 77q15 -27 22 -39q12 -20 18 -34q17 -34 17 -70q0 -69 -61 -115q-51 -37 -136 -54q-70 -14 -139 -14q-11 0 -18 12t-7 30t7 29.5t18 11.5q82 0 146 16q67 17 67 45q0 1 -1 3t-2 4.5
t-1 4.5q-1 5 -7 15z" />
    <glyph glyph-name="yehHamzaabovear.medi" unicode="&#x626;" horiz-adv-x="424" arabic-form="medial" 
d="M205 584q17 -8 17 -24q0 -11 -7 -17.5t-17 -6.5q-25 0 -25 23q-23 2 -41 -11q-20 -14 -3 -30q14 -14 36 -14q6 -1 18 -1q7 0 17 -2q23 -6 33 -26.5t2 -41.5q-8 -24 -35.5 -37t-72.5 -5q-24 3 -37 7q-34 6 -60 -6q-14 -8 -30 -24q20 52 61 59q17 1 36 0q20 -2 38 4.5
t12 17.5q-8 13 -32 14q-33 3 -48 12.5t-13 35.5q1 20 18 36.5t43 27.5q57 21 90 9zM163 249l116 77q15 -27 22 -39q12 -20 18 -34q17 -34 17 -70q0 -23 -5 -45q-11 -39 23 -49q20 -6 70 -6q11 0 18 -11.5t7 -29.5t-7 -30t-18 -12q-127 1 -172 54q-52 -29 -128 -43
q-62 -11 -124 -11q-11 0 -18 12t-7 30t7 29.5t18 11.5q82 0 146 16q66 17 66 45q-1 8 -8 23q-11 27 -29 59z" />
    <glyph glyph-name="uniFE8E" unicode="&#x627;" horiz-adv-x="282" arabic-form="final" 
d="M158 586q9 0 9 -1t-8 -3q-26 -7 -33 -53q-6 -37 0 -69q14 -71 48 -150q37 -88 14 -167v-26q-2 -24 34 -31q17 -4 60 -4q11 0 18 -11.5t7 -29.5t-7 -29.5t-18 -11.5q-106 0 -152 34q-13 -19 -45 -51l-6 8q43 81 28 154q-8 35 -24 71q-52 119 -61 174q-8 50 10 96
q16 40 52 71q35 30 74 29z" />
    <glyph glyph-name="behar.fina" unicode="&#x628;" horiz-adv-x="838" arabic-form="final" 
d="M464 374v11q20 -12 31.5 -39t6.5 -48q-9 -38 -61 -45q-44 -7 -100 0q-55 5 -84 4q-45 -2 -67 -25q-12 -12 -13 -31q-1 -31 27.5 -54t78.5 -38q95 -29 207 -24q115 5 134 42q7 15 -15 60q-10 22 -19 36q-5 7 -14 26q51 36 116 77q22 -42 29 -52q24 -41 27 -80
q1 -20 -5 -60q-5 -29 10 -38q8 -7 29 -10q20 -3 56 -3q10 0 17 -12t7 -29t-7 -29.5t-17 -12.5q-128 1 -173 54q-75 -42 -225 -51q-165 -10 -276 29q-134 45 -133 152q1 92 98 121q76 22 171 0q3 -1 15 -3t19 -4q43 -9 82 -8q43 2 53 29q5 15 -2 39q-3 6 -3 16zM404 -60
q25 0 42.5 -17.5t17.5 -42.5t-17.5 -42.5t-42.5 -17.5t-42.5 17.5t-17.5 42.5t17.5 42.5t42.5 17.5z" />
    <glyph glyph-name="behar.init" unicode="&#x628;" horiz-adv-x="366" arabic-form="initial" 
d="M163 249l116 77q15 -27 22 -39q26 -47 31 -67q4 -15 4 -37q0 -69 -61 -115q-51 -37 -136 -54q-70 -14 -139 -14q-11 0 -18 12t-7 30t7 29.5t18 11.5q82 0 146 16q67 17 67 45q0 1 -1 3t-2 4.5t-1 4.5q-1 5 -7 15zM232 -35q25 0 42.5 -17.5t17.5 -42.5t-17.5 -42.5
t-42.5 -17.5t-42.5 17.5t-17.5 42.5t17.5 42.5t42.5 17.5z" />
    <glyph glyph-name="behar.medi" unicode="&#x628;" horiz-adv-x="424" arabic-form="medial" 
d="M163 249l116 77q15 -27 22 -39q26 -47 31 -67q4 -15 4 -37q0 -23 -5 -45q-11 -39 23 -49q20 -6 70 -6q11 0 18 -11.5t7 -29.5t-7 -30t-18 -12q-127 1 -172 54q-52 -29 -128 -43q-62 -11 -124 -11q-11 0 -18 12t-7 30t7 29.5t18 11.5q82 0 146 16q66 17 66 45
q-5 20 -21 52l-16 30q-5 9 -12 23zM232 -35q25 0 42 -17.5t17 -42.5t-17 -42.5t-42 -17.5t-42.5 17.5t-17.5 42.5t17.5 42.5t42.5 17.5z" />
    <glyph glyph-name="tehMarbutaar.fina" unicode="&#x629;" horiz-adv-x="606" arabic-form="final" 
d="M279 550q23 11 45.5 2.5t33.5 -31.5t2.5 -45.5t-31.5 -33.5q-22 -11 -45 -3t-34 31t-2.5 46t31.5 34zM136 539q23 11 45.5 2.5t33.5 -31.5t3 -46t-31 -34t-46 -2.5t-34 31.5t-2.5 46t31.5 34zM528 440q-30 -43 -42 -130q-11 -87 16 -154q30 -74 104 -74q11 0 18 -11.5
t7 -29.5t-7 -29.5t-18 -11.5q-104 0 -157 83q-35 56 -53 175q-76 12 -132 6q-58 -6 -92.5 -34.5t-39.5 -64.5t21.5 -65.5t80.5 -40.5q48 -9 80.5 5t42.5 41q10 25 -5.5 45t-51.5 20q12 -22 0 -43q-14 -22 -39 -22q-18 0 -31 13t-13 31t14 32t37 20q50 14 96 -7
q53 -24 54 -79q2 -60 -69 -97q-65 -34 -145 -7q-77 24 -128 84q-54 64 -44 128q10 72 72 107q52 29 142 36q43 3 158 1q12 35 40.5 53t83.5 20z" />
    <glyph glyph-name="tehar.fina" unicode="&#x62a;" horiz-adv-x="838" arabic-form="final" 
d="M533 476q25 0 42.5 -17.5t17.5 -42.5t-17.5 -42t-42.5 -17t-42.5 17t-17.5 42t17.5 42.5t42.5 17.5zM394 451q25 0 42.5 -17.5t17.5 -42.5t-17.5 -42t-42.5 -17t-42.5 17t-17.5 42t17.5 42.5t42.5 17.5zM464 374v11q20 -12 31.5 -39t6.5 -48q-9 -38 -61 -45
q-44 -7 -100 0q-55 5 -84 4q-45 -2 -67 -25q-12 -12 -13 -31q-1 -31 27.5 -54t78.5 -38q95 -29 207 -24q115 5 134 42q7 15 -15 60q-10 22 -19 36q-5 7 -14 26q51 36 116 77q22 -42 29 -52q24 -41 27 -80q1 -20 -5 -60q-5 -29 10 -38q8 -7 29 -10q20 -3 56 -3q10 0 17 -12
t7 -29t-7 -29.5t-17 -12.5q-128 1 -173 54q-75 -42 -225 -51q-165 -10 -276 29q-134 45 -133 152q1 92 98 121q76 22 171 0q3 -1 15 -3t19 -4q43 -9 82 -8q43 2 53 29q5 15 -2 39q-3 6 -3 16z" />
    <glyph glyph-name="tehar.init" unicode="&#x62a;" horiz-adv-x="366" arabic-form="initial" 
d="M232 476q25 0 42.5 -17.5t17.5 -42.5t-17.5 -42t-42.5 -17t-42.5 17t-17.5 42t17.5 42.5t42.5 17.5zM93 451q25 0 42 -17.5t17 -42.5t-17 -42t-42 -17t-42.5 17t-17.5 42t17.5 42.5t42.5 17.5zM163 249l116 77q15 -27 22 -39q26 -47 31 -67q4 -15 4 -37q0 -69 -61 -115
q-51 -37 -136 -54q-70 -14 -139 -14q-11 0 -18 12t-7 30t7 29.5t18 11.5q82 0 146 16q67 17 67 45q0 1 -1 3t-2 4.5t-1 4.5q-1 5 -7 15z" />
    <glyph glyph-name="tehar.medi" unicode="&#x62a;" horiz-adv-x="424" arabic-form="medial" 
d="M232 476q25 0 42 -17.5t17 -42.5t-17 -42t-42 -17t-42.5 17t-17.5 42t17.5 42.5t42.5 17.5zM92 451q25 0 42.5 -17.5t17.5 -42.5t-17.5 -42t-42.5 -17t-42 17t-17 42t17 42.5t42 17.5zM163 249l116 77q15 -27 22 -39q26 -47 31 -67q4 -15 4 -37q0 -23 -5 -45
q-11 -39 23 -49q20 -6 70 -6q11 0 18 -11.5t7 -29.5t-7 -30t-18 -12q-127 1 -172 54q-52 -29 -128 -43q-62 -11 -124 -11q-11 0 -18 12t-7 30t7 29.5t18 11.5q82 0 146 16q66 17 66 45q-5 20 -21 52l-16 30q-5 9 -12 23z" />
    <glyph glyph-name="thehar.fina" unicode="&#x62b;" horiz-adv-x="838" arabic-form="final" 
d="M435 601q25 0 42.5 -17t17.5 -42t-17.5 -42.5t-42.5 -17.5t-42.5 17.5t-17.5 42.5t17.5 42t42.5 17zM533 476q25 0 42.5 -17.5t17.5 -42.5t-17.5 -42t-42.5 -17t-42.5 17t-17.5 42t17.5 42.5t42.5 17.5zM394 451q25 0 42.5 -17.5t17.5 -42.5t-17.5 -42t-42.5 -17
t-42.5 17t-17.5 42t17.5 42.5t42.5 17.5zM464 374v11q20 -12 31.5 -39t6.5 -48q-9 -38 -61 -45q-44 -7 -100 0q-55 5 -84 4q-45 -2 -67 -25q-12 -12 -13 -31q-1 -31 27.5 -54t78.5 -38q95 -29 207 -24q115 5 134 42q7 15 -15 60q-10 22 -19 36q-5 7 -14 26q51 36 116 77
q22 -42 29 -52q24 -41 27 -80q1 -20 -5 -60q-5 -29 10 -38q8 -7 29 -10q20 -3 56 -3q10 0 17 -12t7 -29t-7 -29.5t-17 -12.5q-128 1 -173 54q-75 -42 -225 -51q-165 -10 -276 29q-134 45 -133 152q1 92 98 121q76 22 171 0q3 -1 15 -3t19 -4q43 -9 82 -8q43 2 53 29
q5 15 -2 39q-3 6 -3 16z" />
    <glyph glyph-name="thehar.init" unicode="&#x62b;" horiz-adv-x="366" arabic-form="initial" 
d="M133 601q25 0 42.5 -17t17.5 -42t-17.5 -42.5t-42.5 -17.5t-42.5 17.5t-17.5 42.5t17.5 42t42.5 17zM232 476q25 0 42.5 -17.5t17.5 -42.5t-17.5 -42t-42.5 -17t-42.5 17t-17.5 42t17.5 42.5t42.5 17.5zM93 451q25 0 42 -17.5t17 -42.5t-17 -42t-42 -17t-42.5 17
t-17.5 42t17.5 42.5t42.5 17.5zM163 249l116 77q15 -27 22 -39q26 -47 31 -67q4 -15 4 -37q0 -69 -61 -115q-51 -37 -136 -54q-70 -14 -139 -14q-11 0 -18 12t-7 30t7 29.5t18 11.5q82 0 146 16q67 17 67 45q0 1 -1 3t-2 4.5t-1 4.5q-1 5 -7 15z" />
    <glyph glyph-name="thehar.medi" unicode="&#x62b;" horiz-adv-x="424" arabic-form="medial" 
d="M133 601q25 0 42.5 -17t17.5 -42t-17.5 -42.5t-42.5 -17.5t-42.5 17.5t-17.5 42.5t17.5 42t42.5 17zM232 476q25 0 42 -17.5t17 -42.5t-17 -42t-42 -17t-42.5 17t-17.5 42t17.5 42.5t42.5 17.5zM92 451q25 0 42.5 -17.5t17.5 -42.5t-17.5 -42t-42.5 -17t-42 17t-17 42
t17 42.5t42 17.5zM163 249l116 77q15 -27 22 -39q26 -47 31 -67q4 -15 4 -37q0 -23 -5 -45q-11 -39 23 -49q20 -6 70 -6q11 0 18 -11.5t7 -29.5t-7 -30t-18 -12q-127 1 -172 54q-52 -29 -128 -43q-62 -11 -124 -11q-11 0 -18 12t-7 30t7 29.5t18 11.5q82 0 146 16
q66 17 66 45q-5 20 -21 52l-16 30q-5 9 -12 23z" />
    <glyph glyph-name="jeemar.fina" unicode="&#x62c;" horiz-adv-x="712" arabic-form="final" 
d="M181 382q57 26 117 -3q38 -18 114 -74q74 -55 166 -85q63 -21 162 -30l-99 -101q25 -6 71 -7q11 0 18 -11.5t7 -29.5t-7 -29.5t-18 -11.5q-93 0 -140 26q-41 22 -60 79q-76 10 -151 5q-100 -9 -161 -42q-76 -42 -72 -116q4 -77 86 -115q70 -34 172 -27q97 6 160 44
q39 24 46 50q8 30 -25 56q-1 1 -1 4t-1 4q53 -25 53 -67q-1 -57 -55 -101q-49 -38 -119 -58q-65 -19 -121 -21q-120 -5 -207 52q-102 67 -82 181q18 109 125 171q82 48 209 72q-44 30 -46 32q-59 40 -112 50q-29 5 -54 -7q-24 -12 -35 -35q-10 -23 6 -39v2q-1 1 -1 2
q0 17 12.5 29.5t29.5 12.5t29.5 -12.5t12.5 -29.5t-12 -30t-28 -16q-50 -10 -74 21q-33 42 -10 100q13 31 39.5 61.5t55.5 43.5zM352 27q25 0 42.5 -17.5t17.5 -42.5t-17.5 -42.5t-42.5 -17.5t-42.5 17.5t-17.5 42.5t17.5 42.5t42.5 17.5z" />
    <glyph glyph-name="jeemar.init" unicode="&#x62c;" horiz-adv-x="765" arabic-form="initial" 
d="M176 382q57 26 117 -3q38 -18 114 -74q74 -55 166 -85q63 -21 162 -30l-49 -50q-8 -9 -25 -25.5t-25 -25.5l-12 -13q-63 19 -118 29q-99 19 -181 -7q-35 -12 -68 -29q-74 -39 -151 -58q-47 -11 -106 -11q-10 0 -17.5 14t-7.5 27q0 18 7 29.5t18 11.5q83 0 146 24
q33 13 51 23q62 34 100 50q29 11 66 18q-44 30 -46 32q-59 40 -112 50q-29 5 -54 -7q-26 -13 -36 -35t7 -39q-2 19 10 32.5t31 13.5q17 0 29.5 -12.5t12.5 -29.5q0 -15 -12.5 -29t-27.5 -17q-50 -9 -75 21q-33 40 -9 100q13 31 39.5 61.5t55.5 43.5zM347 27q25 0 42 -17.5
t17 -42.5t-17 -42.5t-42 -17.5t-42.5 17.5t-17.5 42.5t17.5 42.5t42.5 17.5z" />
    <glyph glyph-name="jeemar.medi" unicode="&#x62c;" horiz-adv-x="708" arabic-form="medial" 
d="M177 382q57 26 117 -3q38 -18 114 -74q74 -55 166 -85q63 -21 161 -30l-49 -50q-32 -34 -49 -51q18 -5 71 -7q10 0 17 -12t7 -29t-7 -29t-17 -12q-94 0 -141 26q-41 22 -60 79q-100 19 -181 -7q-35 -12 -68 -29q-73 -38 -152 -58q-47 -11 -106 -11q-10 0 -17.5 14
t-7.5 27q0 18 7 29.5t18 11.5q83 0 146 24q33 13 51 23q62 34 100 50q29 11 66 18q-44 30 -46 32q-59 40 -112 50q-29 5 -54 -7t-35 -35t6 -39q-2 19 10.5 32.5t31.5 13.5q17 0 29 -12.5t12 -29.5q0 -15 -12.5 -29t-27.5 -17q-18 -4 -40 0.5t-34 20.5q-33 43 -9 100
q13 31 39.5 61.5t55.5 43.5zM347 27q25 0 42.5 -17.5t17.5 -42.5t-17.5 -42.5t-42.5 -17.5t-42.5 17.5t-17.5 42.5t17.5 42.5t42.5 17.5z" />
    <glyph glyph-name="hahar.fina" unicode="&#x62d;" horiz-adv-x="712" arabic-form="final" 
d="M181 382q57 26 117 -3q38 -18 114 -74q74 -55 166 -85q63 -21 162 -30l-99 -101q25 -6 71 -7q11 0 18 -11.5t7 -29.5t-7 -29.5t-18 -11.5q-93 0 -140 26q-41 22 -60 79q-76 10 -151 5q-100 -9 -161 -42q-76 -42 -72 -116q4 -77 86 -115q70 -34 172 -27q97 6 160 44
q39 24 46 50q8 30 -25 56q-1 1 -1 4t-1 4q53 -25 53 -67q-1 -57 -55 -101q-49 -38 -119 -58q-65 -19 -121 -21q-120 -5 -207 52q-102 67 -82 181q18 109 125 171q82 48 209 72q-44 30 -46 32q-59 40 -112 50q-29 5 -54 -7q-24 -12 -35 -35q-10 -23 6 -39v2q-1 1 -1 2
q0 17 12.5 29.5t29.5 12.5t29.5 -12.5t12.5 -29.5t-12 -30t-28 -16q-50 -10 -74 21q-33 42 -10 100q13 31 39.5 61.5t55.5 43.5z" />
    <glyph glyph-name="hahar.init" unicode="&#x62d;" horiz-adv-x="765" arabic-form="initial" 
d="M176 382q57 26 117 -3q38 -18 114 -74q74 -55 166 -85q63 -21 162 -30l-49 -50q-8 -9 -25 -25.5t-25 -25.5l-12 -13q-63 19 -118 29q-99 19 -181 -7q-35 -12 -68 -29q-74 -39 -151 -58q-47 -11 -106 -11q-10 0 -17.5 14t-7.5 27q0 18 7 29.5t18 11.5q83 0 146 24
q33 13 51 23q62 34 100 50q29 11 66 18q-44 30 -46 32q-59 40 -112 50q-29 5 -54 -7q-26 -13 -36 -35t7 -39q-2 19 10 32.5t31 13.5q17 0 29.5 -12.5t12.5 -29.5q0 -15 -12.5 -29t-27.5 -17q-50 -9 -75 21q-33 40 -9 100q13 31 39.5 61.5t55.5 43.5z" />
    <glyph glyph-name="hahar.medi" unicode="&#x62d;" horiz-adv-x="708" arabic-form="medial" 
d="M177 382q57 26 117 -3q38 -18 114 -74q74 -55 166 -85q63 -21 161 -30l-49 -50q-32 -34 -49 -51q18 -5 71 -7q10 0 17 -12t7 -29t-7 -29t-17 -12q-94 0 -141 26q-41 22 -60 79q-100 19 -181 -7q-35 -12 -68 -29q-73 -38 -152 -58q-47 -11 -106 -11q-10 0 -17.5 14
t-7.5 27q0 18 7 29.5t18 11.5q83 0 146 24q33 13 51 23q62 34 100 50q29 11 66 18q-44 30 -46 32q-59 40 -112 50q-29 5 -54 -7t-35 -35t6 -39q-2 19 10.5 32.5t31.5 13.5q17 0 29 -12.5t12 -29.5q0 -15 -12.5 -29t-27.5 -17q-18 -4 -40 0.5t-34 20.5q-33 43 -9 100
q13 31 39.5 61.5t55.5 43.5z" />
    <glyph glyph-name="khahar.fina" unicode="&#x62e;" horiz-adv-x="712" arabic-form="final" 
d="M262 576q25 0 42.5 -17.5t17.5 -42.5t-17.5 -42.5t-42.5 -17.5t-42.5 17.5t-17.5 42.5t17.5 42.5t42.5 17.5zM181 382q57 26 117 -3q38 -18 114 -74q74 -55 166 -85q63 -21 162 -30l-99 -101q25 -6 71 -7q11 0 18 -11.5t7 -29.5t-7 -29.5t-18 -11.5q-93 0 -140 26
q-41 22 -60 79q-100 18 -196 0q-80 -14 -129 -47q-63 -42 -59 -106q4 -77 86 -115q70 -34 172 -27q97 6 160 44q39 24 46 50q8 30 -25 56q-1 1 -1 4t-1 4q53 -25 53 -67q-1 -57 -55 -101q-49 -38 -119 -58q-65 -19 -121 -21q-120 -5 -207 52q-102 67 -82 181q18 109 125 171
q82 48 209 72q-44 30 -46 32q-59 40 -112 50q-29 5 -54 -7q-24 -12 -35 -35q-10 -23 6 -39v2q-1 1 -1 2q0 17 12.5 29.5t29.5 12.5t29.5 -12.5t12.5 -29.5t-12 -30t-28 -16q-50 -10 -74 21q-33 42 -10 100q13 31 39.5 61.5t55.5 43.5z" />
    <glyph glyph-name="khahar.init" unicode="&#x62e;" horiz-adv-x="765" arabic-form="initial" 
d="M257 576q25 0 42.5 -17.5t17.5 -42.5t-17.5 -42.5t-42.5 -17.5t-42.5 17.5t-17.5 42.5t17.5 42.5t42.5 17.5zM176 382q57 26 117 -3q38 -18 114 -74q74 -55 166 -85q63 -21 162 -30l-49 -50q-8 -9 -25 -25.5t-25 -25.5l-12 -13q-63 19 -118 29q-99 19 -181 -7
q-35 -12 -68 -29q-74 -39 -151 -58q-47 -11 -106 -11q-10 0 -17.5 14t-7.5 27q0 18 7 29.5t18 11.5q83 0 146 24q33 13 51 23q62 34 100 50q29 11 66 18q-44 30 -46 32q-59 40 -112 50q-29 5 -54 -7q-26 -13 -36 -35t7 -39q-2 19 10 32.5t31 13.5q17 0 29.5 -12.5
t12.5 -29.5q0 -15 -12.5 -29t-27.5 -17q-50 -9 -75 21q-33 40 -9 100q13 31 39.5 61.5t55.5 43.5z" />
    <glyph glyph-name="khahar.medi" unicode="&#x62e;" horiz-adv-x="708" arabic-form="medial" 
d="M258 576q25 0 42 -17.5t17 -42.5t-17 -42.5t-42 -17.5q-26 0 -43 17.5t-17 42.5t17 42.5t43 17.5zM177 382q57 26 117 -3q38 -18 114 -74q74 -55 166 -85q63 -21 161 -30l-49 -50q-32 -34 -49 -51q18 -5 71 -7q10 0 17 -12t7 -29t-7 -29t-17 -12q-94 0 -141 26
q-41 22 -60 79q-100 19 -181 -7q-35 -12 -68 -29q-73 -38 -152 -58q-47 -11 -106 -11q-10 0 -17.5 14t-7.5 27q0 18 7 29.5t18 11.5q83 0 146 24q33 13 51 23q62 34 100 50q29 11 66 18q-44 30 -46 32q-59 40 -112 50q-29 5 -54 -7t-35 -35t6 -39q-2 19 10.5 32.5t31.5 13.5
q17 0 29 -12.5t12 -29.5q0 -15 -12.5 -29t-27.5 -17q-18 -4 -40 0.5t-34 20.5q-33 43 -9 100q13 31 39.5 61.5t55.5 43.5z" />
    <glyph glyph-name="dalar.fina" unicode="&#x62f;" horiz-adv-x="508" arabic-form="final" 
d="M80 327q-5 -35 9.5 -50t44.5 -18q37 -3 65 1q10 2 30 4t30 4q63 10 101 -7t52 -69q3 -12 2 -26q-1 -11 -1 -30q0 -37 17 -45q20 -9 78 -9q10 0 17.5 -12t7.5 -29t-7.5 -29t-17.5 -12q-126 0 -173 53q-89 -50 -187 -52q-71 -1 -95 46q-13 25 -23 112l8 2q1 1 3.5 1.5
t3.5 0.5q39 -36 135 -27q94 9 123 46q22 27 -1 36q-10 3 -26 3q-30 0 -62 -5q-25 -5 -47 -4q-34 0 -64 15q-32 16 -36 52q-3 19 3 46q2 1 6 1q3 0 4 1z" />
    <glyph glyph-name="thalar.fina" unicode="&#x630;" horiz-adv-x="508" arabic-form="final" 
d="M141 468q25 0 42.5 -17.5t17.5 -42.5t-17.5 -42t-42.5 -17t-42.5 17t-17.5 42t17.5 42.5t42.5 17.5zM80 327q-5 -35 9.5 -50t44.5 -18q37 -3 65 1q10 2 30 4t30 4q63 10 101 -7t52 -69q3 -12 2 -26q-1 -11 -1 -30q0 -37 17 -45q20 -9 78 -9q10 0 17.5 -12t7.5 -29
t-7.5 -29t-17.5 -12q-126 0 -173 53q-89 -50 -187 -52q-71 -1 -95 46q-13 25 -23 112l15 4q39 -36 135 -27q94 9 123 46q22 27 -1 36q-10 3 -26 3q-30 0 -62 -5q-25 -5 -47 -4q-34 0 -64 15q-32 16 -36 52q-3 19 3 46q2 1 6 1q3 0 4 1z" />
    <glyph glyph-name="rehar.fina" unicode="&#x631;" horiz-adv-x="434" arabic-form="final" 
d="M228 332q17 -5 47 -17l26 -11q-24 -20 -15 -75q7 -59 42 -98q41 -49 106 -49q11 0 18 -11.5t7 -29.5t-7 -29.5t-18 -11.5q-40 0 -75 5q6 -101 -46 -156q-57 -60 -155 -33q-41 12 -92 56q-46 37 -64 36q-8 0 -10.5 3t0 7.5t9.5 9.5q26 17 53 -4q33 -28 60 -39.5t63 -5.5
q49 10 61 81q5 30 -23 100q-9 19 -27 61q-14 29 -27 62q-16 43 -21 72q-7 44 9 72q15 24 79 5z" />
    <glyph glyph-name="zainar.fina" unicode="&#x632;" horiz-adv-x="434" arabic-form="final" 
d="M169 518q24 0 41.5 -17.5t17.5 -42.5t-17.5 -42.5t-41.5 -17.5q-25 0 -42.5 17.5t-17.5 42.5t17.5 42.5t42.5 17.5zM228 332q17 -5 47 -17l26 -11q-24 -20 -15 -75q7 -59 42 -98q41 -49 106 -49q11 0 18 -11.5t7 -29.5t-7 -29.5t-18 -11.5q-40 0 -75 5q6 -101 -46 -156
q-57 -60 -155 -33q-41 12 -92 56q-46 37 -64 36q-8 0 -10.5 3t0 7.5t9.5 9.5q26 17 53 -4q33 -28 60 -39.5t63 -5.5q49 10 61 81q5 30 -23 100q-9 19 -27 61q-14 29 -27 62q-16 43 -21 72q-7 44 9 72q15 24 79 5z" />
    <glyph glyph-name="seenar.fina" unicode="&#x633;" horiz-adv-x="930" arabic-form="final" 
d="M151 413l-1 4q47 6 69 -20q23 -28 9 -67q-9 -23 -45 -68q-72 -85 -60 -176q10 -76 73 -130q57 -50 111 -42q57 9 56 86q0 91 -79 248l58 39q9 7 29 20t29 19q57 -111 77 -215q21 -16 36 6q5 10 5 23q0 12 -8 30q-18 33 -40 78l58 39q10 7 29 20t29 19q18 -34 27 -50
q31 -52 31 -100q-2 -29 -16 -56q16 -18 37 -16t32 22q7 15 -15 61q-12 24 -19 35q-5 7 -14 26l58 39q9 7 29 20t29 19q9 -18 23 -39q24 -41 31 -67q4 -15 4 -37q-2 -26 -6 -40q6 -33 50 -51q21 -10 63 -10q11 0 18 -11.5t7 -29.5t-7 -29.5t-18 -11.5q-134 0 -176 57
q-40 -24 -88.5 -24t-94.5 28q-27 -16 -46 -23t-42 -13q-4 -99 -82 -150q-72 -49 -166 -35q-99 13 -159 91q-64 81 -39 185q15 63 93 158q4 5 12.5 15t12 14.5t10.5 13t10.5 13t8.5 11.5t7 11t4.5 9.5t3.5 9.5t1 7q0 16 -17 25q-7 4 -16 6q-3 1 -8.5 2.5t-7.5 1.5z" />
    <glyph glyph-name="seenar.init" unicode="&#x633;" horiz-adv-x="639" arabic-form="initial" 
d="M551 326q13 -24 23 -40q23 -39 30 -66q4 -15 4 -38q0 -44 -22.5 -79t-59.5 -54q-83 -41 -170 12q-51 -31 -90 -32.5t-91 27.5q-44 -56 -175 -56q-10 0 -17.5 12t-7.5 29t7.5 29t17.5 12q61 0 86 14q43 24 11 89l-31 63q9 6 29 19t29 20l58 39q18 -34 27 -50
q31 -52 31 -100q-2 -28 -16 -57q11 -14 28.5 -15t29.5 8q32 22 13 58q-14 26 -23 39t-23 39l58 39q9 7 29 20t29 19q18 -34 28 -50q35 -56 36 -100q0 -27 -15 -57q16 -17 37 -15.5t32 22.5q7 15 -15 61q-12 24 -19 35q-5 7 -14 26l58 39q9 7 29 20t29 19z" />
    <glyph glyph-name="seenar.medi" unicode="&#x633;" horiz-adv-x="715" arabic-form="medial" 
d="M550 326q13 -24 23 -40q23 -39 30 -66q4 -15 4 -38v-46q0 -38 41 -48q22 -6 67 -6q11 0 18 -11.5t7 -29.5t-7 -29.5t-18 -11.5q-131 0 -176 57q-35 -25 -85.5 -24.5t-97.5 28.5q-52 -31 -91 -32.5t-91 27.5q-44 -56 -174 -56q-11 0 -18 11.5t-7 29.5t7 29.5t18 11.5
q60 0 86 14q43 24 10 89l-31 63q9 6 29 19t29 20l58 39q18 -34 27 -50q31 -52 31 -100q-2 -28 -16 -57q25 -28 58 -7q32 21 14 58q-7 13 -23 39q-14 19 -24 39l58 39q9 7 29 20t29 19q18 -34 29 -50q34 -54 35 -100q0 -27 -15 -57q16 -17 37 -15.5t32 22.5q7 15 -15 61
q-12 24 -19 35q-5 7 -14 26l58 39q9 7 28.5 20t29.5 19z" />
    <glyph glyph-name="sheenar.fina" unicode="&#x634;" horiz-adv-x="930" arabic-form="final" 
d="M515 637q25 0 42 -17.5t17 -42.5t-17 -42.5t-42 -17.5t-42.5 17.5t-17.5 42.5t17.5 42.5t42.5 17.5zM613 511q25 0 42.5 -17.5t17.5 -42.5q0 -24 -17.5 -41.5t-42.5 -17.5t-42.5 17.5t-17.5 41.5q0 25 17.5 42.5t42.5 17.5zM474 486q25 0 42.5 -17.5t17.5 -41.5
q0 -25 -17.5 -42.5t-42.5 -17.5t-42.5 17.5t-17.5 42.5q0 24 17.5 41.5t42.5 17.5zM151 413l-1 4q47 6 69 -20q23 -28 9 -67q-9 -23 -45 -68q-72 -85 -60 -176q10 -76 73 -130q57 -50 111 -42q57 9 56 86q0 91 -79 248l58 39q9 7 29 20t29 19q57 -111 77 -215q21 -16 36 6
q5 10 5 23q0 12 -8 30q-18 33 -40 78l58 39q10 7 29 20t29 19q18 -34 27 -50q31 -52 31 -100q-2 -29 -16 -56q16 -18 37 -16t32 22q7 15 -15 61q-12 24 -19 35q-5 7 -14 26l58 39q9 7 29 20t29 19q9 -18 23 -39q24 -41 31 -67q4 -15 4 -37q-2 -26 -6 -40q6 -33 50 -51
q21 -10 63 -10q11 0 18 -11.5t7 -29.5t-7 -29.5t-18 -11.5q-134 0 -176 57q-40 -24 -88.5 -24t-94.5 28q-27 -16 -46 -23t-42 -13q-4 -99 -82 -150q-72 -49 -166 -35q-99 13 -159 91q-64 81 -39 185q15 63 93 158q4 5 12.5 15t12 14.5t10.5 13t10.5 13t8.5 11.5t7 11
t4.5 9.5t3.5 9.5t1 7q0 16 -17 25q-7 4 -16 6q-3 1 -8.5 2.5t-7.5 1.5z" />
    <glyph glyph-name="sheenar.init" unicode="&#x634;" horiz-adv-x="639" arabic-form="initial" 
d="M300 637q25 0 42 -17.5t17 -42.5t-17 -42.5t-42 -17.5t-42.5 17.5t-17.5 42.5t17.5 42.5t42.5 17.5zM398 511q25 0 42.5 -17.5t17.5 -42.5q0 -24 -17.5 -41.5t-42.5 -17.5t-42.5 17.5t-17.5 41.5q0 25 17.5 42.5t42.5 17.5zM259 486q25 0 42.5 -17.5t17.5 -41.5
q0 -25 -17.5 -42.5t-42.5 -17.5t-42.5 17.5t-17.5 42.5q0 24 17.5 41.5t42.5 17.5zM551 326q13 -24 23 -40q23 -39 30 -66q4 -15 4 -38q0 -44 -22.5 -79t-59.5 -54q-83 -41 -170 12q-51 -31 -90 -32.5t-91 27.5q-44 -56 -175 -56q-10 0 -17.5 12t-7.5 29t7.5 29t17.5 12
q61 0 86 14q43 24 11 89l-31 63q9 6 29 19t29 20l58 39q18 -34 27 -50q31 -52 31 -100q-2 -28 -16 -57q11 -14 28.5 -15t29.5 8q32 22 13 58q-14 26 -23 39t-23 39l58 39q9 7 29 20t29 19q18 -34 28 -50q35 -56 36 -100q0 -27 -15 -57q16 -17 37 -15.5t32 22.5q7 15 -15 61
q-12 24 -19 35q-5 7 -14 26l58 39q9 7 29 20t29 19z" />
    <glyph glyph-name="sheenar.medi" unicode="&#x634;" horiz-adv-x="715" arabic-form="medial" 
d="M299 637q25 0 42.5 -17.5t17.5 -42.5t-17.5 -42.5t-42.5 -17.5t-42.5 17.5t-17.5 42.5t17.5 42.5t42.5 17.5zM397 511q25 0 42.5 -17.5t17.5 -42.5q0 -24 -17.5 -41.5t-42.5 -17.5t-42 17.5t-17 41.5q0 25 17 42.5t42 17.5zM258 486q25 0 42.5 -17.5t17.5 -41.5
q0 -25 -17.5 -42.5t-42.5 -17.5t-42.5 17.5t-17.5 42.5q0 24 17.5 41.5t42.5 17.5zM550 326q13 -24 23 -40q23 -39 30 -66q4 -15 4 -38v-46q0 -38 41 -48q22 -6 67 -6q11 0 18 -11.5t7 -29.5t-7 -29.5t-18 -11.5q-131 0 -176 57q-35 -25 -85.5 -24.5t-97.5 28.5
q-52 -31 -91 -32.5t-91 27.5q-44 -56 -174 -56q-11 0 -18 11.5t-7 29.5t7 29.5t18 11.5q60 0 86 14q43 24 10 89l-31 63q9 6 29 19t29 20l58 39q18 -34 27 -50q31 -52 31 -100q-2 -28 -16 -57q25 -28 58 -7q32 21 14 58q-7 13 -23 39q-14 19 -24 39l58 39q9 7 29 20t29 19
q18 -34 29 -50q34 -54 35 -100q0 -27 -15 -57q16 -17 37 -15.5t32 22.5q7 15 -15 61q-12 24 -19 35q-5 7 -14 26l58 39q9 7 28.5 20t29.5 19z" />
    <glyph glyph-name="sadar.fina" unicode="&#x635;" horiz-adv-x="964" arabic-form="final" 
d="M151 413l-1 4q47 6 69 -21q23 -27 9 -66q-9 -23 -45 -68q-72 -85 -60 -176q10 -76 73 -130q57 -50 111 -42q57 7 56 85q0 92 -79 249l58 39q9 7 29 20t29 19q46 -87 67 -162q78 95 138 137q86 59 174 47q73 -11 100 -72q26 -63 -27 -133q-19 -25 23 -44q37 -17 89 -17
q11 0 18 -11.5t7 -29.5t-7 -29.5t-18 -11.5q-80 0 -124 18q-43 18 -63 55q-122 -82 -292 -25q0 -28 -4 -49q-16 -88 -92 -132q-71 -42 -162 -26q-94 17 -151 90q-64 81 -39 185q14 62 93 157l12 15t12.5 15t11 13t10 13t8.5 11.5t7.5 11t5 10t3.5 9.5t1 7q-1 17 -18 25
q-7 4 -16 6q-3 1 -8.5 2.5t-7.5 1.5zM725 257q-35 -1 -78 -39q-30 -26 -57 -66q44 -2 91 9q63 15 82 44q15 26 3 39.5t-41 12.5z" />
    <glyph glyph-name="sadar.init" unicode="&#x635;" horiz-adv-x="697" arabic-form="initial" 
d="M559 348q36 -5 62.5 -25t37.5 -49q26 -67 -30 -135q-61 -76 -165 -105q-88 -24 -175 -9q-81 13 -102 52q0 -40 -63 -61q-49 -16 -124 -16q-11 0 -18 11.5t-7 29.5t7 29.5t18 11.5q58 0 83 12q45 20 15 85l-34 69q9 6 29 19t29 20l58 39q3 -5 11 -21t12 -23q15 -29 30 -72
q13 -41 14 -46q78 95 138 137q86 59 174 47zM505 257q-36 -1 -77 -39q-30 -26 -57 -66q42 -2 90 9q63 14 82 44q15 26 3 39.5t-41 12.5z" />
    <glyph glyph-name="sadar.medi" unicode="&#x635;" horiz-adv-x="729" arabic-form="medial" 
d="M560 348q36 -5 62.5 -25t37.5 -49q25 -66 -31 -135q-21 -26 19 -43q33 -14 62 -14h19q11 0 18 -11.5t7 -29.5t-7 -29.5t-18 -11.5q-77 0 -121 18q-43 16 -62 50q-101 -57 -220 -48q-51 4 -88.5 19.5t-49.5 37.5q0 -40 -63 -61q-49 -16 -125 -16q-11 0 -18 11.5t-7 29.5
t7 29.5t18 11.5q58 0 84 12q45 21 14 85l-34 69q9 6 29 19t29 20l58 39q3 -5 11 -21t12 -23q18 -36 31 -72q13 -41 14 -46q78 95 138 137q86 59 174 47zM505 257q-36 -1 -77 -39q-30 -26 -57 -66q44 -2 91 9q63 15 82 44q15 26 2.5 39.5t-41.5 12.5z" />
    <glyph glyph-name="dadar.fina" unicode="&#x636;" horiz-adv-x="964" arabic-form="final" 
d="M538 518q25 0 42.5 -17.5t17.5 -42.5t-17.5 -42.5t-42.5 -17.5t-42.5 17.5t-17.5 42.5t17.5 42.5t42.5 17.5zM151 413l-1 4q47 6 69 -21q23 -27 9 -66q-9 -23 -45 -68q-72 -85 -60 -176q10 -76 73 -130q57 -50 111 -42q57 7 56 85q0 92 -79 249l58 39q9 7 29 20t29 19
q46 -87 67 -162q78 95 138 137q86 59 174 47q73 -11 100 -72q26 -63 -27 -133q-19 -25 23 -44q37 -17 89 -17q11 0 18 -11.5t7 -29.5t-7 -29.5t-18 -11.5q-80 0 -124 18q-43 18 -63 55q-122 -82 -292 -25q0 -28 -4 -49q-16 -88 -92 -132q-71 -42 -162 -26q-94 17 -151 90
q-64 81 -39 185q14 62 93 157l12 15t12.5 15t11 13t10 13t8.5 11.5t7.5 11t5 10t3.5 9.5t1 7q-1 9 -6 15q-10 11 -28 16q-3 1 -8.5 2.5t-7.5 1.5zM725 257q-35 -1 -78 -39q-30 -26 -57 -66q44 -2 91 9q63 15 82 44q15 26 3 39.5t-41 12.5z" />
    <glyph glyph-name="dadar.init" unicode="&#x636;" horiz-adv-x="697" arabic-form="initial" 
d="M318 518q25 0 42.5 -17.5t17.5 -42.5t-17.5 -42.5t-42.5 -17.5t-42.5 17.5t-17.5 42.5t17.5 42.5t42.5 17.5zM559 348q36 -5 62.5 -25t37.5 -49q26 -67 -30 -135q-61 -76 -165 -105q-88 -24 -175 -9q-81 13 -102 52q0 -40 -63 -61q-49 -16 -124 -16q-11 0 -18 11.5
t-7 29.5t7 29.5t18 11.5q58 0 83 12q45 20 15 85l-34 69q9 6 29 19t29 20l58 39q3 -5 11 -21t12 -23q15 -29 30 -72q13 -41 14 -46q78 95 138 137q86 59 174 47zM505 257q-36 -1 -77 -39q-30 -26 -57 -66q42 -2 90 9q63 14 82 44q15 26 3 39.5t-41 12.5z" />
    <glyph glyph-name="dadar.medi" unicode="&#x636;" horiz-adv-x="729" arabic-form="medial" 
d="M318 518q25 0 42.5 -17.5t17.5 -42.5t-17.5 -42.5t-42.5 -17.5q-24 0 -41.5 17.5t-17.5 42.5t17.5 42.5t41.5 17.5zM560 348q36 -5 62.5 -25t37.5 -49q25 -66 -31 -135q-21 -26 19 -43q33 -14 62 -14h19q11 0 18 -11.5t7 -29.5t-7 -29.5t-18 -11.5q-77 0 -121 18
q-43 16 -62 50q-101 -57 -220 -48q-51 4 -88.5 19.5t-49.5 37.5q0 -40 -63 -61q-49 -16 -125 -16q-11 0 -18 11.5t-7 29.5t7 29.5t18 11.5q58 0 84 12q45 21 14 85l-34 69q9 6 29 19t29 20l58 39q3 -5 11 -21t12 -23q18 -36 31 -72q13 -41 14 -46q78 95 138 137
q86 59 174 47zM505 257q-36 -1 -77 -39q-30 -26 -57 -66q44 -2 91 9q63 15 82 44q15 26 2.5 39.5t-41.5 12.5z" />
    <glyph glyph-name="tahar.fina" unicode="&#x637;" horiz-adv-x="795" arabic-form="final" 
d="M295 586q8 0 8 -1t-8 -3q-25 -6 -32 -53q-6 -37 0 -69q11 -57 33 -115q20 -54 20 -120q0 -26 -5 -56q63 68 130 112q82 53 153 42q44 -6 72 -33.5t35 -67.5q6 -46 -15 -85q-15 -23 9 -39q23 -16 100 -16q11 0 18 -11.5t7 -29.5t-7 -29.5t-18 -11.5q-136 0 -180 62
q-89 -60 -224 -81q-136 -21 -237 9q-112 32 -123 113q-8 58 74 98q-2 -4 -2 -6l-3 -8q-50 -35 -27 -78q9 -19 31 -31.5t48 -12.5q33 -1 57.5 17.5t27.5 57.5q1 35 -16 76q-5 13 -17 39q-7 13 -19 41q-46 113 -16 190q16 40 52 71q35 30 74 29zM557 213q-36 9 -88 -22
q-61 -36 -90 -103q34 0 98 23q71 26 91 56q25 37 -11 46z" />
    <glyph glyph-name="tahar.init" unicode="&#x637;" horiz-adv-x="606" arabic-form="initial" 
d="M170 586q9 0 9 -1t-8 -3q-25 -6 -32 -53q-8 -38 0 -69q11 -57 33 -115q21 -56 19 -120q-2 -38 -5 -56q61 67 131 112q82 53 153 42q44 -6 75 -34t31 -67q0 -121 -116 -176q-86 -40 -238 -46q-62 -2 -115 0t-84 0h-23q-11 0 -18 11.5t-7 29.5t7 29.5t18 11.5q113 0 111 69
q-2 33 -17 69q-1 3 -12.5 29t-15 35t-11.5 30t-12.5 39t-7.5 37q-9 50 9 96q16 40 52 71q35 30 74 29zM432 213q-37 9 -88 -22q-62 -38 -90 -103q35 0 99 23q71 26 91 56q25 37 -12 46z" />
    <glyph glyph-name="tahar.medi" unicode="&#x637;" horiz-adv-x="667" arabic-form="medial" 
d="M170 586q9 0 9 -1t-8 -3q-25 -6 -32 -53q-8 -38 0 -69q11 -57 33 -115q20 -54 20 -120q0 -26 -5 -56q63 68 130 112q82 53 153 42q44 -6 75 -34t31 -67q0 -40 -14 -77q-20 -44 19 -56q19 -7 86 -7q11 0 18 -11.5t7 -29.5t-7 -29.5t-18 -11.5q-136 0 -179 61
q-86 -53 -248 -60q-56 -4 -125 -2q-73 2 -92 1h-23q-10 0 -17.5 12t-7.5 29t7.5 29t17.5 12q113 0 111 69q-2 33 -17 69q-1 3 -12.5 29t-15 35t-11.5 30t-12.5 39t-7.5 37q-8 50 10 96q13 38 51 71q35 30 74 29zM433 213q-36 9 -88 -22q-61 -36 -90 -103q34 0 98 23
q71 26 91 56q25 37 -11 46z" />
    <glyph glyph-name="zahar.fina" unicode="&#x638;" horiz-adv-x="795" arabic-form="final" 
d="M295 586q8 0 8 -1t-8 -3q-25 -6 -32 -53q-6 -37 0 -69q11 -57 33 -115q20 -54 20 -120q0 -26 -5 -56q63 68 130 112q82 53 153 42q44 -6 72 -33.5t35 -67.5q6 -46 -15 -85q-15 -23 9 -39q23 -16 100 -16q11 0 18 -11.5t7 -29.5t-7 -29.5t-18 -11.5q-136 0 -180 62
q-89 -60 -224 -81q-136 -21 -237 9q-112 32 -123 113q-8 58 74 98q-2 -4 -2 -6l-3 -8q-50 -35 -27 -78q9 -19 31 -31.5t48 -12.5q33 -1 57.5 17.5t27.5 57.5q1 35 -16 76q-5 13 -17 39q-7 13 -19 41q-46 113 -16 190q16 40 52 71q35 30 74 29zM428 518q25 0 42.5 -17.5
t17.5 -42.5t-17.5 -42.5t-42.5 -17.5t-42.5 17.5t-17.5 42.5t17.5 42.5t42.5 17.5zM557 213q-36 9 -88 -22q-61 -36 -90 -103q34 0 98 23q71 26 91 56q25 37 -11 46z" />
    <glyph glyph-name="zahar.init" unicode="&#x638;" horiz-adv-x="606" arabic-form="initial" 
d="M170 586q9 0 9 -1t-8 -3q-25 -6 -32 -53q-8 -38 0 -69q11 -57 33 -115q21 -56 19 -120q-2 -38 -5 -56q61 67 131 112q82 53 153 42q44 -6 75 -34t31 -67q0 -121 -116 -176q-86 -40 -238 -46q-62 -2 -115 0t-84 0h-23q-11 0 -18 11.5t-7 29.5t7 29.5t18 11.5q113 0 111 69
q-2 33 -17 69q-1 3 -12.5 29t-15 35t-11.5 30t-12.5 39t-7.5 37q-9 50 9 96q16 40 52 71q35 30 74 29zM304 518q25 0 42.5 -17.5t17.5 -42.5t-17.5 -42.5t-42.5 -17.5t-42.5 17.5t-17.5 42.5t17.5 42.5t42.5 17.5zM432 213q-37 9 -88 -22q-62 -38 -90 -103q35 0 99 23
q71 26 91 56q25 37 -12 46z" />
    <glyph glyph-name="zahar.medi" unicode="&#x638;" horiz-adv-x="667" arabic-form="medial" 
d="M170 586q9 0 9 -1t-8 -3q-25 -6 -32 -53q-8 -38 0 -69q11 -57 33 -115q20 -54 20 -120q0 -26 -5 -56q63 68 130 112q82 53 153 42q44 -6 75 -34t31 -67q0 -40 -14 -77q-20 -44 19 -56q19 -7 86 -7q11 0 18 -11.5t7 -29.5t-7 -29.5t-18 -11.5q-136 0 -179 61
q-86 -53 -248 -60q-56 -4 -125 -2q-73 2 -92 1h-23q-10 0 -17.5 12t-7.5 29t7.5 29t17.5 12q113 0 111 69q-2 33 -17 69q-1 3 -12.5 29t-15 35t-11.5 30t-12.5 39t-7.5 37q-8 50 10 96q13 38 51 71q35 30 74 29zM304 518q25 0 42.5 -17.5t17.5 -42.5t-17.5 -42.5
t-42.5 -17.5t-42.5 17.5t-17.5 42.5t17.5 42.5t42.5 17.5zM433 213q-36 9 -88 -22q-61 -36 -90 -103q34 0 98 23q71 26 91 56q25 37 -11 46z" />
    <glyph glyph-name="ainar.fina" unicode="&#x639;" horiz-adv-x="660" arabic-form="final" 
d="M223 474q82 25 146 -9q70 -38 68 -96q-1 -54 -54 -79q-46 -22 -96 -7q-23 6 -37 20t-14 32t13 31t31 13q19 0 32 -13t13 -31q0 -12 -6 -21h1q36 0 51.5 20t5.5 46t-43 40t-81 5q-72 -13 -95 -62q-21 -45 13 -88q36 -48 113 -55q62 -7 140 7q34 5 69 12q21 5 70 11
l-39 -132h-14q-10 0 -15 1q35 -37 165 -37q11 0 18 -11.5t7 -29.5t-7 -29.5t-18 -11.5q-139 0 -206 29t-77 84q-59 -8 -61 -8q-80 -14 -129 -47q-63 -42 -59 -107q4 -77 86 -115q70 -34 172 -27q98 6 160 45q39 24 46 50q8 30 -25 56l-2 7q53 -25 53 -67q-1 -56 -55 -100
q-49 -38 -119 -58q-65 -19 -122 -21q-77 -2 -142 21q-76 25 -115 75q-45 56 -32 136q21 122 153 186q-56 15 -92.5 46.5t-42.5 75.5q-7 66 45 128q51 60 127 85z" />
    <glyph glyph-name="ainar.init" unicode="&#x639;" horiz-adv-x="515" arabic-form="initial" 
d="M144 417q83 25 146 -9q71 -37 69 -97q-1 -55 -54 -79q-46 -21 -96 -7q-23 6 -37 20t-14 32q0 19 12.5 32t31.5 13q25 0 39 -22q12 -22 0 -44q36 0 51.5 20t5.5 46t-42.5 40.5t-80.5 5.5q-54 -11 -80.5 -41t-21.5 -66t39.5 -64.5t92.5 -34.5q61 -6 140 7q51 9 70 13
q21 5 70 11l-39 -133q-110 6 -238 -25q-5 -1 -28 -7t-30 -7.5t-26.5 -6t-30.5 -6t-28 -4t-33 -3.5t-32 -1q-6 0 -15.5 12.5t-9.5 28.5q0 18 7 29.5t18 11.5q42 0 84 7q-102 36 -112 115q-7 66 45 128q51 60 127 85z" />
    <glyph glyph-name="ainar.medi" unicode="&#x639;" horiz-adv-x="543" arabic-form="medial" 
d="M144 417q83 25 146 -9q71 -37 69 -97q-1 -55 -54 -79q-46 -21 -96 -7q-23 6 -37 20t-14 32q0 19 12.5 32t31.5 13q25 0 39 -22q12 -22 0 -44q36 0 51.5 20t5.5 46t-42.5 40.5t-80.5 5.5q-54 -11 -80.5 -41t-21.5 -66t39.5 -64.5t92.5 -34.5q61 -6 140 7q51 9 70 13
q21 5 70 11l-28 -96q8 -8 28 -11q17 -4 58 -4q11 0 18 -11.5t7 -29.5t-7 -29.5t-18 -11.5q-135 0 -178 61q-69 -4 -186 -33q-112 -28 -179 -28q-6 0 -15.5 12.5t-9.5 28.5q0 18 7 29.5t18 11.5q42 0 84 7q-102 36 -112 115q-7 66 45 128q51 60 127 85z" />
    <glyph glyph-name="ghainar.fina" unicode="&#x63a;" horiz-adv-x="660" arabic-form="final" 
d="M230 670q25 0 42.5 -17.5t17.5 -42.5t-17.5 -42.5t-42.5 -17.5t-42.5 17.5t-17.5 42.5t17.5 42.5t42.5 17.5zM223 474q82 25 146 -9q70 -38 68 -96q-1 -54 -54 -79q-46 -22 -96 -7q-23 6 -37 20t-14 32t13 31t31 13q19 0 32 -13t13 -31q0 -12 -6 -21h1q36 0 51.5 20
t5.5 46t-43 40t-81 5q-72 -13 -95 -62q-21 -45 13 -88q36 -48 113 -55q62 -7 140 7q34 5 69 12q21 5 70 11l-39 -132h-14q-10 0 -15 1q35 -37 165 -37q11 0 18 -11.5t7 -29.5t-7 -29.5t-18 -11.5q-139 0 -206 29t-77 84q-59 -8 -61 -8q-80 -14 -129 -47q-63 -42 -59 -107
q4 -77 86 -115q70 -34 172 -27q98 6 160 45q39 24 46 50q8 30 -25 56l-2 7q53 -25 53 -67q-1 -56 -55 -100q-49 -38 -119 -58q-65 -19 -122 -21q-77 -2 -142 21q-76 25 -115 75q-45 56 -32 136q21 122 153 186q-56 15 -92.5 46.5t-42.5 75.5q-7 66 45 128q51 60 127 85z" />
    <glyph glyph-name="ghainar.init" unicode="&#x63a;" horiz-adv-x="515" arabic-form="initial" 
d="M153 613q25 0 42 -17.5t17 -42.5t-17 -42.5t-42 -17.5t-42.5 17.5t-17.5 42.5t17.5 42.5t42.5 17.5zM144 417q83 25 146 -9q71 -37 69 -97q-1 -55 -54 -79q-46 -21 -96 -7q-23 6 -37 20t-14 32q0 19 12.5 32t31.5 13q25 0 39 -22q12 -22 0 -44q36 0 51.5 20t5.5 46
t-42.5 40.5t-80.5 5.5q-54 -11 -80.5 -41t-21.5 -66t39.5 -64.5t92.5 -34.5q61 -6 140 7q51 9 70 13q21 5 70 11l-39 -133q-110 6 -238 -25q-5 -1 -28 -7t-30 -7.5t-26.5 -6t-30.5 -6t-28 -4t-33 -3.5t-32 -1q-6 0 -15.5 12.5t-9.5 28.5q0 18 7 29.5t18 11.5q42 0 84 7
q-102 36 -112 115q-7 66 45 128q51 60 127 85z" />
    <glyph glyph-name="ghainar.medi" unicode="&#x63a;" horiz-adv-x="543" arabic-form="medial" 
d="M153 613q25 0 42 -17.5t17 -42.5t-17 -42.5t-42 -17.5t-42.5 17.5t-17.5 42.5t17.5 42.5t42.5 17.5zM144 417q83 25 146 -9q71 -37 69 -97q-1 -55 -54 -79q-46 -21 -96 -7q-23 6 -37 20t-14 32q0 19 12.5 32t31.5 13q25 0 39 -22q12 -22 0 -44q36 0 51.5 20t5.5 46
t-42.5 40.5t-80.5 5.5q-54 -11 -80.5 -41t-21.5 -66t39.5 -64.5t92.5 -34.5q61 -6 140 7q51 9 70 13q21 5 70 11l-28 -96q8 -8 28 -11q17 -4 58 -4q11 0 18 -11.5t7 -29.5t-7 -29.5t-18 -11.5q-135 0 -178 61q-69 -4 -186 -33q-112 -28 -179 -28q-6 0 -15.5 12.5t-9.5 28.5
q0 18 7 29.5t18 11.5q42 0 84 7q-102 36 -112 115q-7 66 45 128q51 60 127 85z" />
    <glyph glyph-name="fehar.fina" unicode="&#x641;" horiz-adv-x="845" arabic-form="final" 
d="M556 613q25 0 42.5 -17.5t17.5 -42.5t-17.5 -42.5t-42.5 -17.5t-42.5 17.5t-17.5 42.5t17.5 42.5t42.5 17.5zM529 399q47 38 88 35t77 -37q34 -34 53.5 -85.5t16.5 -103.5q-2 -36 -9 -58q-14 -50 18 -60q18 -7 72 -7q11 0 18 -12t7 -30t-7 -29.5t-18 -11.5
q-130 0 -174 55q-76 -39 -197 -52q-126 -13 -234 9q-135 27 -187 115q-23 38 -22.5 76t23.5 66q54 64 174 36q70 -17 116 -15q70 4 50 68q-2 10 -2 16v11q22 -16 33 -46.5t0 -50.5q-21 -41 -96 -39q-44 2 -65 4q-52 5 -72 -9q-40 -30 7 -82q42 -47 151 -59q123 -13 211 9
q43 10 62 29q-82 8 -104 15q-42 14 -53 62q-12 48 6 97.5t57 83.5zM571 335q-15 0 -19.5 -17t4.5 -41q9 -21 36 -33q10 -5 50 -12q-19 59 -37 80q-20 23 -34 23z" />
    <glyph glyph-name="fehar.init" unicode="&#x641;" horiz-adv-x="385" arabic-form="initial" 
d="M132 569q20 -15 23 -39.5t-13 -44.5q-15 -20 -39.5 -23t-44.5 13q-20 15 -22.5 39.5t12.5 44.5t39.5 22.5t44.5 -12.5zM270 409q32 -25 54.5 -68t28.5 -91q14 -112 -59 -173q-50 -40 -140 -60q-76 -17 -154 -17q-10 0 -17 12t-7 29t7 29.5t17 12.5q84 0 144 15
q65 17 69 43l-57 6q-55 5 -80 30q-14 14 -20 41q-12 48 6 97.5t57 83.5q75 68 151 10zM162 335q-15 0 -20 -17t4 -41q9 -21 37 -33q9 -4 49 -12q-19 59 -37 80q-20 23 -33 23z" />
    <glyph glyph-name="fehar.medi" unicode="&#x641;" horiz-adv-x="435" arabic-form="medial" 
d="M132 569q20 -15 23 -39.5t-13 -44.5q-15 -20 -39.5 -23t-44.5 13q-20 15 -23 39.5t13 44.5q15 20 39.5 22.5t44.5 -12.5zM242 426q56 -26 89 -100q33 -75 20 -148q-5 -27 -9 -45q-9 -36 27 -45q23 -5 66 -5q11 0 18 -12t7 -30t-7 -29.5t-18 -11.5q-127 0 -174 55
q-52 -29 -130 -42q-68 -13 -131 -13q-10 0 -17.5 12t-7.5 29t7.5 29.5t17.5 12.5q84 0 144 15q65 17 69 43q-82 8 -104 15q-42 14 -53 62q-12 48 6 97.5t57 83.5q60 54 123 27zM161 335q-15 0 -19.5 -17t4.5 -41q9 -21 37 -33q9 -4 49 -12q-19 59 -37 80q-20 23 -34 23z" />
    <glyph glyph-name="qafar.fina" unicode="&#x642;" horiz-adv-x="651" arabic-form="final" 
d="M250 541q25 0 42.5 -17.5t17.5 -41.5q0 -25 -17.5 -42.5t-42.5 -17.5t-42.5 17.5t-17.5 42.5q0 24 17.5 41.5t42.5 17.5zM384 491q25 0 42.5 -17.5t17.5 -42.5t-17.5 -42.5t-42.5 -17.5t-42.5 17.5t-17.5 42.5t17.5 42.5t42.5 17.5zM137 356l-3 7q57 14 85 -18
q23 -28 8 -67q-9 -23 -45 -68q-46 -55 -58 -117t10 -110q21 -52 68.5 -85.5t113.5 -38.5q50 -3 87 18.5t51 67.5q7 26 4 66q-62 -7 -117 11q-69 21 -81 74q-12 47 6 97t56 84q69 62 135 19q88 -56 111 -201q7 -6 28 -9q20 -3 55 -3q11 0 18 -12t7 -30t-7 -29.5t-18 -11.5
q-46 0 -79 6q-6 -53 -14 -76q-33 -102 -129 -141q-87 -35 -192 -9q-104 26 -162 99q-63 80 -38 185q15 63 93 158q4 5 12.5 15t12 14.5t10.5 13t10.5 13t8.5 11.5t7 11t4.5 9.5t3.5 9.5t1 7q-2 12 -14 19q-13 6 -47 4q-2 6 -2 7zM376 212q-20 10 -28 -13q-3 -9 -3 -21
q0 -26 20 -43q13 -12 46 -20q19 -4 25 -5q-7 31 -20 59q-16 33 -40 43z" />
    <glyph glyph-name="qafar.init" unicode="&#x642;" horiz-adv-x="385" arabic-form="initial" 
d="M254 644q20 -15 23 -39.5t-13 -44.5q-15 -20 -39.5 -23t-44.5 13q-20 15 -22.5 39t12.5 44t39.5 23t44.5 -12zM132 569q20 -15 23 -39.5t-13 -44.5q-15 -20 -39.5 -23t-44.5 13q-20 15 -22.5 39.5t12.5 44.5t39.5 22.5t44.5 -12.5zM270 409q32 -25 54.5 -68t28.5 -91
q14 -112 -59 -173q-50 -40 -140 -60q-76 -17 -154 -17q-10 0 -17 12t-7 29t7 29.5t17 12.5q84 0 144 15q65 17 69 43l-57 6q-55 5 -80 30q-14 14 -20 41q-12 48 6 97.5t57 83.5q75 68 151 10zM162 335q-15 0 -20 -17t4 -41q9 -21 37 -33q9 -4 49 -12q-19 59 -37 80
q-20 23 -33 23z" />
    <glyph glyph-name="qafar.medi" unicode="&#x642;" horiz-adv-x="435" arabic-form="medial" 
d="M254 644q20 -15 23 -39.5t-13 -44.5q-15 -20 -39.5 -23t-44.5 13q-20 15 -22.5 39t12.5 44t39.5 23t44.5 -12zM132 569q20 -15 23 -39.5t-13 -44.5q-15 -20 -39.5 -23t-44.5 13q-20 15 -23 39.5t13 44.5q15 20 39.5 22.5t44.5 -12.5zM242 426q56 -26 89 -100
q33 -75 20 -148q-5 -27 -9 -45q-9 -36 27 -45q23 -5 66 -5q11 0 18 -12t7 -30t-7 -29.5t-18 -11.5q-127 0 -174 55q-52 -29 -130 -42q-68 -13 -131 -13q-10 0 -17.5 12t-7.5 29t7.5 29.5t17.5 12.5q84 0 144 15q65 17 69 43q-82 8 -104 15q-42 14 -53 62q-12 48 6 97.5
t57 83.5q60 54 123 27zM161 335q-15 0 -19.5 -17t4.5 -41q9 -21 37 -33q9 -4 49 -12q-19 59 -37 80q-20 23 -34 23z" />
    <glyph glyph-name="kafar.fina" unicode="&#x643;" horiz-adv-x="841" arabic-form="final" 
d="M713 586q9 0 9 -1t-8 -3q-24 -6 -32 -52q-7 -36 -1 -70q14 -71 48 -150q21 -50 19 -121q0 -8 -0.5 -23t-1.5 -22q-2 -43 34 -55q18 -7 61 -7q10 0 17 -12t7 -29t-7 -29t-17 -12q-130 0 -172 54q-73 -38 -196 -51q-126 -13 -234 9q-130 27 -183 110q-24 35 -25.5 73
t17.5 66q42 66 152 49q15 -1 29 -6q30 -9 50 -4q11 3 27 14q5 -30 -36 -51q-24 -11 -66 -14q-28 -2 -34.5 -19t10.5 -39q38 -55 136 -82q117 -34 257 6q77 22 72 75q-3 25 -16 50q-40 86 -51 150q-9 50 9 96q16 40 52 71q35 30 74 29zM499 403q17 -5 17 -23q0 -11 -7 -17.5
t-17 -6.5q-25 0 -25 23q-23 2 -41 -11q-20 -14 -3 -31q12 -12 35 -14q6 -1 18 -1q6 0 18 -2q23 -5 33 -25t2 -42q-8 -24 -35.5 -37t-72.5 -5q-24 3 -37 7q-35 6 -61 -6q-13 -8 -30 -24q20 51 62 58q17 2 36 0q20 -2 37.5 4.5t11.5 17.5q-8 13 -31 14q-33 2 -48.5 12.5
t-13.5 36.5q4 40 62 63q55 22 90 9z" />
    <glyph glyph-name="kafar.init" unicode="&#x643;" horiz-adv-x="590" arabic-form="initial" 
d="M230 642l96 -91q-11 -101 -65 -191q-21 -36 -53 -71q57 33 137 48q92 18 148 -3q67 -26 66 -106q-4 -79 -97 -134q-79 -47 -215 -72q-113 -22 -247 -22q-11 0 -18 11.5t-7 29.5t7 29.5t18 11.5q86 0 180 17q100 18 160 47q69 33 70 70q1 32 -16.5 45.5t-50.5 11.5
q-34 -2 -152 -36q-107 -31 -154 -26q-80 9 -80 59q0 17 12 29t29 12q24 0 36 -21q5 -12 5 -21q0 -11 -6 -21q72 4 118 75q35 55 56 156q11 54 23 163z" />
    <glyph glyph-name="kafar.medi" unicode="&#x643;" horiz-adv-x="618" arabic-form="medial" 
d="M230 642l96 -91q-11 -101 -65 -191q-21 -36 -53 -71q57 33 137 48q92 18 148 -3q69 -28 65 -106q-2 -47 -34 -85q-1 -3 -2 -9q-8 -26 30 -42q19 -10 66 -10q11 0 18 -11.5t7 -29.5t-7 -29.5t-18 -11.5q-82 0 -124.5 18t-63.5 58q-84 -40 -206 -59q-108 -17 -224 -17
q-11 0 -18 11.5t-7 29.5t7 29.5t18 11.5q86 0 180 17q100 18 160 47q69 33 70 70q1 32 -16.5 45.5t-50.5 11.5q-34 -2 -152 -36q-107 -31 -154 -26q-80 9 -80 59q0 17 12 29t29 12q24 0 36 -21q5 -12 5 -21q0 -11 -6 -21q72 4 118 75q35 55 56 156q11 54 23 163z" />
    <glyph glyph-name="lamar.fina" unicode="&#x644;" horiz-adv-x="518" arabic-form="final" 
d="M352 587q9 -1 9 -2t-8 -3q-24 -6 -32 -52q-8 -39 0 -70q9 -49 56 -172q47 -131 59 -194q9 -6 28 -9q20 -3 54 -3q11 0 18 -11.5t7 -29.5t-7 -29.5t-18 -11.5q-40 0 -75 5q-2 -48 -29 -85.5t-70 -58.5q-90 -44 -182 -10q-103 38 -127 149q-11 56 19 131q13 33 24 56
q24 56 3 75q-13 10 -50 10l-1 5q63 20 81 -10q14 -25 0 -85q-4 -21 -11 -43q-13 -44 -2 -86q7 -29 30 -61.5t59 -53.5q39 -22 84 -21q62 2 58 84q-3 64 -41 173l-32 86q-36 96 -40 158q-4 58 32 107q28 37 65 55q22 8 39 7z" />
    <glyph glyph-name="lamar.init" unicode="&#x644;" horiz-adv-x="219" arabic-form="initial" 
d="M146 587q9 -1 9 -2t-8 -3q-24 -6 -32 -52q-8 -39 0 -70q10 -59 47 -150q49 -115 10 -208q-42 -102 -172 -102q-10 0 -17 12t-7 29t7 29t17 12q74 0 91 33q13 24 -8 80q-20 46 -22 50q-29 58 -40 97q-15 54 -11 97q4 48 32 86q28 37 65 55q22 8 39 7z" />
    <glyph glyph-name="lamar.medi" unicode="&#x644;" horiz-adv-x="278" arabic-form="medial" 
d="M146 587q9 -1 9 -2t-8 -3q-24 -6 -32 -52q-8 -39 0 -70q10 -59 47 -150q38 -90 22 -166v-27q0 -24 35 -31q17 -4 59 -4q11 0 18 -11.5t7 -29.5t-7 -29.5t-18 -11.5q-108 0 -156 37q-47 -37 -122 -37q-10 0 -17.5 12t-7.5 29t7.5 29t17.5 12q74 0 91 33q13 24 -8 80
q-20 46 -22 50q-29 58 -40 97q-16 56 -12 97q4 46 33 86q28 37 65 55q22 8 39 7z" />
    <glyph glyph-name="meemar.fina" unicode="&#x645;" horiz-adv-x="782" arabic-form="final" 
d="M597 384q-38 -33 -4 -63q16 -14 35 -29q42 -32 45 -85q1 -17 -1 -43q-5 -47 7 -60q10 -12 33 -16q22 -6 70 -6q10 0 17.5 -12t7.5 -29t-7.5 -29t-17.5 -12q-123 0 -164 44q-36 -36 -85 -43q-62 -6 -110 26q-50 34 -49 88q-14 -33 -24 -62q-29 -85 -57 -135
q-37 -68 -97 -89q-33 -11 -68 -6t-56 22q-41 34 -41 85q-2 49 38 73q19 11 44.5 7t35.5 -18q19 -32 -6 -58q-12 -13 -31 -13q-20 0 -32 14q-3 -23 8 -33t30 -8q43 4 73 42q40 51 83 164q2 4 10.5 27t12 30.5t11.5 27t14 31t15 27.5t19 30q45 66 93 89q53 26 148 22zM462 234
q8 -42 32 -86q32 -61 66 -39q10 6 11.5 23.5t-9.5 38.5q-28 51 -100 63z" />
    <glyph glyph-name="meemar.init" unicode="&#x645;" horiz-adv-x="524" arabic-form="initial" 
d="M417 384q-22 -23 -21 -35.5t18 -27.5q16 -14 35 -29q49 -38 45 -113q-6 -90 -69 -145q-52 -47 -124 -30q-55 11 -85 48q-16 19 -20 41q-20 -49 -61 -69q-45 -24 -135 -24q-11 0 -18 11.5t-7 29.5t7 29.5t18 11.5q69 0 107 50q19 25 29 50q32 78 55 114q38 59 119 80
q45 11 107 8zM283 234q8 -42 32 -86q32 -61 66 -39q10 6 11 24t-9 38q-26 50 -100 63z" />
    <glyph glyph-name="meemar.medi" unicode="&#x645;" horiz-adv-x="602" arabic-form="medial" 
d="M417 384q-22 -23 -21 -35.5t18 -27.5q16 -14 35 -29q42 -33 44 -86q1 -22 0 -42q-3 -18 -2.5 -34.5t8.5 -25.5q10 -12 33 -16q22 -6 70 -6q11 0 18 -11.5t7 -29.5t-7 -29.5t-18 -11.5q-123 0 -163 44q-36 -36 -85 -43q-54 -6 -101 20t-57 72q-20 -49 -61 -69
q-45 -24 -135 -24q-11 0 -18 11.5t-7 29.5t7 29.5t18 11.5q69 0 107 50q19 25 29 50q32 78 55 114q38 59 119 80q45 11 107 8zM283 234q8 -42 32 -86q32 -61 66 -39q10 6 11 24t-9 38q-26 50 -100 63z" />
    <glyph glyph-name="noonar.fina" unicode="&#x646;" horiz-adv-x="584" arabic-form="final" 
d="M150 413v5q46 6 69 -21q22 -27 8 -67q-9 -23 -45 -68q-72 -85 -60 -175q10 -76 73 -130q57 -50 111 -42q57 7 57 85q-2 91 -80 249l116 77q26 -50 38 -94q27 -100 67 -130q26 -20 80 -20q11 0 18 -11.5t7 -29.5t-7 -29.5t-18 -11.5q-60 0 -102 11q-11 -96 -90 -143
q-74 -43 -165 -26q-96 18 -152 89q-63 80 -38 186q14 62 93 157q4 5 12.5 15t12 14.5t10.5 13t10.5 13t8.5 11.5t7 11t4.5 9.5t3.5 9.5t1 7q-1 17 -18 25q-7 4 -16 6q-3 1 -8.5 2.5t-7.5 1.5zM232 177q25 0 42.5 -17.5t17.5 -42.5t-17.5 -42.5t-42.5 -17.5t-42.5 17.5
t-17.5 42.5t17.5 42.5t42.5 17.5z" />
    <glyph glyph-name="noonar.init" unicode="&#x646;" horiz-adv-x="366" arabic-form="initial" 
d="M162 451q25 0 42 -17.5t17 -42.5t-17 -42t-42 -17t-42.5 17t-17.5 42t17.5 42.5t42.5 17.5zM163 249l116 77q15 -27 22 -39q26 -47 31 -67q4 -15 4 -37q0 -69 -61 -115q-51 -37 -136 -54q-70 -14 -139 -14q-11 0 -18 12t-7 30t7 29.5t18 11.5q82 0 146 16q67 17 67 45
q0 1 -1 3t-2 4.5t-1 4.5q-1 5 -7 15z" />
    <glyph glyph-name="noonar.medi" unicode="&#x646;" horiz-adv-x="424" arabic-form="medial" 
d="M163 451q25 0 42.5 -17.5t17.5 -42.5t-17.5 -42t-42.5 -17t-42 17t-17 42t17 42.5t42 17.5zM163 249l116 77q15 -27 22 -39q26 -47 31 -67q4 -15 4 -37q0 -23 -5 -45q-11 -39 23 -49q20 -6 70 -6q11 0 18 -11.5t7 -29.5t-7 -30t-18 -12q-127 1 -172 54q-52 -29 -128 -43
q-62 -11 -124 -11q-11 0 -18 12t-7 30t7 29.5t18 11.5q82 0 146 16q66 17 66 45q-5 20 -21 52l-16 30q-5 9 -12 23z" />
    <glyph glyph-name="hehar.fina" unicode="&#x647;" horiz-adv-x="606" arabic-form="final" 
d="M528 440q-30 -43 -42 -130q-11 -87 16 -154q30 -74 104 -74q11 0 18 -11.5t7 -29.5t-7 -29.5t-18 -11.5q-104 0 -157 83q-35 56 -53 175q-76 12 -132 6q-58 -6 -92.5 -34.5t-39.5 -64.5t21.5 -65.5t80.5 -40.5q48 -9 80.5 5t42.5 41q10 25 -5.5 45t-51.5 20q12 -22 0 -43
q-14 -22 -39 -22q-18 0 -31 13t-13 31t14 32t37 20q50 14 96 -7q53 -24 54 -79q2 -60 -69 -97q-65 -34 -145 -7q-77 24 -128 84q-54 64 -44 128q10 72 72 107q52 29 142 36q43 3 158 1q12 35 40.5 53t83.5 20z" />
    <glyph glyph-name="hehar.init" unicode="&#x647;" horiz-adv-x="554" arabic-form="initial" 
d="M251 572l4 22q71 -37 74 -96q3 -48 -37 -119q10 -8 33.5 -27.5t36 -30.5t31.5 -28t34 -32.5t28 -31.5q77 -98 67 -201q-5 -54 -36 -96q-18 -24 -37 -44q-2 -2 -50 -55q-12 32 -96 85q-30 19 -76 46q-41 24 -76 52q-71 -16 -151 -16q-11 0 -18 11.5t-7 29.5t7 29.5
t18 11.5q47 0 80 4q-37 51 -34 106q3 63 60 133q16 20 90 76q62 47 81 81q25 46 -26 90zM229 288q-47 -39 -51.5 -73t34.5 -82q39 36 43 73q4 33 -26 82zM371 138q-5 -20 -25 -43.5t-40 -37.5q36 -22 54 -32l52 -33q44 32 20 77q-11 22 -61 69z" />
    <glyph glyph-name="hehar.medi" unicode="&#x647;" horiz-adv-x="608" arabic-form="medial" 
d="M251 572l4 22q71 -37 74 -96q3 -48 -37 -119q108 -89 140 -124q71 -76 87 -155q7 -8 27 -13q22 -5 62 -5q11 0 18 -11.5t7 -29.5t-7 -29.5t-18 -11.5q-51 0 -89 8q-9 -45 -38 -83q-10 -13 -35 -40q-31 -34 -47 -52q-12 32 -96 85q-30 19 -76 46q-41 24 -76 52
q-73 -16 -151 -16q-11 0 -18 11.5t-7 29.5t7 29.5t18 11.5q47 0 80 4q-37 51 -34 106q3 63 60 133q16 20 90 76q62 47 81 81q25 46 -26 90zM229 288q-47 -39 -51.5 -73t34.5 -82q39 36 43 73q4 33 -26 82zM371 138q-5 -20 -25 -43.5t-40 -37.5q28 -18 53 -32q17 -11 53 -33
q44 32 20 77q-11 22 -61 69z" />
    <glyph glyph-name="wawar.fina" unicode="&#x648;" horiz-adv-x="431" arabic-form="final" 
d="M170 331q41 5 129 -27q-18 -18 -16.5 -55t20.5 -74q20 -40 53 -66.5t75 -26.5q10 0 17 -12t7 -29t-7 -29t-17 -12q-44 0 -74 5q6 -101 -46 -156q-56 -60 -155 -32q-39 11 -92 55q-46 37 -64 36q-12 0 -12 6.5t10 13.5q27 18 54 -4q33 -28 60 -39.5t63 -5.5q56 11 64 109
q-44 -31 -81.5 -28t-70.5 33q-30 26 -50 68t-23 82q-5 73 38 125q44 56 118 63zM151 235q-31 -58 -27 -96q5 -50 58 -59q31 30 13 77q-8 22 -21 40q-5 8 -23 38z" />
    <glyph glyph-name="alefMaksuraar.fina" unicode="&#x649;" horiz-adv-x="588" arabic-form="final" 
d="M79 431q65 15 80 -37q4 -15 4.5 -33t-1 -33t-7 -36.5t-9.5 -35t-12 -36.5q-8 -24 -12.5 -36.5t-10 -33t-7.5 -34.5t-2 -30.5t4 -30.5q23 -75 113 -121q81 -42 165 -37q44 3 72 23t32 46q4 27 -19.5 47.5t-73.5 26.5q-59 7 -76 42q-9 19 -10 40q-3 20 -9 50q33 -9 61 -10
q78 -7 121 -26q28 -14 48 -41q9 -7 16 -9q6 -2 15 -2q6 -1 27 -1q11 0 18 -12t7 -30t-7 -29.5t-18 -11.5h-11q-4 0 -5 1q-3 0 -4 1q-5 0 -9 1q3 -53 -22 -97t-71 -73q-97 -61 -212 -38q-130 26 -197 141q-31 53 -25 123q3 37 44 140q41 107 47 149q10 72 -44 83z" />
    <glyph glyph-name="yehar.fina" unicode="&#x64a;" horiz-adv-x="588" arabic-form="final" 
d="M79 431q65 15 80 -37q4 -15 4.5 -33t-1 -33t-7 -36.5t-9.5 -35t-12 -36.5q-8 -24 -12.5 -36.5t-10 -33t-7.5 -34.5t-2 -30.5t4 -30.5q23 -75 113 -121q81 -42 165 -37q44 3 72 23t32 46q4 27 -19.5 47.5t-73.5 26.5q-59 7 -76 42q-9 19 -10 40q-3 20 -9 50q33 -9 61 -10
q78 -7 121 -26q28 -14 48 -41q9 -7 16 -9q6 -2 15 -2q6 -1 27 -1q11 0 18 -12t7 -30t-7 -29.5t-18 -11.5h-11q-4 0 -5 1q-3 0 -4 1q-5 0 -9 1q3 -53 -22 -97t-71 -73q-97 -61 -212 -38q-130 26 -197 141q-31 53 -25 123q3 37 44 140q41 107 47 149q10 72 -44 83zM368 -262
q21 12 45 5t36 -29q12 -21 5.5 -45t-28.5 -36t-46 -5t-36 28q-12 22 -5 46t29 36zM226 -283q22 12 45.5 5t35.5 -29q12 -21 5.5 -45t-28.5 -36t-45.5 -5t-35.5 28q-12 22 -5.5 46t28.5 36z" />
    <glyph glyph-name="yehar.init" unicode="&#x64a;" horiz-adv-x="366" arabic-form="initial" 
d="M163 249l116 77q15 -27 22 -39q26 -47 31 -67q4 -15 4 -37q0 -69 -61 -115q-51 -37 -136 -54q-70 -14 -139 -14q-11 0 -18 12t-7 30t7 29.5t18 11.5q82 0 146 16q67 17 67 45q0 1 -1 3t-2 4.5t-1 4.5q-1 5 -7 15zM232 -35q25 0 42.5 -17.5t17.5 -42.5t-17.5 -42.5
t-42.5 -17.5t-42.5 17.5t-17.5 42.5t17.5 42.5t42.5 17.5zM93 -60q25 0 42 -17.5t17 -42.5t-17 -42.5t-42 -17.5t-42.5 17.5t-17.5 42.5t17.5 42.5t42.5 17.5z" />
    <glyph glyph-name="yehar.medi" unicode="&#x64a;" horiz-adv-x="424" arabic-form="medial" 
d="M163 249l116 77q15 -27 22 -39q26 -47 31 -67q4 -15 4 -37q0 -23 -5 -45q-11 -39 23 -49q20 -6 70 -6q11 0 18 -11.5t7 -29.5t-7 -30t-18 -12q-127 1 -172 54q-52 -29 -128 -43q-62 -11 -124 -11q-11 0 -18 12t-7 30t7 29.5t18 11.5q82 0 146 16q66 17 66 45
q-5 20 -21 52l-16 30q-5 9 -12 23zM232 -35q25 0 42 -17.5t17 -42.5t-17 -42.5t-42 -17.5t-42.5 17.5t-17.5 42.5t17.5 42.5t42.5 17.5zM92 -60q25 0 42.5 -17.5t17.5 -42.5t-17.5 -42.5t-42.5 -17.5t-42 17.5t-17 42.5t17 42.5t42 17.5z" />
    <glyph glyph-name=".notdef" horiz-adv-x="598" 
 />
    <glyph glyph-name=".null" 
 />
    <glyph glyph-name="nonmarkingreturn" horiz-adv-x="333" 
 />
    <glyph glyph-name="CR" unicode="&#xd;" horiz-adv-x="244" 
 />
    <glyph glyph-name="space" unicode=" " horiz-adv-x="195" 
 />
    <glyph glyph-name="exclam" unicode="!" horiz-adv-x="240" 
d="M167 523q-56 25 -85 25q-57 0 -52 -67q5 -53 39 -144q1 -4 11 -31.5t14 -40.5q22 -73 3 -80q34 -3 56 9q35 24 33 88q-2 48 -21 126q-2 8 -11 57q-10 57 13 58zM86 83q2 -12 2 -22q0 -13 3 -25q9 -32 29 -46q26 -19 81 -11q6 18 7 29q5 31 -5 65q-13 36 -49 44
q-38 7 -68 -34z" />
    <glyph glyph-name="quotedbl" unicode="&#x22;" horiz-adv-x="272" 
d="M30 464q0 -24 9 -54q9 -36 28 -41q3 -2 8 -9q5 -10 5 -36q13 -9 25 -1.5t20 27.5q19 49 2 96q-11 38 -37 47q-34 12 -60 -29zM137 464q2 -32 9 -54q11 -36 28 -41q5 -2 8 -9q6 -12 5 -36q13 -9 25.5 -1.5t20.5 27.5q18 47 2 96q-5 16 -15.5 29.5t-22.5 17.5
q-32 13 -60 -29z" />
    <glyph glyph-name="numbersign" unicode="#" horiz-adv-x="302" 
d="M45 141q-19 -31 31 -39q2 -18 3 -20q1 -3 2.5 -15t2.5 -17q22 -16 34 0q12 15 15 48q11 0 35 2q0 -16 3 -22q0 -3 0.5 -8.5t1.5 -8.5q0 -6 2 -16q25 -15 36 3q11 15 14 54q19 1 32 0q13 0 15 -4q2 15 -9 23t-36 12q0 26 -2 39q0 6 -0.5 19t-0.5 20h27q12 -2 12 -5
q3 14 -8 22.5t-34 12.5l-6 48q-27 26 -41 10q-13 -11 -15 -54h-28l-6 48q-29 26 -43 10q-13 -15 -15 -58q-21 2 -31 5q-19 -31 31 -39q-1 -35 5 -74q-16 2 -27 4zM158 208q0 -14 5 -71h-13h-14q0 11 -2 35t-2 35h13q9 0 13 1z" />
    <glyph glyph-name="percent" unicode="%" horiz-adv-x="517" 
d="M173 484q-87 0 -124 -54q-35 -51 -8 -102q28 -54 98 -54q78 0 111 54q28 49 6 102q-24 54 -83 54zM133 294q-5 1 -8 15q-2 29 9 75q15 53 30 71q8 12 15 11t8 -15q2 -31 -10 -74q-10 -50 -27 -73q-11 -11 -17 -10zM116 7q25 -33 61 -1q29 27 66 105q20 41 61 152
q11 25 29 73q26 71 43 104q8 15 14 15q-19 13 -42 2q-36 -23 -77 -116q-33 -78 -70 -181q-41 -111 -59 -136q-13 -21 -26 -17zM344 -17q87 0 125 54q32 49 9 102q-27 55 -97 55q-78 0 -112 -55q-30 -51 -6 -102q21 -54 81 -54zM386 174q6 -1 7 -14q0 -32 -9 -77
q-14 -50 -31 -71q-5 -8 -10.5 -10.5t-8.5 1.5t-3 13q-2 28 9 74q13 52 29 74q9 10 17 10z" />
    <glyph glyph-name="ampersand" unicode="&#x26;" horiz-adv-x="482" 
d="M200 474q-92 8 -138 -34q-39 -39 -31 -99q10 -59 56 -98q18 -15 27 -19q25 -12 43 -13q-5 -4 -28 -8q-25 -4 -39 -14q-36 -27 -23 -89t72 -109q64 -54 156 -54q100 0 127 46q25 43 -21 86q-50 44 -140 40q18 -6 37 -42q15 -38 14 -66q-3 -36 -24 -36q-38 0 -62 51
q-24 47 -14 101q10 56 62 77q14 6 11.5 14t-18.5 7q-50 -7 -79 56q-28 56 -21 119q9 65 48 65q25 0 37 -45q10 -45 7 -89q-4 -50 -19 -58q52 -17 84 -11t46 30q15 21 11 52.5t-25 60.5q-55 71 -156 79zM451 221q-5 -15 -69 -20q-72 -6 -104 -18q-51 -22 -38 -71q16 12 79 4
q68 -10 95 3q45 21 37 102z" />
    <glyph glyph-name="quotesingle" unicode="'" horiz-adv-x="165" 
d="M30 464q2 -32 9 -54q11 -36 28 -41q4 -2 9 -9q5 -15 4 -36q14 -9 26 -1.5t20 27.5q19 49 2 96q-11 37 -37 47q-33 12 -61 -29z" />
    <glyph glyph-name="parenleft" unicode="(" horiz-adv-x="295" 
d="M238 475q-120 10 -173 -77q-47 -76 -32 -200q14 -118 77 -210q69 -98 155 -106q-44 9 -78 103q-34 92 -40 203q-9 115 12 198q23 89 79 89z" />
    <glyph glyph-name="parenright" unicode=")" horiz-adv-x="296" 
d="M58 -93q119 -9 172 79q47 73 33 199q-16 116 -78 209q-68 98 -155 107q44 -10 79 -103q32 -92 41 -204q7 -119 -14 -197q-23 -90 -78 -90z" />
    <glyph glyph-name="asterisk" unicode="*" horiz-adv-x="432" 
d="M127 448q-50 -13 -69 -30q-24 -20 -21 -42.5t34 -42.5q33 -21 95 -33q-49 -3 -92 -12q-71 -15 -27 -66q21 -27 79 -70q-8 8 -6 20l10 29q18 33 45 63q-11 -34 -8 -64q2 -38 25 -54q27 -18 85 -6q0 27 -16 73q-13 34 -27 67q13 -10 32 -35q31 -41 44 -77q6 -17 1 -24
q42 8 69 30q51 41 -11 83q-28 21 -89 34q100 9 112 56q9 49 -78 120q4 -29 -17 -86q-22 -51 -50 -82q0 2 9 28q13 44 10 80q-3 44 -48 56q-23 5 -62 -3q3 -36 17 -77q17 -49 27 -67q-33 33 -55 74q-27 44 -18 58z" />
    <glyph glyph-name="plus" unicode="+" horiz-adv-x="317" 
d="M183 293q-53 41 -73 18q-15 -20 -6 -80q-4 0 -40 -3q-26 -2 -31 -2q-11 -45 18 -66q23 -17 73 -17q5 -20 6 -23l7 -19l6 -18q22 -14 33 -14q13 0 21 10q10 17 8 71q4 0 32 5q33 7 49 13q6 32 -22 49q-25 13 -70 15q-1 4 -3 17t-3 19q-5 17 -5 25z" />
    <glyph glyph-name="comma" unicode="," horiz-adv-x="184" 
d="M30 106q3 -39 10 -58q16 -39 58 -47q0 -6 -2 -14q-4 -16 -16 -22q29 -18 47 4q17 13 26 55q3 41 -6 72q-5 16 -18.5 28t-29.5 15q-42 9 -69 -33z" />
    <glyph glyph-name="hyphen" unicode="-" horiz-adv-x="249" 
d="M34 250q-13 -50 14 -75q20 -20 64 -25q54 -2 105 10q5 31 -3 50q-14 35 -59 41q-35 6 -85 1q-13 -2 -36 -2z" />
    <glyph glyph-name="period" unicode="." horiz-adv-x="183" 
d="M30 106q0 -5 2 -16.5t2 -18.5q2 -47 44 -66q23 -11 67 -3q2 5 4.5 15l3.5 14q2 37 -6 65q-14 37 -48 43q-41 9 -69 -33z" />
    <glyph glyph-name="slash" unicode="/" horiz-adv-x="335" 
d="M30 7q26 -34 61 -1q31 28 67 105q8 16 61 152q15 34 28 73q31 82 44 104q9 15 14 15q-19 13 -42 2q-38 -24 -77 -116q-27 -61 -70 -181q-41 -111 -59 -136q-14 -20 -27 -17z" />
    <glyph glyph-name="zero" unicode="0" horiz-adv-x="431" 
d="M181 467q-91 0 -129 -74q-34 -65 -16 -162q19 -97 74 -162q60 -75 139 -75q94 0 130 75q35 65 15 162q-19 95 -74 162q-61 74 -139 74zM240 15q-14 3 -26 22q-24 40 -41 123q-18 84 -19 161q-2 81 16 113q9 17 23 14.5t27 -22.5q9 -15 23 -52q19 -57 31 -151
q11 -86 3 -147q-3 -30 -12.5 -46.5t-24.5 -14.5z" />
    <glyph glyph-name="one" unicode="1" horiz-adv-x="332" 
d="M302 84q2 -93 -56 -101q-31 -6 -86 20q12 3 15 29q5 42 -11 156q-14 119 -7 190q5 45 23 70q-26 -23 -38 -77q-10 -54 -26 -64q-24 -15 -86 26q11 6 18 17q15 16 28 35q41 56 76 79q53 37 99 19q-11 -6 -10 -35q1 -39 31 -168q27 -116 30 -196z" />
    <glyph glyph-name="two" unicode="2" horiz-adv-x="474" 
d="M418 79q1 -7 -5 -11t-17 -4q-32 0 -134 13q-43 5 -76 2q28 20 52 33q36 19 67 47q85 72 86 160q0 71 -63 121q-61 48 -144 48q-99 0 -135 -63q-32 -51 -12 -130q18 -72 66 -104q52 -36 102 12q-9 1 -21 21q-16 34 -20 50q-24 73 -21 128q2 68 44 68q60 0 65 -86
q2 -84 -32 -173q-37 -102 -81 -142q-39 -20 -30 -72q2 10 22 10q31 -2 118 -25q33 -10 71 -18q81 -16 110 4q34 25 -12 111z" />
    <glyph glyph-name="three" unicode="3" horiz-adv-x="458" 
d="M203 241q39 0 73 -67q28 -63 20 -122q-11 -64 -67 -57q-37 4 -47 54q-10 41 0 91q5 49 21 54q-35 28 -60 34q-55 12 -77 -36q-22 -46 0 -106q10 -27 32 -53q55 -55 143 -55t140 29q57 36 44 103q-14 66 -83 108q-51 32 -111 41l110 119q35 21 25 69q-1 -9 -22 -9
q-35 3 -117 26q-14 4 -41 9.5t-30 6.5q-83 16 -111 -2q-34 -26 11 -113q1 15 26 16q10 0 62 -4q115 -16 156 -12l-102 -106q-7 -2 -8.5 -6.5t2.5 -8t11 -3.5z" />
    <glyph glyph-name="four" unicode="4" horiz-adv-x="385" 
d="M353 203q4 -37 -2 -53q-8 -16 -22 -17q9 -97 -17 -130q-33 -43 -123 0q16 4 18 49q0 32 -9 108q-39 2 -67 -18q-32 -35 -101 21q5 1 14 18q14 31 18 42q35 85 52 119q32 71 71 110q49 45 96 31q-11 -7 -11 -32q2 -35 28 -156q3 -11 21 -97q28 0 34 5zM185 332
q2 80 24 113q-29 -28 -39 -106q-1 -8 -2.5 -24t-2.5 -24q-3 -52 -12 -92q-5 -22 -10 -35q21 18 52 24q-11 90 -10 144z" />
    <glyph glyph-name="five" unicode="5" horiz-adv-x="421" 
d="M169 269q-39 0 -70 -7q-11 82 8 137l60 -16q78 -23 121 -23q24 0 38 12q28 27 -18 111q0 -15 -22 -15q-17 -1 -56 4q-101 16 -140 11q-73 -10 -57 -82q3 15 48 5q-11 -32 -11 -86q2 -54 7 -86q4 1 15.5 5t19.5 6q23 5 55 5q40 0 73 -69t28 -126q-3 -31 -17 -47.5
t-42 -12.5q-38 4 -47 50q-9 42 2 86q7 45 24 52q-36 28 -62 34q-56 13 -77 -33q-24 -42 -3 -101q9 -25 33 -52q53 -53 142 -53q85 0 131 29q49 35 37 103q-9 51 -53 93q-41 34 -89 52q-47 14 -78 14z" />
    <glyph glyph-name="six" unicode="6" horiz-adv-x="412" 
d="M161 250q3 60 24 127q24 63 57 84q9 7 6.5 11t-13.5 2q-116 -8 -169 -88q-47 -72 -33 -167q13 -92 68 -162q61 -74 135 -74q102 0 135 67q26 56 -8 131q-34 72 -90 99q-62 29 -112 -30zM232 2q-36 0 -56 69q-21 71 -15 154q25 35 50 9q19 -21 36 -82q12 -54 9 -101
q-3 -49 -24 -49z" />
    <glyph glyph-name="seven" unicode="7" horiz-adv-x="375" 
d="M134 179q4 7 25 1l44 -11q-6 -8 -23 -29t-24 -30t-15.5 -23.5t-12.5 -26.5q-16 -52 60 -96q-13 19 4 80q7 21 52 119q36 -2 55 19q22 26 21 84q-9 -23 -38 -25q41 88 53 130q18 65 1 93q-4 -5 -28 -2q-5 1 -15 2t-19.5 2t-18.5 3q-94 16 -133 16q-72 0 -88 -35
q-19 -47 52 -146q-23 53 24 65q25 4 112 0q72 -5 94 15q-10 -35 -20 -60q-15 -38 -40 -81q-9 1 -27 4.5t-22 4.5q-28 7 -44 4q-46 -5 -29 -77z" />
    <glyph glyph-name="eight" unicode="8" horiz-adv-x="417" 
d="M151 472q-57 -12 -88 -41.5t-33 -68.5q-1 -39 24.5 -78.5t74.5 -71.5q-43 -4 -65 -22t-24 -45q-8 -51 46 -102q60 -55 132 -55q107 0 148 47q38 44 8 107q-32 65 -123 118q72 23 86 85q15 63 -32 104q-54 47 -154 23zM170 460q31 3 51 -35q12 -29 16 -79q2 -44 -8 -73
l-3 1q-3 1 -4 2q-67 33 -90 79q-24 37 -10 71q11 31 48 34zM252 17q-42 -4 -71 28q-26 28 -33 75q-5 46 11 76q99 -56 123 -117q9 -25 0 -42t-30 -20z" />
    <glyph glyph-name="nine" unicode="9" horiz-adv-x="393" 
d="M231 214q-17 -99 -78 -217q-4 -8 0.5 -11.5t12.5 1.5q142 88 185 216q33 113 -17 199q-24 40 -64.5 63t-89.5 23q-101 0 -135 -76q-30 -61 -3 -148q29 -84 81 -106q60 -25 108 56zM184 470q33 0 49 -59q14 -51 7 -131q-5 -30 -18 -49t-26 -19t-22 19q-9 16 -17 48
q-15 73 -10 124q7 67 37 67z" />
    <glyph glyph-name="colon" unicode=":" horiz-adv-x="211" 
d="M30 331q0 -5 1.5 -16.5t1.5 -16.5q3 -49 44 -67q23 -10 68 -4q1 3 3.5 13.5t3.5 16.5q4 35 -6 64q-12 37 -48 43q-40 9 -68 -33zM58 106q0 -5 2 -16.5t2 -18.5q2 -47 44 -66q22 -11 66 -3q1 2 9 29q2 37 -6 65q-14 37 -48 43q-42 9 -69 -33z" />
    <glyph glyph-name="semicolon" unicode=";" horiz-adv-x="212" 
d="M30 331l3 -33q5 -49 45 -67q22 -10 66 -4q6 16 9 30q4 32 -6 64q-12 36 -48 43q-41 9 -69 -33zM59 106q3 -39 10 -58q14 -39 58 -47q-3 -13 -3 -14q-2 -15 -15 -22q29 -18 47 4q17 15 26 55q2 46 -6 72q-12 36 -48 43q-42 9 -69 -33z" />
    <glyph glyph-name="less" unicode="&#x3c;" horiz-adv-x="269" 
d="M239 86q-34 20 -80 50q-29 19 -63 47q-32 28 -45 48q39 -36 87 -38q46 0 58 29q9 35 -37 88q2 -19 -41 -38q-40 -19 -88 -21q-3 -43 48 -113q49 -66 101 -89q56 -27 60 37z" />
    <glyph glyph-name="equal" unicode="=" horiz-adv-x="272" 
d="M41 250q-12 -14 -11 -24q2 -9 13 -15q19 -13 60 -13q51 -2 108 5q18 27 -12 42q-24 9 -78 9q-16 0 -44 -2q-26 -2 -36 -2zM65 183q-13 -14 -11 -24q2 -11 12 -15q19 -13 61 -13q41 -3 108 5q18 28 -12 41q-24 9 -79 9q-15 0 -43 -2q-7 0 -19 -0.5t-17 -0.5z" />
    <glyph glyph-name="greater" unicode="&#x3e;" horiz-adv-x="270" 
d="M30 263q9 -6 37.5 -23.5t43.5 -27.5q82 -55 107 -94q-42 37 -85 37q-47 2 -58 -29q-14 -33 36 -87q-3 17 41 38q44 20 88 20q1 43 -50 114q-21 29 -48.5 54t-50.5 36q-55 24 -61 -38z" />
    <glyph glyph-name="question" unicode="?" horiz-adv-x="429" 
d="M196 184q-1 -9 3 -16q7 -19 16 -12q4 1 7 15q1 8 3.5 15.5t6.5 15t7 13t9.5 13t9.5 11t11.5 12t11 10.5t12.5 11.5t12 10.5q75 61 91 121q16 62 -52 110q-67 45 -150 45q-94 0 -139 -52q-35 -43 -21 -103q13 -57 57 -78q48 -24 98 24q-9 1 -19 16q-10 18 -17 37
q-16 49 -8 92q9 48 53 45q37 -3 52 -19t14 -45q-1 -34 -37 -136q-33 -107 -31 -156zM151 83q0 -5 1.5 -16.5t1.5 -17.5q5 -48 44 -66q25 -11 67 -4q7 22 8 29q5 29 -6 65q-13 36 -48 44q-40 7 -68 -34z" />
    <glyph glyph-name="at" unicode="@" horiz-adv-x="536" 
d="M503 211q12 -65 -17 -116q-32 -52 -90 -52h-1q-25 0 -42 21q-12 12 -23 43q-10 30 -14 66q-4 0 -2 -9q3 -39 2 -56q0 -41 -16 -56q-9 -9 -29 -9q-60 0 -97 55q-37 50 -35 114q0 65 41 93q47 32 131 -7q24 47 91 -3q-2 -13 3 -56q6 -50 15 -88q15 -50 29 -63q26 14 28 80
t-40 122q-49 65 -147 76q-120 14 -168 -56q-40 -62 -13 -155q24 -90 90 -135q72 -50 143 0q6 -14 1.5 -37.5t-18.5 -41.5q-40 -46 -110 -24q-85 26 -136 106q-49 77 -49 165q2 92 58 147q63 62 180 56q102 -4 168 -60q56 -50 67 -120zM294 250q0 20 8 33q-35 0 -48 -52
q-8 -50 5 -99q4 -18 12 -37q7 -16 12 -16q9 0 10 12q4 18 1 72q-5 47 0 87z" />
    <glyph glyph-name="A" unicode="A" horiz-adv-x="545" 
d="M536 112q-49 -53 -89 -1q-38 49 -51 145q-17 93 -9 174q10 83 41 83q-96 52 -150 15q-43 -31 -60 -124q-8 -43 -15 -174l-12 4q-84 25 -133 -5q-44 -25 -47 -85q-5 -52 27 -98q33 -48 89 -48q44 0 67 63q17 48 24 140q41 -39 46 -108q9 -70 -18 -87q24 -2 48 19
q25 19 36 51q41 -80 91 -77q57 5 115 113zM220 224q3 39 3 75q3 83 12 113q5 16 14 16q12 -135 41 -244q-25 21 -70 40zM158 66q-11 0 -20 13.5t-12 33.5q-9 41 6 82q16 39 56 26l15 -8q-5 -75 -13 -104q-8 -43 -32 -43z" />
    <glyph glyph-name="B" unicode="B" horiz-adv-x="548" 
d="M298 464q-51 26 -80 21q-56 -7 -56 -88q0 -71 22 -174q22 -114 24 -148q1 -25 -11 -30q26 -27 64 -33q31 -5 46 8q27 20 22 91q-3 44 -25 148q47 -13 76 -79q27 -59 20 -119q-10 -62 -55 -68q-94 -8 -143 34q-42 36 -45 96q-4 51 14 84q-72 48 -114 22q-39 -26 -24 -88
q16 -67 82 -113q83 -57 205 -57q137 0 191 66q49 58 14 132q-38 74 -128 96q80 21 88 90q5 70 -62 120q-79 59 -214 50q-114 -7 -166 -64q-42 -45 -30 -111q10 -59 55 -84q45 -26 89 19q-28 28 -39 84q-11 61 17 98q34 46 112 38q52 -6 83 -61q30 -53 22 -106
q-5 -56 -51 -67q-20 97 -23 131q-5 58 20 62z" />
    <glyph glyph-name="C" unicode="C" horiz-adv-x="430" 
d="M257 225q34 -10 57 -4q37 14 42 67q4 42 -9 111q-14 67 -16 91q0 15 5 16q-50 19 -69 12q-37 -12 -23 -97l12 -84q-6 4 -11 22q-1 4 -3.5 17t-5.5 22q-9 50 -26 90q-25 46 -65 46q-84 0 -120 -85q-29 -79 -4 -187q24 -108 92 -187q73 -85 166 -85q79 0 121 57
q17 23 19.5 46.5t-10.5 37.5q2 -6 0 -24q-7 -29 -32 -54q-26 -28 -64 -29q-49 -2 -82 45q-33 49 -52 132q-20 83 -23 160q-4 75 7 114q6 18 15 18q8 0 16 -14q14 -30 27 -92l12 -59q2 -9 6 -28t7 -29q4 -25 11 -46z" />
    <glyph glyph-name="D" unicode="D" horiz-adv-x="562" 
d="M208 525q-114 -7 -166 -64q-41 -45 -30 -111q12 -60 56 -84q46 -26 89 19q-28 27 -38 80q-11 62 15 97q31 46 110 46q63 0 109 -80q38 -70 52 -178q11 -105 -11 -178q-20 -81 -76 -81q-85 0 -130 45q-37 37 -35 91q0 51 19 80q-72 49 -115 22q-39 -26 -24 -88
q16 -66 82 -113q83 -57 205 -57q129 0 191 90q56 82 37 197q-20 115 -105 191q-96 84 -235 76zM297 464q-51 25 -79 21q-56 -7 -56 -88q0 -67 21 -174q23 -109 24 -148q0 -25 -11 -30q28 -28 65 -33q29 -4 47 8q20 17 20 51q3 70 -24 187q-3 14 -20 98q-17 103 13 108z" />
    <glyph glyph-name="E" unicode="E" horiz-adv-x="589" 
d="M186 285q-45 22 -54 79q-10 53 22 97q34 47 102 47q34 0 116 -46q79 -45 122 -44q63 5 85 104q-9 -12 -41 -14q-42 -3 -174 10q-71 8 -108 10q-131 9 -196 -40q-56 -42 -49 -107q6 -61 57 -94q53 -35 118 -2zM323 464q-48 24 -80 24q-56 -4 -58 -74q-2 -68 17 -150
q19 -102 18 -127q-3 -21 -14 -22q65 -14 92 25q18 26 20 99q4 -1 23 -12q1 -1 29 -16q40 -19 62 -7q30 15 31 92q-6 -6 -38 2q-35 12 -59 8q-35 -5 -49 -42q-1 13 -3.5 36t-3.5 34q-1 8 -3.5 30.5t-4.5 33.5q-2 63 21 66zM122 57q3 15 27 12q34 -7 132 -55q41 -20 83 -37
q99 -43 144 -27q58 17 43 132q-12 -34 -79 -26q-35 4 -145 31q-102 24 -140 23q-64 -3 -65 -53z" />
    <glyph glyph-name="F" unicode="F" horiz-adv-x="616" 
d="M187 285q-45 22 -55 79q-9 51 22 97q35 47 102 47q19 0 45 -10q27 -11 109 -53q43 -20 59 -26q65 -24 97 -7q41 24 40 110q-9 -12 -46 -14q-49 -3 -192 10q-80 8 -112 10q-130 10 -197 -40q-55 -42 -48 -107q5 -61 56 -94q55 -35 120 -2zM324 464q-52 25 -80 21
q-55 -9 -53 -96q0 -69 23 -182q25 -113 27 -154q2 -27 -11 -30q27 -28 64 -34q32 -5 47 8q27 18 20 91q-4 45 -26 150q17 -8 29 -17q9 -8 34 -22q40 -22 65 -11q32 16 39 96q-5 -8 -18 -10q-16 -1 -62 9q-2 0 -15 2.5t-20 3.5q-41 5 -61 -11q-19 88 -21 127q-6 55 19 59z
" />
    <glyph glyph-name="G" unicode="G" horiz-adv-x="385" 
d="M357 297q-76 17 -101 -16q-21 -26 -19 -93q-13 0 -25 4q-34 9 -53 62q-18 48 -16 106q0 59 17 101q20 45 49 45q24 0 36 -34q10 -29 5 -65q-5 -40 -20 -48q95 -32 132 8q15 17 11.5 42.5t-24.5 50.5q-54 59 -155 66q-99 9 -148 -47q-45 -50 -34 -125q4 -70 61 -130
q58 -60 141 -60q18 0 26 1q1 -16 10 -79q7 -38 7 -74q-2 -79 -53 -86q-14 -2 -25.5 10.5t-20.5 36.5q-17 44 -10 97q5 58 38 67q-45 20 -75 20q-61 0 -75 -47t13 -103q28 -58 89 -84q31 -14 76.5 -11.5t79.5 18.5q63 28 76 99q11 61 -3 135q-1 7 -4.5 28.5t-4.5 31.5
q-12 62 -1 73z" />
    <glyph glyph-name="H" unicode="H" horiz-adv-x="520" 
d="M356 533q-63 0 -81 -89q-18 -79 1 -195q-32 1 -68 10q-4 59 0 142q5 71 28 114q-121 54 -134 -18q-10 -59 46 -193l12 -30q-77 25 -119 -14q-33 -31 -31 -97q3 -62 41 -112q38 -53 91 -53q52 0 64 75q9 51 2 169q45 -16 73 -25q17 -88 50 -153q35 -66 68 -66q30 0 48 17
q39 29 63 88q-15 -20 -31 -20q-15 0 -28 15q-25 26 -45 100q30 4 39 30q8 27 -15 81q-1 -19 -38 -39q-12 95 -2 159q12 75 49 78q-25 11 -30 13q-37 13 -53 13zM164 75q-23 0 -39 53q-14 58 -6 93q9 48 47 37q27 -80 25 -129q2 -54 -27 -54z" />
    <glyph glyph-name="I" unicode="I" horiz-adv-x="316" 
d="M164 15q-16 0 -25 37q-5 36 0 71q5 36 18 41q-90 29 -118 -15q-12 -19 -9 -45.5t20 -50.5q44 -58 119 -58q88 0 120 78q24 57 13 172q-3 33 -29 180q-10 42 -10 63q-3 28 5 32q-107 28 -178 -17q-62 -37 -78 -114q-12 -75 30 -124q49 -55 139 -47q17 -92 17 -141
q3 -62 -34 -62zM179 232q-41 6 -62 73q-17 66 1 127q20 69 76 82q-39 -24 -37 -110q0 -64 22 -172z" />
    <glyph glyph-name="J" unicode="J" horiz-adv-x="316" 
d="M298 548q3 -16 -10 -20q-21 -7 -95 7q-18 3 -63 7q-76 5 -102 -25q-37 -41 3 -144q0 27 25 39q34 20 133 33q43 7 68 16q66 24 41 87zM267 445q-42 0 -66 -24q-41 -41 -36 -136q4 -62 24 -181q9 -51 10 -79q5 -79 -34 -83q-9 -2 -15 14q-15 35 -15 92q-4 56 6 96
q6 19 13 20q-49 22 -74 12q-56 -18 -49 -100q8 -82 68 -128q31 -23 75.5 -21.5t74.5 23.5q54 40 56 136q3 75 -20 183q-12 48 -17 82q-17 85 -1 94z" />
    <glyph glyph-name="K" unicode="K" horiz-adv-x="487" 
d="M10 520q11 -3 17 -30q5 -32 9 -163q0 -45 5 -103q9 -121 40 -178q38 -70 118 -43q-11 0 -16 24q-9 47 -9 148q0 2 -1 40.5t-2 58.5q20 -11 37 -35q33 -49 66 -123q41 -83 70 -106q38 -35 82 16q24 29 51 88q-18 -21 -26 -23q-22 -8 -46 23q-5 6 -51 74q-18 27 -30 42
q-42 46 -80 57q71 25 106 88q35 62 3 110q-33 52 -138 46q32 -46 14 -127q-18 -76 -60 -108q-5 86 -19 134q-16 62 -47 87q-38 28 -93 3z" />
    <glyph glyph-name="L" unicode="L" horiz-adv-x="463" 
d="M218 517q-51 24 -81 21q-54 -8 -60 -88q-1 -59 14 -171q19 -112 18 -140q-3 -23 -15 -24q42 -8 65 4q42 24 48 101q5 64 -5 153q-5 63 -5 70q-5 69 21 74zM10 57q4 15 29 12q28 -6 134 -55q46 -22 85 -37q100 -43 149 -27q60 18 42 132q-9 -34 -79 -26q-33 3 -149 31
q-106 24 -144 23q-66 -3 -67 -53z" />
    <glyph glyph-name="M" unicode="M" horiz-adv-x="538" 
d="M14 520q7 -3 14 -13q8 -18 11 -30q6 -28 3 -64q-6 -67 -22 -154q-4 -28 -8 -78q-7 -89 16 -131q29 -54 108 -54q-18 15 -30 41q-23 52 -32 127q-7 81 -8 151q-2 48 -4 69q38 -158 47 -187q35 -111 78 -159q55 -62 129 -35q-10 0 -19 19q-7 13 -18 41q-36 125 5 283
q0 -48 14 -120q25 -129 71 -195q24 -33 48 -33q30 0 48 17q41 31 63 88q-35 -43 -71 11q-29 46 -46 147q-17 98 -6 170q8 83 48 86q-5 3 -15 7t-15 7q-37 13 -53 13q-66 0 -83 -106q-22 -69 -34 -140q-15 -78 -6 -142q-7 18 -13 47q-14 51 -16 61q-29 93 -46 131
q-29 71 -65 103q-42 39 -93 22z" />
    <glyph glyph-name="N" unicode="N" horiz-adv-x="366" 
d="M15 520q9 -4 16 -15q11 -22 17 -36q14 -41 18 -90q11 -98 -2 -195q-12 -91 -33 -143q-11 -23 -21 -26q45 -42 70 -44q23 -1 34 24t9 73q-3 85 -25 208q-3 20 -8.5 52.5t-6.5 42.5q45 -134 65 -181q46 -108 88 -150q54 -58 120 -37q-8 0 -16 6q-11 16 -13 48q-2 70 13 159
l9 91q5 109 -19 160q-33 71 -125 71q39 -34 61 -133q11 -55 24 -189q9 -121 20 -162q-17 38 -33 86l-35 107q-51 145 -91 204q-60 91 -136 69z" />
    <glyph glyph-name="O" unicode="O" horiz-adv-x="444" 
d="M184 528q-103 0 -149 -83q-39 -76 -18 -187q19 -107 83 -185q70 -85 160 -85q106 0 149 85q40 73 18 185q-23 110 -85 187q-71 83 -158 83zM249 12q-15 1 -29 25q-25 43 -48 141q-18 94 -20 182q-3 89 17 132q11 19 27.5 16.5t30.5 -25.5q15 -30 25 -60q26 -81 37 -173
q11 -98 3 -169q-4 -35 -15 -53.5t-28 -15.5z" />
    <glyph glyph-name="P" unicode="P" horiz-adv-x="500" 
d="M290 469q-51 26 -80 21q-55 -10 -55 -97q-1 -64 23 -183q23 -115 23 -155q0 -28 -10 -31q27 -28 65 -34q28 -3 45 8q24 17 21 76q-1 52 -16 128q102 -20 150 30q47 45 30 120q-18 77 -88 127q-79 54 -198 47q-116 -10 -162 -79q-40 -57 -23 -136q13 -73 59 -102
q46 -32 86 23q-30 33 -43 104q-13 79 11 124q30 58 112 48q51 -7 89 -79q33 -67 28 -137q-3 -73 -53 -79l-18 91q-11 51 -13 80q-10 80 17 85z" />
    <glyph glyph-name="Q" unicode="Q" horiz-adv-x="520" 
d="M188 528q-104 0 -150 -70q-41 -64 -23 -155q20 -94 79 -154q71 -71 159 -71q106 0 150 71q41 63 23 154q-20 92 -81 155q-70 70 -157 70zM242 102q-29 3 -53 71q-23 60 -31 142q-10 85 0 137q12 62 46 55q27 -3 52 -70q22 -60 33 -143q9 -88 -2 -137q-6 -29 -17 -43.5
t-28 -11.5zM68 17q3 15 27 12q38 -7 135 -55q33 -16 85 -38q101 -41 147 -26q61 18 44 132q-11 -33 -80 -25q-28 3 -149 30q-97 24 -143 23q-66 -2 -66 -53z" />
    <glyph glyph-name="R" unicode="R" horiz-adv-x="608" 
d="M295 469q-51 25 -79 21q-56 -10 -56 -97q-1 -60 22 -183q24 -111 24 -155q2 -28 -10 -31q26 -28 64 -34q30 -3 47 8q26 19 21 85q-4 54 -21 139q20 -6 36 -26q25 -31 63 -108q16 -33 31 -54q35 -56 69 -46q20 7 41 35q24 33 51 92q-19 -26 -33 -31q-25 -6 -52 37
q-20 28 -33 42q-47 52 -104 63q48 5 77.5 30t36.5 62q7 35 -8 74t-49 70q-81 71 -224 64q-115 -7 -165 -64q-44 -47 -32 -111q13 -60 55 -84q47 -25 91 19q-30 28 -39 83q-12 60 16 98q35 46 112 38q57 -4 95 -72q31 -64 23 -125q-4 -30 -20 -50t-41 -22l-15 84
q-9 36 -11 73q-8 72 17 76z" />
    <glyph glyph-name="S" unicode="S" horiz-adv-x="386" 
d="M224 325q45 -10 73.5 2.5t36.5 41.5q9 26 -1.5 58.5t-37.5 57.5q-64 62 -172 38q-59 -13 -87.5 -49t-25.5 -83q2 -47 34.5 -91.5t89.5 -75.5q60 -31 90 -66q63 -69 48 -116q-8 -20 -31.5 -24t-41.5 9q-34 22 -55 81q-17 49 -13 85q-1 15 7 15q-106 32 -122 -26
q-13 -54 48 -122q65 -72 143 -72q112 0 151 59q39 56 -1 130q-44 79 -145 130q-38 19 -59 40q-45 39 -55 87q-9 43 15 64q13 11 30.5 12.5t34.5 -11.5q30 -25 44 -78q11 -47 8 -81q-2 -14 -6 -15z" />
    <glyph glyph-name="T" unicode="T" horiz-adv-x="473" 
d="M462 507q-2 -18 -24 -19q-33 -2 -148 24q-40 10 -92 19q-112 16 -154 -10q-58 -38 -18 -157q3 24 23 34q38 21 126 21q55 0 82 1q106 0 149 13q63 19 56 74zM218 3q56 -26 87 -24q61 4 63 84q1 61 -22 168q-8 30 -16 84q-17 87 3 97q-38 0 -58 -14q-40 -30 -45 -108
q-4 -68 4 -150q4 -46 5 -66q0 -66 -21 -71z" />
    <glyph glyph-name="U" unicode="U" horiz-adv-x="478" 
d="M468 106q-24 -21 -40 -19t-23 17q-9 15 -12 47q-3 22 -10 143q0 35 -5 78q-12 88 -43 125q-40 47 -114 22q9 -10 15 -40q9 -46 9 -141q-1 -31 -14 -160q-9 -79 -23 -114q-4 -18 -10 -18q-10 0 -13 25q-5 35 -9 155q-4 65 -7 101q-12 117 -45 171q-39 68 -114 30
q8 -1 13 -25q5 -28 11 -148l6 -98q11 -117 37 -183q32 -83 94 -83q40 0 61 73q13 47 22 137q2 11 4 29t3 23q3 21 7 21q5 -129 28 -198q25 -85 69 -85q21 0 42 18q17 14 34 40q18 29 27 57z" />
    <glyph glyph-name="V" unicode="V" horiz-adv-x="405" 
d="M224 -11q54 0 97 65q39 57 59 150q20 94 13 171q-8 88 -40 127q-38 45 -100 17q4 -7 6 -34q3 -53 3 -144q-2 -102 -7 -177q-6 -88 -15 -127q-6 -20 -10 -20q-7 0 -13 27q-5 27 -19 160q-8 70 -14 105q-21 123 -55 178q-45 71 -119 34q8 0 16 -24q12 -56 25 -148
q11 -68 17 -98q19 -110 54 -181q41 -81 102 -81z" />
    <glyph glyph-name="W" unicode="W" horiz-adv-x="494" 
d="M478 371q13 -84 -1 -169q-15 -92 -48 -149q-41 -64 -95 -64q-36 0 -63 41q-21 30 -42 100q3 -62 -5 -96q-12 -41 -32 -45q-54 -12 -91 66q-27 60 -45 181q-8 63 -11 100q-13 118 -21 153q-6 25 -14 27q73 37 112 -31q31 -49 45 -168q5 -47 13 -190l4 -64q4 -26 12 -26
t9 25q4 58 -2 149q-10 133 -17 190q-4 39 -9 66l2 -5q0 -1 3 -16q-1 5 -7 47q-5 19 -8 23q72 36 111 -33q29 -55 40 -177q5 -88 5 -104q2 -123 6 -159q3 -26 12 -26q4 0 7 20q6 42 5 126q-2 97 -7 174q-7 99 -13 142q-1 8 -2.5 15t-3 12.5t-1.5 6.5q61 29 101 -16
q38 -41 51 -126zM176 474l-9 42q6 -20 9 -42zM176 474l1 -7q-1 3 -1 7z" />
    <glyph glyph-name="X" unicode="X" horiz-adv-x="429" 
d="M236 2q-7 12 -11 35q-13 45 -21 117q-9 66 -3 101q2 17 9 17q8 0 14 -15q4 -15 18 -97q5 -33 13 -60q20 -71 52 -97q43 -33 112 4q-9 0 -17 19q-6 14 -13 44q-24 94 -36 121q-29 72 -79 95q33 19 51 45q41 62 29 125q-13 68 -74 75q-32 4 -79 -17q6 -11 12 -31
q10 -39 15 -92q5 -51 -3 -77q-1 -13 -11 -13q-6 0 -12 14q-6 17 -17 83q-5 25 -12 50q-16 59 -51 79q-43 25 -112 -10q11 -3 17 -18q5 -11 14 -41.5t13 -43.5q5 -21 18 -51q30 -60 79 -80q-60 -34 -74 -125q-13 -86 29 -138q47 -59 130 -18z" />
    <glyph glyph-name="Y" unicode="Y" horiz-adv-x="363" 
d="M161 -4q87 -44 120 6q27 40 13 123q-10 73 -39 110q70 30 91 118q22 87 -16 141q-42 62 -130 20q5 -7 12 -35q12 -94 13 -112q0 -71 -5 -98q-6 -16 -12 -16q-8 0 -11 16q-5 18 -17 95q-2 22 -10 61q-17 68 -50 95q-40 33 -110 -3q12 -4 17 -22q1 -6 3 -13.5t5 -18
l5 -17.5q19 -91 35 -128q33 -73 92 -88q-6 -24 -6 -40q1 -41 10 -102q1 -4 7 -47q2 -45 -17 -45z" />
    <glyph glyph-name="Z" unicode="Z" horiz-adv-x="391" 
d="M65 351q-9 25 -2 37q16 22 72 19q8 0 25 -0.5t26 -0.5q65 0 83 19q-1 -1 -17 -27q-14 -16 -34 -43q-45 -57 -86 -121q-48 -77 -64 -135q-19 -71 19 -109q5 11 22 13q25 2 92 -5q26 -3 56 -1q64 2 96 34q38 45 24 138q0 -45 -70 -61q-40 -9 -130 -7q-36 0 -50 -1
q-21 -1 -22 -7q-3 18 5 40q19 48 64 110q5 8 20.5 28.5t23.5 32.5q53 72 78 120q33 57 21 87q-4 -5 -28 -2q-44 6 -53 8q-96 14 -133 14q-73 0 -89 -34q-19 -46 51 -146z" />
    <glyph glyph-name="bracketleft" unicode="[" horiz-adv-x="258" 
d="M200 475q-58 7 -97 -1q-70 -16 -72 -79q-4 -48 14 -140q12 -62 12 -152q-1 -36 0 -69q2 -78 32 -109q38 -43 139 -43q-48 8 -56 54q-4 19 4 106q12 81 6 136q-4 49 -28 143q-22 80 -16 111q6 44 62 43z" />
    <glyph glyph-name="backslash" unicode="\" horiz-adv-x="498" 
d="M468 7q-10 -3 -31 17q-37 35 -115 136q-66 85 -71 92q-98 124 -136 162q-66 68 -85 41q4 2 28 -24q32 -36 123 -149q20 -26 78 -97q102 -123 144 -161q62 -59 65 -17z" />
    <glyph glyph-name="bracketright" unicode="]" horiz-adv-x="259" 
d="M59 -90q61 -7 98 2q67 16 72 78q1 54 -15 141q-15 80 -11 151v69q-3 78 -32 110q-40 43 -141 43q49 -8 57 -53q5 -27 -5 -107q-11 -91 -6 -137q7 -59 30 -143q20 -78 15 -110q-6 -44 -62 -44z" />
    <glyph glyph-name="asciicircum" unicode="^" horiz-adv-x="290" 
d="M111 291q0 32 1 47q6 52 32 70q-16 -34 2 -72q16 -37 48 -45q36 -11 66 33q-37 0 -106 104q-48 7 -90 -24q-40 -32 -33 -65q9 -38 80 -48z" />
    <glyph glyph-name="underscore" unicode="_" horiz-adv-x="354" 
d="M33 -12q-14 -49 30 -73q32 -20 101 -24q70 -3 159 10q5 31 -11 49q-30 36 -105 41q-63 5 -131 0q-29 -1 -43 -3z" />
    <glyph glyph-name="a" unicode="a" horiz-adv-x="422" 
d="M332 345q-46 35 -79 33q-27 0 -44 -30q-53 29 -90 29q-36 0 -63 -19q-46 -40 -46 -127q0 -89 39 -155q43 -77 105 -77q39 0 50 55q6 32 2 100q-2 29 -1 38q0 15 4 15q5 -48 20 -104q13 -44 36 -72q24 -32 59 -32q23 0 41 18q32 36 47 97q-19 -17 -35 -19q-15 -1 -27 12
q-23 24 -31 81q-9 60 -5 101q7 51 18 56zM173 50q-9 0 -18 20q-12 23 -16 54q-16 76 -4 140q14 74 65 74q-8 -16 -12 -45q-2 -28 0 -124q3 -74 -2 -103q-4 -16 -13 -16z" />
    <glyph glyph-name="b" unicode="b" horiz-adv-x="409" 
d="M397 237q-13 -18 -44 -6q-15 43 -43 77q-44 47 -76 52q-18 3 -27.5 -6t-8.5 -30q2 -29 18 -62q19 -38 42 -61q4 -13 10 -56q3 -73 -7 -107q-5 -20 -17 -20q-34 0 -46 65q-12 61 -14 152q-9 125 -15 175q-16 97 -48 135q-39 51 -111 32q11 -1 16 -18q9 -32 12 -110
q0 -6 2 -34t4 -44q11 -118 23 -171q24 -94 61 -141q50 -60 126 -60q51 0 82 41q26 38 29 97q17 3 28 27q9 22 4 73zM301 299q8 -11 17 -24q9 -14 15 -32q-15 9 -33 25q-33 30 -38 51q-5 16 15 2q15 -11 24 -22z" />
    <glyph glyph-name="c" unicode="c" horiz-adv-x="364" 
d="M141 377q-45 0 -76.5 -27.5t-44.5 -71.5q-14 -42 -8 -92.5t30 -92.5q55 -99 176 -99q81 0 118 50q15 19 17.5 40.5t-9.5 33.5q3 -14 -4 -33q-21 -46 -69 -58q-26 -8 -53 3t-42 37q-30 49 -35 137q-7 69 5 125q6 21 11 21q7 0 10 -11q6 -15 8 -28q4 -24 6 -81q2 -55 1 -68
q78 -6 98 50q17 50 -24 106q-41 59 -115 59z" />
    <glyph glyph-name="d" unicode="d" horiz-adv-x="442" 
d="M162 577q8 -5 13 -22q10 -48 14 -117q6 -75 6 -82q-90 42 -141 -4q-46 -41 -44 -128t37 -152q41 -73 103 -73q36 0 50 58q8 38 6 109q-1 17 -1 42q-1 16 3 16q12 -104 36 -160q28 -68 74 -68q21 0 51 27q31 35 63 93q-30 -28 -48 -33q-19 -2 -30 14t-16 48
q-10 58 -13 157q-4 60 -8 89q-12 103 -41 147q-41 59 -114 39zM169 50q-8 0 -17 20q-8 18 -15 51q-14 71 -4 134q12 72 60 79q-2 -3 -4 -30q1 -15 -1 -54q1 -22 1 -67q-2 -80 -8 -113q-3 -20 -12 -20z" />
    <glyph glyph-name="e" unicode="e" horiz-adv-x="377" 
d="M133 377q-45 0 -75 -27.5t-42 -71.5q-24 -98 31 -185q60 -99 181 -99q78 0 121 50q16 20 17.5 42t-10.5 35q10 -32 -30 -71q-47 -38 -102 -19q-35 13 -60 70q105 9 131 81q22 65 -26 128q-51 67 -136 67zM147 358q6 0 15 -13q7 -13 13 -37q14 -52 10 -101q-3 -61 -32 -83
q-14 43 -19 78q-15 79 -3 134q3 22 16 22z" />
    <glyph glyph-name="f" unicode="f" horiz-adv-x="307" 
d="M254 429q-7 -4 -35 2q-9 1 -28.5 3.5t-29.5 3.5q-14 73 -13 105q-2 40 21 40q18 0 25 -29q5 -30 -1 -56q-5 -32 -18 -34q83 -26 112 14q27 32 -8 78q-38 47 -114 47q-63 0 -94 -45q-26 -43 -24 -118q-50 -9 -33 -57q11 5 36 3q8 -80 40 -212q34 -150 39 -187
q10 -83 -16 -94q86 -15 110 61q18 60 -1 189q-13 78 -46 226q78 -4 78 60z" />
    <glyph glyph-name="g" unicode="g" horiz-adv-x="350" 
d="M215 348q-97 52 -154 16q-48 -32 -51 -115q-3 -81 35 -144q39 -70 103 -70q38 0 52 44q9 28 9 82q0 6 0.5 16.5t1.5 15.5q0 14 4 14q0 -13 4 -43q6 -31 7 -48q9 -59 0 -87q-13 -39 -58 -39q-43 0 -66 16q-20 14 -18 26q-57 -44 -19 -95q31 -45 110 -59q78 -16 126 28
q55 50 33 170q-2 9 -22 123q-16 100 -6 128q4 14 16 14q-32 27 -64 29q-31 0 -43 -22zM166 84q-9 0 -17 19q-10 28 -13 47q-13 70 1 122q19 66 70 66q-9 -16 -12 -41q-7 -48 -7 -111q0 -66 -8 -88q-3 -14 -14 -14z" />
    <glyph glyph-name="h" unicode="h" horiz-adv-x="447" 
d="M10 576q10 -1 16 -21q10 -36 13 -124l3 -86q3 -102 16 -181q19 -97 51 -137q39 -51 108 -28q-5 0 -8 22q-11 51 -12 124q-3 78 8 125q6 21 18 21q5 0 9 -12q6 -32 7 -80q0 -25 3 -54q7 -63 22 -100q21 -46 62 -46q30 0 66 41q38 41 45 74q-27 -21 -42 -20q-16 0 -25 15
q-13 19 -22 95q-11 90 -20 116q-17 57 -57 57q-33 0 -49 -19q-34 -34 -39 -105q-4 -56 -4 -103q1 -17 -3 -18t-6 24q1 14 1 58q0 119 -5 169q-11 106 -41 155q-40 61 -115 38z" />
    <glyph glyph-name="i" unicode="i" horiz-adv-x="271" 
d="M10 506q19 0 22 -36q4 -22 5 -34q8 -41 42 -53q18 -7 55 -1q7 20 11 35q9 45 1 77q-5 18 -19.5 32.5t-32.5 18.5q-44 11 -84 -39zM36 288q11 7 16.5 0.5t8.5 -27.5q3 -36 3 -46q0 -27 3 -57q4 -72 20 -112q18 -52 63 -52q25 0 46 18q20 17 35 38q20 31 30 57
q-30 -32 -43 -37q-16 -4 -22 7q-9 14 -9 92q0 84 -13 123q-17 61 -75 61q-21 0 -30 -9q-23 -17 -33 -56z" />
    <glyph glyph-name="j" unicode="j" horiz-adv-x="279" 
d="M89 506q19 0 22 -36q0 -1 2 -14t4 -20q7 -40 41 -53q20 -7 55 -1q5 11 11 35q9 38 1 77q-5 19 -19 33t-33 18q-44 11 -84 -39zM222 345q-49 11 -71 -5q-43 -29 -35 -129q8 -77 35 -196q13 -82 13 -89q12 -87 -31 -87q-15 0 -22 30q-4 29 5 54q9 32 20 33q-81 28 -114 -8
q-13 -16 -12 -38t15 -41q37 -50 113 -50q49 0 76 21q53 42 55 137q0 82 -22 187q-26 116 -28 148q-4 24 3 33z" />
    <glyph glyph-name="k" unicode="k" horiz-adv-x="460" 
d="M10 576q8 -3 14 -22q11 -39 16 -126q1 -12 4 -41.5t4 -45.5q12 -125 25 -180q16 -94 53 -136q39 -49 105 -26q-6 0 -9 12q-4 9 -8 32q-6 32 -8 96q24 -39 38 -56q36 -47 70 -72q44 -32 76 -16q39 18 60 108q-16 -44 -87 -17q-40 14 -103 54q77 8 107 71q26 52 2 109
q-29 57 -83 57q-29 0 -49 -17q-31 -27 -40 -92q-5 -48 -3 -92q0 -12 -4 -15q-2 -1 -4 4q-2 6 -2 19q-3 18 -5 60q-2 103 -12 168q-14 101 -45 145q-41 54 -112 19zM237 291q10 0 16 -19q5 -15 5 -43q-8 -62 -52 -72q0 59 7 93q8 41 24 41z" />
    <glyph glyph-name="l" unicode="l" horiz-adv-x="291" 
d="M10 577q12 -6 18 -33q7 -34 13 -164q2 -68 5 -105q7 -129 29 -192q31 -87 92 -87q22 0 49 27q30 28 65 93q-30 -28 -48 -33q-19 -2 -30.5 13.5t-16.5 48.5q-8 55 -13 157q0 2 -6 89q-14 100 -43 147q-40 60 -114 39z" />
    <glyph glyph-name="m" unicode="m" horiz-adv-x="576" 
d="M401 377q-53 0 -70 -64q-11 -32 -11 -117q1 -10 1 -46q1 -18 -3 -18t-6 18l-3 46q-2 74 -12 117q-17 64 -51 64q-53 0 -72 -65q-14 -45 -12 -117q-2 -18 -2 -45q0 -16 -3 -17q-2 -1 -4 3q-2 5 -2 15v47q-3 104 -5 116q-12 63 -47 63q-23 0 -39 -10q-34 -21 -50 -53
q12 9 17 -3q8 -12 15 -90q3 -40 7 -67q11 -81 41 -122q38 -52 111 -33q-6 1 -10 23q-11 47 -13 125q-4 73 6 123q4 21 12 21q7 0 10 -14q0 -4 0.5 -17t0.5 -22q7 -104 8 -114q10 -72 39 -104q38 -41 112 -26q-5 1 -10 24q-12 47 -17 127q-8 80 0 125q3 21 13 21q6 0 9 -12
q7 -30 7 -80q0 -16 4 -54q5 -63 23 -100q18 -46 61 -46q29 0 66 41q37 42 44 74q-26 -21 -42 -20q-14 0 -25 15q-11 17 -21 95q-16 106 -19 116q-17 57 -58 57z" />
    <glyph glyph-name="n" unicode="n" horiz-adv-x="440" 
d="M10 314q11 8 17 -3q9 -16 16 -90q1 -31 6 -67q11 -82 42 -122q36 -52 110 -33q-5 0 -7 22q-7 47 -5 124q2 86 12 125q5 21 13 21q10 0 13 -21q0 -4 1.5 -23t2.5 -31q8 -111 16 -141q21 -76 72 -76q28 0 67 41q37 42 44 74q-25 -22 -41 -20q-17 0 -26 15q-14 23 -21 95
q-11 90 -20 116q-19 57 -58 57q-31 0 -47 -19q-31 -30 -41 -104q-3 -22 -6 -104q-1 -16 -4 -17q-2 -1 -4 3q-1 5 -1 15q-1 7 -1 47q2 75 -7 116q-14 63 -53 63q-24 0 -40 -10q-33 -20 -50 -53z" />
    <glyph glyph-name="o" unicode="o" horiz-adv-x="371" 
d="M222 17q-16 0 -29 23q-14 25 -23 61q-22 73 -24 163q-7 88 16 103q-62 9 -99.5 -13.5t-47.5 -66.5q-22 -90 41 -186q71 -104 173 -104q60 0 90 43q24 39 21 101q29 20 19 96q-13 -17 -41 -6q-20 48 -46 77q-42 47 -76 52q-37 6 -35 -36q0 -61 68 -133q2 -11 4.5 -31.5
t4.5 -31.5q3 -70 -3 -97q-4 -14 -13 -14zM236 298q-13 19 -13 21q-2 8 4 8q5 0 14 -6q13 -11 21 -22q2 -2 18 -24q11 -17 14 -32q-36 24 -58 55z" />
    <glyph glyph-name="p" unicode="p" horiz-adv-x="381" 
d="M10 314q10 7 15 -3q6 -15 10 -33q4 -38 9 -123q6 -104 16 -152q18 -86 46 -120q35 -50 95 -33q-3 0 -4 17q-4 22 -4 45q-4 76 -4 142q77 -84 128 -53q43 25 52 123q8 91 -18 168q-33 85 -86 85t-74 -65q-16 -37 -18 -117q0 -8 -0.5 -23.5t-1.5 -21.5q-1 -11 -3.5 -15.5
t-5 0t-2.5 16.5q0 6 0.5 21.5t0.5 25.5q2 75 -7 116q-14 63 -53 63q-24 0 -40 -10q-37 -22 -51 -53zM216 291q7 0 15 -20q7 -24 11 -52q10 -65 -2 -122q-12 -59 -51 -30q0 12 0.5 26t1.5 31t1 26q1 78 13 122q3 19 11 19z" />
    <glyph glyph-name="q" unicode="q" horiz-adv-x="413" 
d="M216 348q-97 52 -156 16q-48 -34 -50 -115q-3 -81 35 -144q39 -70 103 -70q39 0 50 44q6 22 6 84q2 24 2 32q2 12 9 12q0 -4 -0.5 -15t0.5 -18v-43q2 -72 8 -107q-37 -2 -52 -14q-18 -13 -7 -46q18 8 72 -1q16 -60 49 -91q40 -36 97 -28q-14 27 -29 107q50 9 50 58
q-13 -4 -60 4q-8 67 -9 75q-10 77 -15 143q-5 70 -2 96q0 14 4 14q-30 27 -63 29q-32 0 -42 -22zM167 84q-9 0 -18 19q-9 21 -13 47q-14 67 2 122q16 66 68 66q-10 -22 -11 -41q-5 -27 -7 -111q-2 -68 -7 -88q-5 -14 -14 -14z" />
    <glyph glyph-name="r" unicode="r" horiz-adv-x="405" 
d="M10 314q12 8 17 -3q9 -14 16 -90q2 -36 7 -67q9 -78 41 -122q37 -52 110 -33q-3 0 -5 23q-4 60 -4 131q0 89 11 130q5 23 11 23q9 0 9 -14q0 -22 -1 -37q-8 -59 0 -94q12 -50 63 -50q29 0 67 40q37 41 43 74q-26 -21 -40 -24q-15 -5 -20 4q-13 14 -11 62q-5 72 -9 83
q-12 41 -51 41q-29 0 -48 -19q-34 -40 -39 -111q-8 -58 -6 -111q-1 -19 -6 -18t-4 19v47q4 67 -7 116q-14 63 -54 63q-23 0 -39 -10q-35 -21 -51 -53z" />
    <glyph glyph-name="s" unicode="s" horiz-adv-x="298" 
d="M37 144q-12 -47 -4 -80q7 -30 28 -46q41 -32 106 -14q67 21 101 66q38 55 5 113q-13 24 -49 37q-27 8 -67 8q-34 -1 -84 -11q7 19 47 41q48 22 83 22q44 -2 56 -43q15 85 -34 124q-43 33 -110 18q-65 -15 -94 -64q-31 -55 19 -122q50 10 83 14q5 1 16 2t17 2q33 1 54 -3
q28 -6 11 -27q-8 -12 -30 -26q-47 -32 -92 -40q-55 -11 -62 29z" />
    <glyph glyph-name="t" unicode="t" horiz-adv-x="318" 
d="M248 76q21 6 60 38q-32 -59 -84 -93q-41 -29 -68 -29q-50 0 -75 52q-21 41 -28 121q-7 55 -7 147l-24 5q-11 0 -12 -4q15 40 63 84q46 40 55 67q9 -12 18 -36q9 -26 13 -46q72 -2 80 12q0 -85 -71 -96q2 -13 4 -74q3 -82 16 -118q16 -47 60 -30z" />
    <glyph glyph-name="u" unicode="u" horiz-adv-x="410" 
d="M400 114q-27 -22 -41 -19q-12 3 -19 22q-4 17 -4 49q2 68 -7 130q-8 69 -62 82q-27 7 -76 -9q6 -13 7 -38q8 -59 6 -140q-2 -90 -9 -124q-6 -22 -12 -22q-8 0 -11 19q-5 32 -7 113q0 77 -18 138q-20 67 -70 73q-25 4 -67 -17q9 0 12 -18q6 -26 6 -103q1 -11 2 -33.5
t2 -33.5q9 -87 32 -127q31 -57 93 -57q39 0 55 57q7 22 12 106q0 29 1 40q3 16 8 16q2 -117 18 -166q18 -53 61 -53q24 0 40 18q18 17 28 40q13 28 20 57z" />
    <glyph glyph-name="v" unicode="v" horiz-adv-x="360" 
d="M191 -1q66 0 112 73q41 65 46 153q5 90 -30 134q-42 52 -118 18q5 -14 8 -41q9 -59 7 -151q0 -95 -8 -135q-5 -23 -12 -23q-6 0 -12 20q-3 20 -9 119q-4 50 -8 77q-12 89 -43 126q-40 47 -114 9q10 0 15 -18q6 -22 15 -105q7 -55 10 -70q14 -82 43 -128q36 -58 98 -58z
" />
    <glyph glyph-name="w" unicode="w" horiz-adv-x="493" 
d="M333 -1q68 0 110 73q38 68 40 153q2 88 -38 134q-43 52 -120 18q4 -7 9 -41q13 -76 17 -151q2 -105 -3 -135q-2 -23 -10 -23q-6 0 -11 20q-4 27 -6 119q0 25 -4 77q-9 87 -38 126q-38 47 -111 9q4 -9 10 -40q10 -52 21 -147q8 -91 4 -132q-2 -23 -9 -23t-12 19
q-3 21 -9 117q-2 41 -7 75q-12 87 -42 122q-41 46 -114 9q9 0 15 -20q12 -41 19 -113q1 -3 5 -30.5t7 -42.5q19 -92 44 -129q33 -57 90 -44q41 8 41 90q38 -90 102 -90z" />
    <glyph glyph-name="x" unicode="x" horiz-adv-x="398" 
d="M206 15q-21 40 -21 100q-4 66 17 66q9 0 12 -11q2 -6 13 -68q5 -47 24 -78q22 -35 72 -27q21 1 65 23q-12 2 -16 12q-7 17 -19 64q-5 21 -13 38q-22 45 -65 63q29 12 49 37q38 47 26 97q-13 51 -74 52q-28 0 -74 -22q12 -26 18 -59q6 -35 3 -63q-3 -29 -17 -29
q-8 0 -12 11q-1 3 -15 65q-4 20 -12 40q-8 24 -17 35q-24 33 -75 26q-25 -4 -65 -24q15 -4 27 -39q8 -22 11 -34q4 -16 17 -38q26 -44 68 -59q-28 -14 -49 -40q-36 -49 -26 -103q10 -53 73 -55q29 -1 75 20z" />
    <glyph glyph-name="y" unicode="y" horiz-adv-x="346" 
d="M178 369q4 -7 9 -36q5 -43 5 -122q-2 -75 -10 -109q-6 -19 -13 -19q-8 0 -11 18q-2 22 -2 101q2 73 -12 124q-17 56 -66 62q-31 0 -68 -19q9 0 12 -16q5 -25 3 -93q0 -40 1 -60q6 -76 28 -112q26 -51 90 -51q39 0 55 46q10 35 12 87q0 8 0.5 19t0.5 15q0 12 6 14
q3 -25 7 -122q1 -77 -37 -100q-31 -21 -72 -2q-16 7 -26.5 18t-8.5 20q-36 -14 -34 -52q4 -43 42 -70q48 -36 123 -36q87 0 113 96q19 68 7 185q-6 75 -13 119q-14 65 -41 91q-36 33 -100 4z" />
    <glyph glyph-name="z" unicode="z" horiz-adv-x="346" 
d="M70 197q-8 25 -4 36q7 23 50 20q26 -2 41 -2q51 0 71 20q-3 -9 -25 -27q-8 -7 -23.5 -19t-22.5 -18q-66 -54 -90 -98q-33 -61 22 -118q5 13 29.5 14t54.5 -4q89 -9 120 11q57 32 39 157q1 -46 -58 -60q-34 -9 -107 -7q-31 0 -42 -1q-17 -2 -18 -7q-2 17 13 37
q23 30 86 81q27 23 45 46q46 52 25 97q-8 -5 -75 7q-82 16 -115 16q-63 0 -74 -36q-13 -43 58 -145z" />
    <glyph glyph-name="braceleft" unicode="{" horiz-adv-x="283" 
d="M30 204q49 0 73 -48q16 -34 27 -108q12 -82 24 -111q17 -52 59 -55q-10 1 -16 16q-2 23 9 84q4 19 10 54q11 67 0 106q-13 50 -70 61q39 6 58 28q25 38 13 112q-5 32 -6 58q-5 60 42 60q-44 8 -66 -7q-40 -28 -54 -106q-9 -43 -17 -66q-21 -74 -86 -78z" />
    <glyph glyph-name="bar" unicode="|" horiz-adv-x="183" 
d="M104 -70q25 -17 36 0q22 31 5 147q-17 111 -43 233q-34 179 -35 184q-6 32 0 33q-22 6 -30 -16q-16 -46 4 -158q19 -101 45 -222q26 -112 29 -171q0 -28 -11 -30z" />
    <glyph glyph-name="braceright" unicode="}" horiz-adv-x="282" 
d="M252 170q-49 0 -73 49q-15 32 -27 108q-13 85 -22 111q-20 51 -60 55q12 -2 14 -16q5 -23 -7 -84q-5 -20 -10 -55q-11 -67 0 -106q13 -50 70 -62q-41 -6 -57 -28q-25 -36 -16 -111q6 -25 8 -57q2 -30 -6.5 -46t-35.5 -15q45 -8 66 8q38 24 55 106q7 38 16 66q23 75 85 77
z" />
    <glyph glyph-name="asciitilde" unicode="~" horiz-adv-x="316" 
d="M56 248q-18 -11 -24 -27q-9 -36 16 -64q21 -31 55 -31q24 0 67 17q8 3 33 10q38 7 64 -17q29 21 14 58q-11 29 -33 43q-21 14 -39 15q-26 2 -69 -15q-3 -2 -31 -11q-33 -7 -53 22z" />
    <glyph glyph-name="uni00A0" unicode="&#xa0;" horiz-adv-x="244" 
 />
    <glyph glyph-name="exclamdown" unicode="&#xa1;" horiz-adv-x="239" 
d="M153 419q-1 6 -1 22q0 8 -4 26q-5 29 -28 46q-27 19 -82 11q-6 -20 -7 -30q-4 -36 6 -64q12 -37 48 -43q39 -8 68 32zM73 -21q59 -25 86 -24q55 0 49 67q-4 53 -36 144q-10 26 -25 71q-24 74 -5 80q-38 3 -54 -8q-37 -22 -35 -88q4 -56 21 -127q9 -37 11 -57
q10 -57 -12 -58z" />
    <glyph glyph-name="cent" unicode="&#xa2;" horiz-adv-x="403" 
d="M199 -55q14 -11 21 5q8 20 7 45h5q3 -1 5 -1q81 0 118 50q15 19 17.5 40.5t-9.5 33.5q4 -14 -4.5 -33.5t-25.5 -34.5q-44 -38 -98 -19l-7 2q-8 112 -12 145l-19 150q13 -31 20 -66q8 -42 7 -63q75 -4 89 37q16 35 -20 81q-37 44 -102 57q-5 32 -6 51q-3 18 0 21
q-13 4 -18 -15q-3 -15 -5 -54h-2q-43 0 -74 -25.5t-45 -67.5q-29 -86 11 -175q47 -99 153 -112v-37q-1 -15 -6 -15zM165 328q0 -5 2 -28t4 -36q5 -46 17 -138q6 -35 9 -64q-33 49 -38 137q-7 86 6 129z" />
    <glyph glyph-name="sterling" unicode="&#xa3;" horiz-adv-x="452" 
d="M119 274h-20q-25 -22 26 -31l2 -15q-4 -1 -13 -1h-11q-25 -23 30 -32q8 -63 -23 -71q63 -15 94 6q26 16 33 61q4 1 13 1t13 1q20 0 44 2q11 15 -9 24q-19 7 -61 9v9q5 0 14 0.5t13 1.5q18 0 40 2q13 16 -9 23q-13 6 -62 10q0 3 -9 64q-7 33 -8 55q-3 52 25 52
q24 -3 18 -46q-8 -44 -26 -45q70 -24 102 3q13 10 14 27t-11 33q-29 37 -97 43q-98 5 -121 -53q-15 -37 -1 -133zM30 75q6 12 25 8q32 -5 117 -41q38 -16 75 -30q86 -32 129 -21q54 14 44 103q-8 -20 -39 -20q-50 -2 -163 24q-42 11 -88 16q-95 10 -100 -39z" />
    <glyph glyph-name="currency" unicode="&#xa4;" horiz-adv-x="480" 
d="M432 112q38 -31 0 -59q-19 -13 -51 -22q7 20 -29 69q-31 -26 -101 -26q-55 0 -95 24q-23 -32 -28 -45t-6 -20q-2 -8 2 -12q-41 31 -53 47q-36 37 1 49q20 8 49 11q-22 27 -19.5 56.5t29.5 48.5q-51 11 -74 26q-49 30 -12 64q19 16 53 23q-7 -10 13 -44q23 -38 43 -58
q28 12 72 12q38 0 75 -15q13 18 30 59q10 36 9 54q41 -34 53.5 -61.5t-3.5 -45t-58 -24.5q49 -38 43 -85q39 -11 57 -26zM262 126q2 42 -6 72q-6 24 -9 31q-5 12 -13 14.5t-13 -7.5q-7 -24 -2 -65q4 -35 16 -69q4 -12 10 -13q15 -3 17 37zM124 21l2 -1h-1z" />
    <glyph glyph-name="yen" unicode="&#xa5;" horiz-adv-x="383" 
d="M126 170q-30 -34 40 -43l2 -15h-19h-17q-28 -34 41 -43q9 -72 -14 -72q39 -17 62 -17q26 0 40 11q30 21 30 76q3 0 9 0.5t9 1.5h14q4 1 12 1q12 17 -1 26.5t-45 14.5l-3 15q14 0 30 2q4 1 12 1q14 17 -4 29q-19 11 -50 12q-11 25 -18 35q48 18 75 71q26 47 21 100t-39 75
q-38 26 -102 -1q5 -11 9 -31q8 -37 10 -98q-2 -61 -8 -85q-4 -15 -10 -15q-9 0 -12 15q-8 29 -13 82q-5 61 -25 101q-21 48 -70 49q-24 1 -62 -17q10 -1 17 -19q4 -22 10 -41q14 -75 30 -112q28 -64 84 -77q-6 -18 -5 -31h-22q-7 -1 -18 -1z" />
    <glyph glyph-name="brokenbar" unicode="&#xa6;" horiz-adv-x="199" 
d="M59 259q26 -17 39 -14q23 5 18 61q-6 52 -22 117q-18 67 -22 99q-3 18 3 19q-31 6 -40 -10q-14 -34 9 -117q26 -102 29 -130q0 -24 -14 -25zM111 -70q26 -18 38 -13q24 4 19 60q-6 50 -22 117q-21 89 -22 99q-3 17 2 19q-28 7 -39 -10q-14 -32 9 -117q26 -92 28 -129
q2 -25 -13 -26z" />
    <glyph glyph-name="section" unicode="&#xa7;" horiz-adv-x="323" 
d="M70 117q-10 -40 -3 -71q12 -55 65 -58q48 -8 101 26q50 35 59 84q5 27 -6.5 50t-33.5 31q48 52 14 111q-14 24 -43 32q-27 8 -61 8q-39 -2 -75 -11q3 17 44 37q37 21 73 21q41 -2 49 -39q17 76 -30 112q-42 30 -99 15q-61 -14 -83 -57q-29 -50 16 -110q6 0 9 1q1 1 4 1.5
t4 0.5q2 0 6 0.5t7 0.5q-45 -33 -39 -84q-3 -56 32 -80q29 -20 80 -12q46 8 81 40q3 -8 -7 -19q-14 -14 -28 -23q-48 -29 -81 -34q-47 -5 -55 27zM67 234q13 38 79 43q64 3 101 -30q-21 -29 -84 -36q-66 -7 -96 23z" />
    <glyph glyph-name="copyright" unicode="&#xa9;" horiz-adv-x="534" 
d="M263 391q-151 10 -210 -87q-23 -43 -22.5 -93.5t22.5 -102.5q23 -52 65.5 -93t98.5 -61q114 -41 194 15q75 49 90 147q15 97 -42 175q-64 87 -196 100zM285 366q105 -15 157 -92q43 -65 33 -151q-9 -79 -68 -118q-83 -28 -169 31q-74 49 -113 138t-3 146q41 64 163 46z
M274 345q-58 0 -87 -49q-29 -47 -21 -111q7 -66 49 -110q48 -50 124 -50q67 0 99 41q13 17 14.5 35t-9.5 29q3 -15 -3 -28q-13 -37 -57 -49q-22 -6 -45 2.5t-35 30.5q-24 44 -29 115q-6 68 5 105q5 18 8 18q8 0 13 -20q5 -35 6 -46q4 -64 2 -93q66 -3 82 43q15 44 -20 90
q-36 47 -96 47z" />
    <glyph glyph-name="guillemotleft" unicode="&#xab;" horiz-adv-x="400" 
d="M370 78q-43 23 -73 45q-78 52 -108 89l2 3q39 -32 83 -30q41 0 52 31q10 33 -37 86q0 -18 -27 -32q-29 -15 -66 -23q-7 31 -37 63q2 -19 -41 -38q-40 -19 -87 -21q-4 -42 47 -113q53 -68 101 -89q56 -27 60 37q-47 28 -80 50q-32 20 -62 47q-33 28 -45 48q24 -26 61 -33
q30 -10 56 0q18 -48 68 -101q47 -52 85 -61q43 -11 48 42z" />
    <glyph glyph-name="logicalnot" unicode="&#xac;" horiz-adv-x="327" 
d="M34 250q-17 -64 53 -87q50 -16 138 -12q-1 -5 1 -15q0 -2 0.5 -7t1.5 -7q2 -5 2 -13q45 -30 60 -6q6 12 4 56q14 54 -40 78q-43 18 -120 18q-5 0 -100 -5z" />
    <glyph glyph-name="softhyphen" unicode="&#xad;" horiz-adv-x="328" 
d="M33 250q-13 -50 27 -75q29 -20 91 -25q74 -2 146 10q6 28 -9 50q-26 34 -93 41q-56 6 -121 1q-17 -2 -41 -2z" />
    <glyph glyph-name="registered" unicode="&#xae;" horiz-adv-x="534" 
d="M263 391q-151 10 -210 -87q-23 -43 -22.5 -93.5t22.5 -102.5q23 -52 65.5 -93t98.5 -61q114 -41 194 15q75 49 90 147q15 97 -42 175q-64 87 -196 100zM285 366q105 -15 157 -92q43 -65 33 -151q-9 -79 -68 -118q-83 -28 -169 31q-74 49 -113 138t-3 146q41 64 163 46z
M155 278q12 5 15 -3q5 -10 10 -66q0 -7 5 -49q9 -59 30 -90q28 -36 82 -24q-2 0 -5 18q-2 47 -1 95q0 70 6 96q4 16 9 16q7 0 6 -10q2 -11 0 -26q-5 -51 0 -70q7 -37 46 -37q23 0 48 30q26 27 34 54q-18 -13 -30 -17q-10 -3 -16 3q-5 6 -9 46q0 47 -5 60q-9 31 -38 31
q-21 0 -35 -14q-22 -24 -29 -82q-1 -15 -2 -30.5t-1.5 -30.5t-0.5 -21q-1 -11 -3 -13q-2 -1 -3 3t-1 11q0 4 -0.5 15t-0.5 19q2 58 -4 86q-11 46 -40 46q-15 0 -29 -7q-22 -13 -38 -39z" />
    <glyph glyph-name="degree" unicode="&#xb0;" horiz-adv-x="180" 
d="M31 397v-47q5 -34 23 -47q27 -19 81 -11q5 13 10 29q8 37 2 65q-10 36 -45 44q-39 7 -71 -33zM70 311q-8 0 -13 9q-9 15 -9 54q13 3 21.5 -6t11.5 -23t-0.5 -24t-10.5 -10z" />
    <glyph glyph-name="plusminus" unicode="&#xb1;" horiz-adv-x="353" 
d="M183 293q-53 41 -73 18q-15 -20 -6 -80q-4 0 -40 -3q-24 -2 -31 -2q-10 -45 18 -66q23 -17 73 -17q5 -20 6 -23l7 -19l6 -18q23 -14 33 -14q13 0 21 10q10 17 8 71q9 1 32 5q31 6 49 13q6 32 -22 49q-25 13 -70 15q-1 4 -3 17t-3 19q-1 5 -3 13.5t-2 11.5zM69 36
q-11 -51 24 -70q33 -18 88 -13q61 3 140 24q6 24 -8 38q-23 25 -89 28q-44 1 -114 -5q-36 -2 -41 -2z" />
    <glyph glyph-name="twosuperior" unicode="&#xb2;" horiz-adv-x="268" 
d="M225 328q1 -4 -2 -5.5t-9 -1.5q-7 -1 -30 1q-61 8 -76 6q1 1 9.5 7t15.5 10q22 11 35 23q40 32 43 81q0 36 -32 60q-30 24 -72 24q-63 0 -75 -51q-10 -48 21 -84q31 -40 64 -7q-4 0 -10 11q-7 13 -9 24q-13 36 -12 64q3 34 23 34q30 0 32 -42q3 -35 -15 -88
q-16 -47 -40 -70q-21 -11 -16 -36q2 6 19 3l39 -8q63 -20 88 -15q39 5 9 60z" />
    <glyph glyph-name="threesuperior" unicode="&#xb3;" horiz-adv-x="259" 
d="M116 417q21 0 35 -33q16 -33 13 -62q-7 -32 -34 -29q-29 6 -27 51q2 46 14 49q-44 36 -65 6q-22 -27 -1 -68q24 -46 84 -46q44 0 71 15q27 18 22 51q-8 33 -41 54q-29 17 -57 21l55 59q17 12 13 35q0 -8 -18 -3q-13 1 -40 8q-68 18 -89 15q-36 -7 -8 -61q0 7 12 7
q6 0 32 -2q59 -7 77 -5l-50 -53q-4 -1 -5 -3t1 -4t6 -2z" />
    <glyph glyph-name="paragraph" unicode="&#xb6;" horiz-adv-x="411" 
d="M244 -70q35 -27 53 27q13 44 15 144q3 86 -2 182q-3 96 -2 140q44 0 61 13q22 13 5 44q-8 -22 -68 -22q-15 0 -57 2t-63 1q-77 -2 -113 -30q-49 -34 -42 -118q25 12 63 10q32 -3 56 -11q-3 -84 -3 -91q0 -32 0.5 -96t1.5 -95q2 -97 -7 -137q-5 -22 -15 -24q37 -26 55 39
q16 57 19 169q3 70 1 206q0 133 2 148q3 0 15 -1.5t26.5 -3t27.5 -2.5q-10 -32 -13 -76q-5 -73 1 -211q6 -118 -1 -175q-5 -30 -16 -32z" />
    <glyph glyph-name="periodcentered" unicode="&#xb7;" horiz-adv-x="160" 
d="M32 226q0 -3 -0.5 -12.5t-1.5 -15.5q0 -42 32 -56q17 -8 56 -3q1 3 4 11.5t4 13.5q6 28 3 53q-10 31 -38 37q-33 5 -59 -28z" />
    <glyph glyph-name="onesuperior" unicode="&#xb9;" horiz-adv-x="244" 
d="M106 532q-60 0 -74 -61q-11 -54 21 -113q14 -27 37 -44t49 -17q61 0 73 61q11 56 -21 113q-33 61 -85 61zM134 307q-8 0 -16 18q-16 33 -24 95q-7 65 2 91q5 15 14.5 13t18.5 -19q13 -31 22 -94q9 -56 -2 -90q-3 -16 -15 -14z" />
    <glyph glyph-name="guillemotright" unicode="&#xbb;" horiz-adv-x="397" 
d="M158 255q54 -32 81 -50q81 -54 107 -94q-12 10 -29 20q-28 17 -61 17q-11 0 -27 -4q-17 46 -67 100q-48 51 -85 61q-41 12 -47 -42q50 -30 72 -46q76 -50 107 -86l-2 -2v-2q-39 30 -82 28q-42 0 -51 -31q-10 -35 37 -85q0 15 26 31q30 16 64 23q7 -27 38 -62q-4 18 40 39
q42 19 88 20q4 43 -49 114q-48 66 -99 89q-55 24 -61 -38z" />
    <glyph glyph-name="onequarter" unicode="&#xbc;" horiz-adv-x="602" 
d="M189 495q-35 13 -71 -13q-27 -20 -53 -57q-29 -35 -35 -37q43 -28 64 -18q8 6 18 44q6 35 24 55q-11 -22 -14 -51q-6 -56 6 -133q9 -89 6 -110q0 -20 -12 -20q41 -19 63 -16q41 7 39 73q0 53 -21 139q-20 88 -22 119q-3 20 8 25zM151 7q25 -35 62 -1q31 30 65 105
q13 28 62 152q3 7 13 33t16 40q28 78 43 104q8 15 13 15q-18 13 -41 2q-36 -23 -77 -116q-36 -82 -70 -181q-3 -9 -12.5 -33.5t-13 -34t-10.5 -25.5t-12.5 -26t-10.5 -17q-13 -20 -27 -17zM512 361q-39 12 -76 -25q-28 -25 -59 -88q-13 -27 -41 -97q-6 -17 -14 -33
q-2 -3 -4 -5.5t-3 -4.5t-2 -3.5t-2 -1.5q55 -44 81 -15q22 14 54 14q7 -77 7 -87q-3 -37 -15 -39q73 -35 100 -1q22 29 12 104q13 1 18 14q6 13 3 43q-5 -3 -28 -5q-2 8 -8 36t-8 43q-22 87 -23 126q-2 20 8 25zM402 103q0 1 8 29q7 56 8 74q1 4 2 12t2 14.5t2 12.5
q4 63 29 86q-19 -33 -17 -91q-1 -39 7 -116q-26 -6 -41 -21z" />
    <glyph glyph-name="onehalf" unicode="&#xbd;" horiz-adv-x="708" 
d="M190 495q-34 13 -72 -13q-24 -19 -54 -58q-13 -17 -20 -26q-9 -10 -14 -12q46 -31 64 -18q11 9 18 46q8 38 28 56q-12 -18 -17 -50q-4 -52 5 -137q10 -97 9 -114q-5 -19 -14 -20q40 -19 63 -16q43 6 41 74q-1 54 -22 142q-20 89 -21 120q-2 22 6 26zM162 7q26 -36 61 -1
q29 27 66 105q24 51 62 152q10 25 28 73q21 57 43 104q9 15 14 15q-20 13 -41 2q-35 -22 -78 -116q-33 -78 -70 -181q-41 -111 -59 -136q-13 -20 -26 -17zM659 15q-2 -11 -17 -12q-21 0 -44 4q-84 10 -113 8q1 1 15 10t24 14q31 19 50 35q62 51 63 119q-1 55 -47 91
q-44 36 -107 36q-72 0 -101 -47q-23 -40 -9 -97q15 -56 50 -78q40 -26 76 9q-6 1 -15 17q-11 16 -16 36q-17 50 -15 95q2 51 32 51q47 0 49 -63q3 -63 -24 -130q-25 -72 -59 -105q-32 -13 -23 -54q2 9 16 7q15 -1 88 -19q18 -6 52 -12q61 -12 83 2q26 18 -8 83z" />
    <glyph glyph-name="threequarters" unicode="&#xbe;" horiz-adv-x="706" 
d="M161 327q32 0 57 -51q22 -51 16 -93q-9 -48 -52 -44q-28 3 -35 40q-9 30 -2 71q7 36 18 41q-26 22 -47 26q-43 9 -59 -28t0 -80q7 -22 26 -41q40 -42 109 -42q71 0 106 23q44 25 34 77q-11 51 -64 84q-40 25 -85 31l84 90q27 15 19 54q0 -8 -17 -6q-17 0 -87 19l-57 12
q-61 12 -83 -3q-27 -18 8 -85q0 10 20 12q7 0 23.5 -1.5t23.5 -1.5q82 -13 119 -9l-77 -81q-5 -1 -6.5 -4.5t1 -6.5t7.5 -3zM259 7q25 -35 61 -1q31 30 65 105q25 50 63 152q5 14 15 39t13 34q27 70 43 104q9 15 13 15q-18 13 -40 2q-37 -22 -78 -116q-42 -100 -70 -181
q-41 -111 -59 -136q-13 -20 -26 -17zM608 333l9 26q-51 15 -98 -50q-33 -46 -65 -129q-13 -28 -22 -54q-12 -23 -16 -24q55 -43 78 -17q26 17 56 15q8 -65 7 -86q-2 -37 -14 -39q73 -35 99 -1q22 28 13 104q12 2 18 14q5 13 2 43q-5 -4 -29 -4q-2 13 -7 39t-7 38
q-23 91 -24 125zM505 102q3 7 9 29q7 28 10 73q2 28 4 40q7 60 30 85q-15 -27 -17 -92q-2 -42 7 -114q-31 -11 -43 -21z" />
    <glyph glyph-name="questiondown" unicode="&#xbf;" horiz-adv-x="428" 
d="M278 420q-1 5 -1.5 16.5t-1.5 18.5q-4 47 -45 66q-25 10 -67 4q-2 -6 -4.5 -16.5t-3.5 -13.5q-4 -36 6 -64q12 -37 48 -43q38 -9 69 32zM232 319q0 9 -3 17q-7 17 -15 12q-3 -2 -8 -17q-4 -23 -18 -44t-27.5 -33.5t-37.5 -32.5q-37 -30 -59 -57t-31 -65q-17 -62 53 -110
q62 -44 148 -44q99 0 138 52q37 42 22 103q-15 57 -57 78q-50 23 -97 -25q7 -1 18 -16q10 -14 16 -36q18 -48 10 -92q-12 -49 -54 -46q-37 3 -52 19t-13 45q1 33 35 137q34 99 32 155z" />
    <glyph glyph-name="multiply" unicode="&#xd7;" horiz-adv-x="273" 
d="M155 109l37 -34q29 -1 41 7.5t9 22.5q-3 24 -48 69l11 22t11 21q5 15 15 32q-34 53 -65 45q-27 -7 -52 -52q-8 6 -20 16l-17 12l-15 11q-42 -1 -29 -33q9 -27 53 -72q-7 -18 -9 -29l-13 -47q22 -33 47 -27q24 5 44 36z" />
    <glyph glyph-name="divide" unicode="&#xf7;" horiz-adv-x="311" 
d="M71 331q3 -13 3 -33q5 -49 46 -67q21 -10 66 -4q5 12 8 30q4 35 -6 64q-12 36 -48 43q-40 9 -69 -33zM36 213q-17 -35 18 -50q30 -16 85 -18q69 -2 139 6q7 23 -4 35q-21 24 -86 29q-60 3 -113 0q-32 -2 -39 -2zM100 106l3 -35q4 -48 44 -66q24 -10 67 -3q6 18 7 29
q6 33 -5 65q-12 37 -48 43q-41 9 -68 -33z" />
    <glyph glyph-name="uni060C" unicode="&#x60c;" horiz-adv-x="184" 
d="M154 13q-3 39 -10 58q-16 39 -58 47q0 6 2 14q4 16 16 22q-29 18 -47 -4q-17 -13 -26 -55q-3 -41 6 -72q5 -16 18.5 -28t29.5 -15q42 -9 69 33z" />
    <glyph glyph-name="uni061B" unicode="&#x61b;" horiz-adv-x="212" 
d="M153 238q-3 39 -10 58q-14 39 -58 47q3 13 3 14q2 15 15 22q-29 18 -47 -4q-17 -15 -26 -55q-2 -46 6 -72q12 -36 48 -43q42 -9 69 33zM182 13l-3 33q-5 49 -45 67q-22 10 -66 4q-6 -16 -9 -30q-4 -32 6 -64q12 -36 48 -43q41 -9 69 33z" />
    <glyph glyph-name="uni061F" unicode="&#x61f;" horiz-adv-x="429" 
d="M233 184q2 49 -31 156q-36 102 -37 136q-1 29 14 45t52 19q44 3 53 -45q8 -43 -8 -92q-6 -19 -17 -37q-10 -15 -19 -16q50 -48 98 -24q44 21 57 78q14 60 -21 103q-45 52 -139 52q-83 0 -150 -45q-68 -48 -52 -110q16 -60 91 -121q3 -2 11 -9.5t11 -10t10.5 -9.5
t10.5 -10.5t9 -10t9 -11t7 -11.5t6.5 -12.5t5 -13t3.5 -14.5q3 -14 7 -15q9 -7 16 12q4 7 3 16zM278 83q-28 41 -68 34q-35 -8 -48 -44q-11 -36 -6 -65q1 -7 8 -29q42 -7 67 4q39 18 44 66q0 6 1.5 17.5t1.5 16.5z" />
    <glyph glyph-name="uni0621" unicode="&#x621;" horiz-adv-x="418" 
d="M252 274q49 10 87 -1q24 -8 24 -35q0 -17 -10.5 -26.5t-24.5 -9.5q-15 0 -26 9t-12 26q-32 5 -60 -16q-31 -25 -6 -47q22 -19 54 -21q9 -1 27 -1q43 -2 63 -25q31 -35 15 -79q-16 -47 -80 -63q-43 -11 -137 10q-52 11 -90 -8q-20 -9 -46 -37q23 57 59 77q22 11 69 11
q12 -1 37 -1q46 0 56 18q9 16 -17 29q-12 5 -31 7q-50 4 -72.5 19.5t-19.5 54.5q1 39 47 71q37 26 94 38z" />
    <glyph glyph-name="uni0622" unicode="&#x622;" horiz-adv-x="231" 
d="M129 686l67 -33q-34 -23 -87 -14l-37 6q-36 6 -60 -5q-14 -8 -30 -24q20 51 61 58q17 2 36 0t36 4q11 3 14 8zM162 586q9 0 9 -1t-8 -3q-25 -6 -32 -53q-7 -36 -1 -69q14 -71 48 -150q38 -91 11 -177q-23 -73 -100 -150l-6 8q24 45 30 82q9 63 -26 143q-9 20 -34 80
q-47 115 -17 190q16 40 52 71q35 30 74 29z" />
    <glyph glyph-name="uni0623" unicode="&#x623;" horiz-adv-x="231" 
d="M186 831q17 -5 17 -23q0 -11 -7 -17.5t-17 -6.5q-10 -1 -17.5 5.5t-7.5 17.5q-22 2 -40 -11q-21 -14 -4 -31q12 -12 36 -14q6 -1 18 -1q27 0 42 -17q19 -24 10 -52q-9 -31 -54 -42q-25 -6 -91 6q-36 6 -60 -5q-13 -8 -30 -24q20 51 61 58q16 2 36 0t38 4.5t12 17.5
q-8 13 -32 14q-33 2 -48 12.5t-13 35.5q1 40 61 64q55 22 90 9zM161 586q9 0 9 -1t-8 -3q-25 -6 -32 -53q-7 -36 -1 -69q14 -71 48 -150q38 -91 11 -177q-23 -73 -100 -150l-6 8q24 45 30 82q9 63 -26 143q-9 20 -34 80q-47 115 -17 190q16 40 52 71q35 30 74 29z" />
    <glyph glyph-name="uni0624" unicode="&#x624;" horiz-adv-x="406" 
d="M215 591q17 -5 17 -23q0 -11 -7 -17.5t-17 -6.5q-10 -1 -17.5 5.5t-7.5 17.5q-23 2 -41 -11q-20 -14 -3 -31q12 -12 35 -14q6 -1 18 -1q6 0 18 -2q23 -5 33 -25t2 -42q-8 -24 -35.5 -37t-72.5 -5q-24 3 -37 7q-35 6 -61 -6q-13 -8 -30 -24q20 51 62 58q17 2 36 0
q20 -2 37.5 4.5t11.5 17.5q-8 13 -31 14q-33 2 -48.5 12.5t-13.5 36.5q4 40 62 63q55 22 90 9zM188 331q41 5 128 -27q-20 -20 -17 -53q2 -17 20 -64q53 -126 56 -187q6 -107 -55 -159q-57 -49 -146 -24q-40 11 -93 55q-44 37 -64 36q-8 0 -10.5 3t0 7.5t9.5 9.5
q27 18 54 -4q33 -28 60 -39.5t62 -5.5q57 11 65 109q-44 -31 -81.5 -28t-70.5 33q-30 26 -50 68t-23 82q-6 71 37 125q44 56 119 63zM169 235q-30 -56 -27 -96q3 -49 58 -59q31 30 13 77q-8 22 -21 40q-5 8 -23 38z" />
    <glyph glyph-name="uni0625" unicode="&#x625;" horiz-adv-x="226" 
d="M158 586q9 0 9 -1t-8 -3q-25 -6 -32 -53q-7 -36 -1 -69q14 -71 48 -150q38 -91 11 -177q-23 -73 -100 -150l-6 8q43 81 28 154q-8 35 -24 71q-50 115 -60 174q-9 50 9 96q16 40 52 71q35 30 74 29zM186 -36q16 -4 16 -23q0 -11 -7 -17.5t-17 -6.5q-23 -2 -25 23
q-22 2 -40 -11q-20 -14 -3 -31q12 -12 35 -14q6 -1 18 -1q6 0 18 -2q22 -6 32 -26.5t2 -41.5q-8 -24 -35.5 -36.5t-72.5 -4.5l-37 6q-35 7 -60 -5q-14 -7 -30 -24q20 51 62 58q16 1 36 0q20 -2 37.5 4.5t11.5 17.5q-8 13 -32 14q-32 2 -47.5 12.5t-13.5 35.5q4 41 62 64
q55 22 90 9z" />
    <glyph glyph-name="uni0626" unicode="&#x626;" horiz-adv-x="590" 
d="M283 664q17 -5 17 -23q0 -11 -7 -17.5t-17 -6.5q-10 -1 -17.5 5.5t-7.5 17.5q-22 2 -40 -11q-21 -14 -4 -31q12 -12 36 -14q6 -1 18 -1q7 0 17 -2q23 -5 33 -25t2 -42q-8 -24 -35.5 -37t-72.5 -5q-24 3 -37 7q-34 6 -60 -6q-14 -7 -30 -24q20 51 62 58q16 1 36 0
q20 -2 37.5 4.5t11.5 17.5q-8 13 -32 14q-33 2 -48 12.5t-13 36.5q1 39 61 63q55 22 90 9zM79 431q65 15 80 -37q14 -45 -6 -114q-5 -20 -19 -60q-25 -66 -30 -114q-9 -68 45 -121q59 -60 154 -80q104 -23 154 16q27 20 31 45t-18 47q-6 6 -14 10.5t-18 7.5t-18 5t-21 4
t-19.5 2.5t-20.5 1.5t-17 1q-100 8 -133 48q-51 60 -18 148q33 87 120 122q45 16 85 9.5t64 -26.5q22 -19 22 -49q0 -19 -13 -32t-32 -13q-18 0 -31 13t-13 32q0 17 12 30q-55 0 -101 -33q-47 -34 -47 -76q0 -22 15.5 -33t45.5 -17q35 -6 60 -7q96 -9 136 -48q29 -28 41 -74
t-3 -100q-37 -106 -160 -139q-127 -34 -239 35q-57 34 -96 101q-31 53 -25 123q4 33 44 140q41 107 47 149q10 72 -44 83z" />
    <glyph glyph-name="uni0627" unicode="&#x627;" horiz-adv-x="229" 
d="M159 586q9 0 9 -1t-8 -3q-25 -6 -32 -53q-7 -36 -1 -69q14 -71 48 -150q38 -91 11 -177q-23 -73 -100 -150l-6 8q43 81 28 154q-8 35 -24 71q-50 115 -60 174q-9 50 9 96q16 40 52 71q35 30 74 29z" />
    <glyph glyph-name="uni0628" unicode="&#x628;" horiz-adv-x="780" 
d="M465 375v11q21 -15 31.5 -40.5t5.5 -46.5q-9 -38 -61 -45q-44 -7 -100 0q-55 5 -83 4q-45 -2 -67 -25q-11 -11 -13 -31q-4 -59 105 -92q95 -29 207 -24q115 5 134 42q7 13 -8 44q-18 33 -40 78q51 36 116 77q9 -18 23 -39q22 -38 30 -67q4 -15 4 -37q0 -63 -51 -106
q-72 -59 -234 -74q-170 -15 -292 27q-142 47 -141 154q1 92 98 121q76 22 171 0q3 -1 15 -3t19 -4q43 -9 82 -8q43 2 53 29q5 15 -2 39q-2 10 -2 16zM404 -59q25 0 42.5 -17.5t17.5 -42.5t-17.5 -42.5t-42.5 -17.5t-42.5 17.5t-17.5 42.5t17.5 42.5t42.5 17.5z" />
    <glyph glyph-name="uni0629" unicode="&#x629;" horiz-adv-x="404" 
d="M250 554q20 -15 23 -39.5t-13 -44.5q-15 -20 -39.5 -22.5t-44.5 12.5t-23 39.5t13 44.5q15 20 39.5 23t44.5 -13zM128 480q20 -16 22.5 -40t-12.5 -44t-39.5 -23t-44.5 12t-23 39.5t13 44.5q15 20 39.5 23t44.5 -12zM310 397q-1 -3 -1 -11t-1 -11q-55 -17 -65 -39
q-11 -23 13 -50q27 -33 73 -68q33 -28 41 -61q13 -69 -24 -116q-34 -42 -99 -61q-111 -33 -174 31q-27 28 -29.5 65t22.5 74q17 26 69 60q-14 35 -2.5 67.5t43.5 60.5q29 26 66 42.5t68 16.5zM171 170q0 -53 11 -82q12 -39 51 -65q15 64 2 86q-6 11 -23 26q-8 6 -41 35z" />
    <glyph glyph-name="uni062A" unicode="&#x62a;" horiz-adv-x="780" 
d="M535 477q25 0 42.5 -17.5t17.5 -42.5t-17.5 -42t-42.5 -17t-42.5 17t-17.5 42t17.5 42.5t42.5 17.5zM396 452q25 0 42.5 -17.5t17.5 -42.5t-17.5 -42t-42.5 -17t-42.5 17t-17.5 42t17.5 42.5t42.5 17.5zM465 375v11q21 -15 31.5 -40.5t5.5 -46.5q-9 -38 -61 -45
q-44 -7 -100 0q-55 5 -83 4q-45 -2 -67 -25q-11 -11 -13 -31q-4 -59 105 -92q95 -29 207 -24q115 5 134 42q7 13 -8 44q-18 33 -40 78q51 36 116 77q9 -18 23 -39q22 -38 30 -67q4 -15 4 -37q0 -63 -51 -106q-72 -59 -234 -74q-170 -15 -292 27q-142 47 -141 154
q1 92 98 121q76 22 171 0q3 -1 15 -3t19 -4q43 -9 82 -8q43 2 53 29q5 15 -2 39q-2 10 -2 16z" />
    <glyph glyph-name="uni062B" unicode="&#x62b;" horiz-adv-x="780" 
d="M436 602q25 0 42.5 -17t17.5 -42t-17.5 -42.5t-42.5 -17.5t-42.5 17.5t-17.5 42.5t17.5 42t42.5 17zM535 477q25 0 42.5 -17.5t17.5 -42.5t-17.5 -42t-42.5 -17t-42.5 17t-17.5 42t17.5 42.5t42.5 17.5zM396 452q25 0 42.5 -17.5t17.5 -42.5t-17.5 -42t-42.5 -17
t-42.5 17t-17.5 42t17.5 42.5t42.5 17.5zM465 375v11q21 -15 31.5 -40.5t5.5 -46.5q-9 -38 -61 -45q-44 -7 -100 0q-55 5 -83 4q-45 -2 -67 -25q-11 -11 -13 -31q-4 -59 105 -92q95 -29 207 -24q115 5 134 42q7 13 -8 44q-18 33 -40 78l116 77q9 -18 23 -39q22 -38 30 -67
q4 -15 4 -37q0 -63 -51 -106q-72 -59 -234 -74q-170 -15 -292 27q-142 47 -141 154q1 92 98 121q76 22 171 0q3 -1 15 -3t19 -4q43 -9 82 -8q43 2 53 29q5 15 -2 39q-2 10 -2 16z" />
    <glyph glyph-name="uni062C" unicode="&#x62c;" horiz-adv-x="770" 
d="M181 382q57 26 117 -3q38 -18 114 -74q74 -55 166 -85q63 -21 162 -30l-56 -57q-10 -10 -28 -28.5t-28 -28.5q-100 29 -160 36q-75 9 -152 -7q-80 -14 -129 -47q-63 -42 -59 -106q4 -77 85 -115q70 -34 173 -27q97 6 160 44q39 24 46 50q8 30 -25 56l-2 8q54 -26 52 -67
q-1 -84 -110 -135q-91 -43 -185 -45q-77 -2 -142 21q-77 27 -115 76q-45 56 -32 136q18 108 125 171q82 48 209 72q-44 30 -46 32q-59 40 -112 50q-29 5 -54 -7t-35 -35t6 -39v4q0 17 12.5 29.5t29.5 12.5t29.5 -12.5t12.5 -29.5q0 -15 -12.5 -29t-27.5 -17q-51 -10 -75 21
q-32 41 -9 100q13 31 39.5 61.5t55.5 43.5zM351 27q25 0 42.5 -17.5t17.5 -42.5t-17.5 -42.5t-42.5 -17.5t-42 17.5t-17 42.5t17 42.5t42 17.5z" />
    <glyph glyph-name="uni062D" unicode="&#x62d;" horiz-adv-x="770" 
d="M181 382q57 26 117 -3q38 -18 114 -74q74 -55 166 -85q63 -21 162 -30l-56 -57q-10 -10 -28 -28.5t-28 -28.5q-100 29 -160 36q-75 9 -152 -7q-80 -14 -129 -47q-63 -42 -59 -106q4 -77 85 -115q70 -34 173 -27q97 6 160 44q39 24 46 50q8 30 -25 56l-2 8q54 -26 52 -67
q-1 -84 -110 -135q-91 -43 -185 -45q-77 -2 -142 21q-77 27 -115 76q-45 56 -32 136q18 108 125 171q82 48 209 72q-44 30 -46 32q-59 40 -112 50q-29 5 -54 -7t-35 -35t6 -39v4q0 17 12.5 29.5t29.5 12.5t29.5 -12.5t12.5 -29.5q0 -15 -12.5 -29t-27.5 -17q-51 -10 -75 21
q-32 41 -9 100q13 31 39.5 61.5t55.5 43.5z" />
    <glyph glyph-name="uni062E" unicode="&#x62e;" horiz-adv-x="770" 
d="M262 576q25 0 42.5 -17.5t17.5 -42.5t-17.5 -42.5t-42.5 -17.5t-42.5 17.5t-17.5 42.5t17.5 42.5t42.5 17.5zM181 382q57 26 117 -3q38 -18 114 -74q74 -55 166 -85q63 -21 162 -30l-56 -57q-10 -10 -28 -28.5t-28 -28.5q-100 29 -160 36q-75 9 -152 -7q-80 -14 -129 -47
q-63 -42 -59 -106q4 -77 85 -115q70 -34 173 -27q97 6 160 44q39 24 46 50q8 30 -25 56l-2 8q54 -26 52 -67q-1 -84 -110 -135q-91 -43 -185 -45q-77 -2 -142 21q-77 27 -115 76q-45 56 -32 136q18 108 125 171q82 48 209 72q-44 30 -46 32q-59 40 -112 50q-29 5 -54 -7
t-35 -35t6 -39v4q0 17 12.5 29.5t29.5 12.5t29.5 -12.5t12.5 -29.5q0 -15 -12.5 -29t-27.5 -17q-51 -10 -75 21q-32 41 -9 100q13 31 39.5 61.5t55.5 43.5z" />
    <glyph glyph-name="uni062F" unicode="&#x62f;" horiz-adv-x="446" 
d="M79 327q-5 -34 12 -51q15 -15 42 -17q37 -3 65 1q11 2 31 4.5t30 3.5q128 20 153 -76q13 -50 -19 -90q-32 -41 -106 -71q-71 -28 -140 -30q-70 -1 -94 46q-13 25 -23 112l8 2q1 1 3.5 1.5t3.5 0.5q39 -36 135 -27q94 9 123 46q22 27 -1 36q-10 3 -26 3q-31 0 -63 -5
q-25 -5 -47 -4q-33 0 -63 15q-33 16 -37 52q-3 20 4 46q1 1 5 1q3 0 4 1z" />
    <glyph glyph-name="uni0630" unicode="&#x630;" horiz-adv-x="446" 
d="M141 468q25 0 42 -17.5t17 -42.5t-17 -42t-42 -17t-42.5 17t-17.5 42t17.5 42.5t42.5 17.5zM79 327q-5 -34 12 -51q15 -15 42 -17q37 -3 65 1q11 2 31 4.5t30 3.5q128 20 153 -76q13 -50 -19 -90q-32 -41 -106 -71q-71 -28 -140 -30q-70 -1 -94 46q-13 25 -23 112l8 2
q1 1 3.5 1.5t3.5 0.5q39 -36 135 -27q94 9 123 46q22 27 -1 36q-10 3 -26 3q-31 0 -63 -5q-25 -5 -47 -4q-33 0 -63 15q-33 16 -37 52q-3 20 4 46q1 1 5 1q3 0 4 1z" />
    <glyph glyph-name="uni0631" unicode="&#x631;" horiz-adv-x="390" 
d="M228 332q17 -5 47 -17l26 -11q-15 -15 -17 -35t3 -37t17 -45q52 -123 55 -187q6 -108 -55 -159q-58 -50 -146 -25q-41 12 -92 56q-46 37 -64 36q-12 0 -12 6.5t10 13.5q27 18 54 -4q33 -28 60 -39.5t63 -5.5q49 10 61 81q5 29 -24 100q-16 37 -27 61q-14 29 -27 62
q-16 43 -21 72q-7 43 10 72q15 24 79 5z" />
    <glyph glyph-name="uni0632" unicode="&#x632;" horiz-adv-x="390" 
d="M168 518q25 0 42.5 -17.5t17.5 -42.5t-17.5 -42.5t-42.5 -17.5t-42 17.5t-17 42.5t17 42.5t42 17.5zM228 332q17 -5 47 -17l26 -11q-15 -15 -17 -35t3 -37t17 -45q52 -123 55 -187q6 -108 -55 -159q-58 -50 -146 -25q-41 12 -92 56q-46 37 -64 36q-12 0 -12 6.5t10 13.5
q27 18 54 -4q33 -28 60 -39.5t63 -5.5q49 10 61 81q5 29 -24 100q-16 37 -27 61q-14 29 -27 62q-16 43 -21 72q-7 43 10 72q15 24 79 5z" />
    <glyph glyph-name="uni0633" unicode="&#x633;" horiz-adv-x="853" 
d="M150 413v4q47 6 69 -20q23 -28 8 -67q-9 -23 -45 -68q-73 -85 -59 -176q10 -77 72 -130q58 -50 111 -42q57 9 57 86q-2 98 -80 248l58 39q9 7 29 20t29 19q57 -109 78 -215q21 -16 36 6q5 10 5 23q0 12 -8 30q-18 33 -40 78l58 39q10 7 29 20t29 19q18 -34 27 -50
q31 -52 31 -100q-2 -29 -16 -56q16 -18 37 -16t32 22q7 15 -15 61q-12 24 -19 35q-5 7 -14 26l58 39q9 7 29 20t29 19q9 -18 23 -39q22 -38 30 -67q4 -15 4 -37q0 -45 -22.5 -80t-59.5 -54q-82 -41 -169 12q-27 -16 -46 -23t-42 -13q-4 -99 -82 -150q-72 -49 -166 -35
q-99 13 -159 91q-64 81 -39 185q15 63 93 158q4 5 12.5 15t12 14.5t10.5 13t10.5 13t8.5 11.5t7 11t4.5 9.5t3.5 9.5t1 7q0 16 -18 25q-7 4 -16 6q-3 1 -8.5 2.5t-7.5 1.5z" />
    <glyph glyph-name="uni0634" unicode="&#x634;" horiz-adv-x="853" 
d="M514 637q25 0 42.5 -17.5t17.5 -42.5t-17.5 -42.5t-42.5 -17.5t-42 17.5t-17 42.5t17 42.5t42 17.5zM613 511q25 0 42.5 -17.5t17.5 -42.5q0 -24 -17.5 -41.5t-42.5 -17.5t-42.5 17.5t-17.5 41.5q0 25 17.5 42.5t42.5 17.5zM474 486q25 0 42.5 -17.5t17.5 -41.5
q0 -25 -17.5 -42.5t-42.5 -17.5t-42.5 17.5t-17.5 42.5q0 24 17.5 41.5t42.5 17.5zM150 413v4q47 6 69 -20q23 -28 8 -67q-9 -23 -45 -68q-73 -85 -59 -176q10 -77 72 -130q58 -50 111 -42q57 9 57 86q-2 98 -80 248l58 39q9 7 29 20t29 19q57 -109 78 -215q21 -16 36 6
q5 10 5 23q0 12 -8 30q-18 33 -40 78l58 39q10 7 29 20t29 19q18 -34 27 -50q31 -52 31 -100q-2 -29 -16 -56q16 -18 37 -16t32 22q7 15 -15 61q-12 24 -19 35q-5 7 -14 26l58 39q9 7 29 20t29 19q9 -18 23 -39q22 -38 30 -67q4 -15 4 -37q0 -45 -22.5 -80t-59.5 -54
q-82 -41 -169 12q-27 -16 -46 -23t-42 -13q-4 -99 -82 -150q-72 -49 -166 -35q-99 13 -159 91q-64 81 -39 185q15 63 93 158q4 5 12.5 15t12 14.5t10.5 13t10.5 13t8.5 11.5t7 11t4.5 9.5t3.5 9.5t1 7q0 16 -18 25q-7 4 -16 6q-3 1 -8.5 2.5t-7.5 1.5z" />
    <glyph glyph-name="uni0635" unicode="&#x635;" horiz-adv-x="916" 
d="M150 413v4q47 6 69 -21q23 -27 8 -66q-9 -23 -45 -68q-73 -85 -59 -176q10 -77 72 -130q58 -50 111 -42q57 7 57 85q-2 99 -80 249l116 78q45 -85 68 -162q79 97 137 137q86 60 175 47q36 -5 62.5 -25t37.5 -49q25 -66 -31 -135q-69 -87 -166 -107q-93 -20 -198 16
q0 -28 -4 -49q-13 -87 -92 -132q-71 -42 -161 -26q-94 17 -152 90q-63 80 -38 185q14 62 93 157q61 74 68 94q2 6 2 11q0 16 -18 25q-7 4 -16 6q-3 1 -8.5 2.5t-7.5 1.5zM724 257q-36 -1 -77 -39q-30 -26 -57 -66q42 -2 90 9q64 15 83 44q14 25 2 39t-41 13z" />
    <glyph glyph-name="uni0636" unicode="&#x636;" horiz-adv-x="916" 
d="M537 518q25 0 42.5 -17.5t17.5 -42.5t-17.5 -42.5t-42.5 -17.5t-42 17.5t-17 42.5t17 42.5t42 17.5zM150 413v4q47 6 69 -21q23 -27 8 -66q-9 -23 -45 -68q-73 -85 -59 -176q10 -77 72 -130q58 -50 111 -42q57 7 57 85q-2 99 -80 249l116 78q45 -85 68 -162
q79 97 137 137q86 60 175 47q36 -5 62.5 -25t37.5 -49q25 -66 -31 -135q-69 -87 -166 -107q-93 -20 -198 16q0 -28 -4 -49q-13 -87 -92 -132q-71 -42 -161 -26q-94 17 -152 90q-63 80 -38 185q14 62 93 157q61 74 68 94q2 6 2 11q0 16 -18 25q-7 4 -16 6q-3 1 -8.5 2.5
t-7.5 1.5zM724 257q-36 -1 -77 -39q-30 -26 -57 -66q42 -2 90 9q64 15 83 44q14 25 2 39t-41 13z" />
    <glyph glyph-name="uni0637" unicode="&#x637;" horiz-adv-x="732" 
d="M294 586q9 0 9 -1t-8 -3q-25 -6 -32 -53q-8 -38 0 -69q11 -57 33 -115q21 -56 19 -120q-2 -38 -5 -56q63 68 130 112q84 53 153 42q44 -6 72.5 -33.5t34.5 -67.5q13 -93 -83 -158q-89 -62 -224 -83q-140 -21 -238 8q-113 33 -124 114q-11 57 74 98q-3 -5 -5 -14
q-50 -35 -27 -78q9 -19 31 -31.5t48 -12.5q33 -1 57.5 17.5t27.5 57.5q1 35 -16 76q-5 13 -17 39q-7 13 -19 41q-47 115 -17 190q16 40 52 71q35 30 74 29zM556 213q-37 9 -88 -22q-62 -38 -90 -103q35 0 99 23q71 26 91 56q25 37 -12 46z" />
    <glyph glyph-name="uni0638" unicode="&#x638;" horiz-adv-x="732" 
d="M294 586q9 0 9 -1t-8 -3q-25 -6 -32 -53q-8 -38 0 -69q11 -57 33 -115q21 -56 19 -120q-2 -38 -5 -56q63 68 130 112q84 53 153 42q44 -6 72.5 -33.5t34.5 -67.5q13 -93 -83 -158q-89 -62 -224 -83q-140 -21 -238 8q-113 33 -124 114q-11 57 74 98q-3 -5 -5 -14
q-50 -35 -27 -78q9 -19 31 -31.5t48 -12.5q33 -1 57.5 17.5t27.5 57.5q1 35 -16 76q-5 13 -17 39q-7 13 -19 41q-47 115 -17 190q16 40 52 71q35 30 74 29zM428 518q25 0 42.5 -17.5t17.5 -42.5t-17.5 -42.5t-42.5 -17.5t-42.5 17.5t-17.5 42.5t17.5 42.5t42.5 17.5z
M556 213q-37 9 -88 -22q-62 -38 -90 -103q35 0 99 23q71 26 91 56q25 37 -12 46z" />
    <glyph glyph-name="uni0639" unicode="&#x639;" horiz-adv-x="648" 
d="M222 417q83 25 146 -9q71 -37 69 -97q-1 -55 -54 -79q-46 -21 -96 -7q-23 6 -37 20t-14 32q0 19 12.5 32t31.5 13q18 0 31 -13t13 -32q0 -8 -5 -21q36 0 51.5 20t5.5 46t-42.5 40.5t-80.5 5.5q-54 -11 -80.5 -41t-21.5 -66t39.5 -64.5t92.5 -34.5q61 -6 140 7q51 9 70 13
q21 5 70 11q-7 -22 -19 -66q-3 -9 -9.5 -32t-10.5 -35q-15 1 -50 1q-56 0 -110 -6q-4 -1 -22 -3.5t-27 -4.5q-80 -15 -129 -47q-62 -41 -58 -106q4 -77 85 -115q70 -34 172 -27q98 6 160 45q86 52 21 105l-2 8q55 -26 53 -67q-1 -84 -110 -135q-89 -42 -185 -44
q-118 -5 -207 51q-103 64 -82 181q12 66 54 113q36 41 98 73q-56 15 -92.5 46.5t-42.5 75.5q-7 66 45 128q51 60 127 85z" />
    <glyph glyph-name="uni063A" unicode="&#x63a;" horiz-adv-x="648" 
d="M229 613q25 0 42.5 -17.5t17.5 -42.5t-17.5 -42.5t-42.5 -17.5t-42 17.5t-17 42.5t17 42.5t42 17.5zM222 417q83 25 146 -9q71 -37 69 -97q-1 -55 -54 -79q-46 -21 -96 -7q-23 6 -37 20t-14 32q0 19 12.5 32t31.5 13q18 0 31 -13t13 -32q0 -8 -5 -21q36 0 51.5 20t5.5 46
t-42.5 40.5t-80.5 5.5q-54 -11 -80.5 -41t-21.5 -66t39.5 -64.5t92.5 -34.5q61 -6 140 7q51 9 70 13q21 5 70 11q-7 -22 -19 -66q-3 -9 -9.5 -32t-10.5 -35q-15 1 -50 1q-56 0 -110 -6q-4 -1 -22 -3.5t-27 -4.5q-80 -15 -129 -47q-62 -41 -58 -106q4 -77 85 -115
q70 -34 172 -27q98 6 160 45q86 52 21 105l-2 8q55 -26 53 -67q-1 -84 -110 -135q-89 -42 -185 -44q-118 -5 -207 51q-103 64 -82 181q12 66 54 113q36 41 98 73q-56 15 -92.5 46.5t-42.5 75.5q-7 66 45 128q51 60 127 85z" />
    <glyph glyph-name="uni0640" unicode="&#x640;" horiz-adv-x="101" 
d="M0 83h101q11 0 18 -12t7 -30t-7 -29.5t-18 -11.5h-101q-11 0 -18 11.5t-7 29.5t7 30t18 12z" />
    <glyph glyph-name="uni0641" unicode="&#x641;" horiz-adv-x="795" 
d="M556 613q25 0 42.5 -17.5t17.5 -42.5t-17.5 -42.5t-42.5 -17.5t-42.5 17.5t-17.5 42.5t17.5 42.5t42.5 17.5zM680 409q32 -25 54 -68t28 -91q14 -113 -59 -173q-61 -50 -199 -70q-137 -19 -264 5q-135 27 -187 115q-23 38 -22.5 76t23.5 66q54 64 174 36q70 -17 116 -15
q70 4 50 68q-2 10 -2 16v11q22 -16 33 -46.5t0 -50.5q-21 -41 -96 -39q-44 2 -65 4q-52 5 -72 -9q-40 -30 7 -82q42 -47 151 -59q123 -13 211 9q43 10 62 29q-82 8 -104 15q-42 14 -53 62q-12 48 6 97.5t57 83.5q74 67 151 10zM571 335q-15 0 -19.5 -17t4.5 -41
q9 -21 36 -33q10 -5 50 -12q-19 59 -37 80q-20 23 -34 23z" />
    <glyph glyph-name="uni0642" unicode="&#x642;" horiz-adv-x="603" 
d="M250 663q25 0 42.5 -17.5t17.5 -42.5t-17.5 -42t-42.5 -17t-42.5 17t-17.5 42t17.5 42.5t42.5 17.5zM384 613q25 0 42.5 -17.5t17.5 -42.5t-17.5 -42.5t-42.5 -17.5t-42.5 17.5t-17.5 42.5t17.5 42.5t42.5 17.5zM134 485q57 14 85 -19q22 -26 8 -66q-9 -23 -45 -68
q-46 -55 -58 -117t10 -110q21 -53 69 -86.5t113 -37.5q50 -3 87.5 18.5t49.5 67.5q8 31 4 65q-61 -7 -116 11q-70 23 -82 75q-12 48 6 97.5t57 83.5q69 61 135 18q77 -51 104 -167q25 -108 -3 -198q-33 -101 -130 -141q-88 -36 -192 -10q-102 25 -161 100q-63 80 -38 185
q15 63 93 158q4 5 12.5 15t12 14.5t10.5 13t10.5 13t8.5 11.5t7 11t4.5 9.5t3.5 9.5t1 7q-1 11 -15 19q-13 6 -46 4q-3 5 -5 14zM358 334q-15 -8 -13 -35q0 -13 4 -22q15 -34 86 -45v1q-1 1 -8 29q-10 34 -27 55q-10 11 -22.5 16t-19.5 1z" />
    <glyph glyph-name="uni0643" unicode="&#x643;" horiz-adv-x="784" 
d="M713 586q9 0 9 -1t-8 -3q-25 -7 -33 -52q-6 -38 0 -70q10 -59 47 -150q26 -61 25 -123q-2 -68 -50 -111q-60 -49 -200 -69q-137 -19 -264 5q-130 27 -183 110q-24 35 -25.5 73t17.5 66q42 66 152 49q15 -1 29 -6q28 -9 49 -4q12 3 28 14q4 -31 -37 -51q-22 -11 -65 -14
q-29 -2 -35.5 -19t10.5 -39q40 -55 136 -82q117 -34 257 6q78 22 73 75q-3 25 -16 50q-42 89 -52 150q-8 50 10 96q16 40 52 71q35 30 74 29zM499 403q16 -4 16 -23q0 -11 -7 -17.5t-17 -6.5q-24 0 -25 23q-22 2 -40 -11q-20 -15 -4 -31q13 -12 36 -14q6 -1 18 -1q6 0 18 -2
q22 -5 32 -25.5t2 -41.5q-8 -24 -35.5 -37t-72.5 -5q-24 3 -37 7q-34 6 -60 -6q-13 -8 -30 -24q20 51 62 58q17 2 36 0q20 -2 37.5 4.5t11.5 17.5q-8 13 -32 14q-33 3 -48 13t-13 36q1 39 61 63q54 22 91 9z" />
    <glyph glyph-name="uni0644" unicode="&#x644;" horiz-adv-x="475" 
d="M353 587q9 -1 9 -2t-8 -3q-25 -7 -33 -52q-6 -38 0 -70q10 -48 31 -102q61 -168 80 -241q33 -132 -19 -199q-56 -74 -159 -80q-104 -8 -172 66q-32 34 -43 80.5t-4 83.5q9 45 43 119q26 56 3 75q-13 10 -50 10l-1 5q63 20 81 -10q14 -25 0 -85q-4 -21 -11 -43
q-13 -44 -2 -86q7 -29 30 -61.5t59 -53.5q40 -22 85 -21q61 2 57 84q-3 64 -41 173l-32 86q-35 93 -39 158q-5 56 32 107q28 37 65 55q22 8 39 7z" />
    <glyph glyph-name="uni0645" unicode="&#x645;" horiz-adv-x="704" 
d="M597 384q-38 -33 -4 -63q16 -14 35 -29q49 -37 46 -112q-3 -91 -66 -145q-55 -48 -134 -30q-59 14 -87 60q-14 24 -13 50q-14 -30 -24 -62q-29 -85 -57 -135q-37 -68 -97 -89q-32 -11 -68.5 -6t-56.5 22q-40 34 -40 85q-2 49 38 73q19 11 44.5 7t35.5 -18q19 -32 -6 -58
q-12 -13 -31 -13q-20 0 -32 14q-3 -23 8 -33t30 -8q43 4 73 42q40 51 83 164q2 4 10.5 27t12 30.5t11.5 27t14 31t15 27.5t19 30q45 66 93 89q53 26 148 22zM463 234q8 -45 31 -86q32 -61 66 -39q10 6 11.5 23.5t-9.5 38.5q-28 51 -99 63z" />
    <glyph glyph-name="uni0646" unicode="&#x646;" horiz-adv-x="515" 
d="M150 413v5q46 6 69 -21q23 -28 8 -67q-9 -23 -45 -68q-73 -85 -59 -175q10 -77 72 -130q58 -50 111 -42q57 7 57 85q-2 96 -80 249l116 77q49 -96 67 -159q26 -92 14 -167q-13 -88 -92 -133q-71 -41 -161 -25q-95 17 -152 89q-63 80 -38 186q14 62 93 157q4 5 12.5 15
t12 14.5t10.5 13t10.5 13t8.5 11.5t7 11t4.5 9.5t3.5 9.5t1 7q0 16 -18 25q-7 4 -16 6q-3 1 -8.5 2.5t-7.5 1.5zM232 177q25 0 42.5 -17.5t17.5 -42.5t-17.5 -42.5t-42.5 -17.5t-42.5 17.5t-17.5 42.5t17.5 42.5t42.5 17.5z" />
    <glyph glyph-name="uni0647" unicode="&#x647;" horiz-adv-x="391" 
d="M297 397q-1 -3 -1 -11t-1 -11q-55 -17 -65 -39q-11 -23 13 -50q27 -33 73 -68q33 -28 41 -61q13 -69 -24 -116q-34 -42 -99 -61q-111 -33 -174 31q-27 28 -29.5 65t22.5 74q17 26 69 60q-14 35 -2.5 67.5t43.5 60.5q29 26 66 42.5t68 16.5zM158 170q0 -53 11 -82
q12 -39 51 -65q15 64 2 86q-6 11 -23 26q-8 6 -41 35z" />
    <glyph glyph-name="uni0648" unicode="&#x648;" horiz-adv-x="389" 
d="M171 331q41 5 128 -27q-20 -20 -17 -53q2 -17 20 -64q53 -126 56 -187q6 -107 -55 -159q-57 -49 -146 -24q-40 11 -93 55q-44 37 -64 36q-8 0 -10.5 3t0 7.5t9.5 9.5q27 18 54 -4q33 -28 60 -39.5t62 -5.5q57 11 65 109q-44 -31 -81.5 -28t-70.5 33q-30 26 -50 68t-23 82
q-6 71 37 125q44 56 119 63zM152 235q-30 -56 -27 -96q3 -49 58 -59q31 30 13 77q-8 22 -21 40q-5 8 -23 38z" />
    <glyph glyph-name="uni0649" unicode="&#x649;" horiz-adv-x="590" 
d="M79 431q65 15 80 -37q14 -45 -6 -114q-5 -20 -19 -60q-25 -66 -30 -114q-9 -68 45 -121q59 -60 154 -80q104 -23 154 16q27 20 31 45t-18 47q-6 6 -14 10.5t-18 7.5t-18 5t-21 4t-19.5 2.5t-20.5 1.5t-17 1q-100 8 -133 48q-51 60 -18 148q33 87 120 122q45 16 85 9.5
t64 -26.5q22 -19 22 -49q0 -19 -13 -32t-32 -13q-18 0 -31 13t-13 32q0 17 12 30q-55 0 -101 -33q-47 -34 -47 -76q0 -22 15.5 -33t45.5 -17q35 -6 60 -7q96 -9 136 -48q29 -28 41 -74t-3 -100q-37 -106 -160 -139q-127 -34 -239 35q-57 34 -96 101q-31 53 -25 123
q4 33 44 140q41 107 47 149q10 72 -44 83z" />
    <glyph glyph-name="uni064A" unicode="&#x64a;" horiz-adv-x="590" 
d="M79 431q65 15 80 -37q14 -45 -6 -114q-5 -20 -19 -60q-25 -66 -30 -114q-9 -68 45 -121q59 -60 154 -80q104 -23 154 16q27 20 31 45t-18 47q-6 6 -14 10.5t-18 7.5t-18 5t-21 4t-19.5 2.5t-20.5 1.5t-17 1q-100 8 -133 48q-51 60 -18 148q33 87 120 122q45 16 85 9.5
t64 -26.5q22 -19 22 -49q0 -19 -13 -32t-32 -13q-18 0 -31 13t-13 32q0 17 12 30q-55 0 -101 -33q-47 -34 -47 -76q0 -22 15.5 -33t45.5 -17q35 -6 60 -7q96 -9 136 -48q29 -28 41 -74t-3 -100q-37 -106 -160 -139q-127 -34 -239 35q-57 34 -96 101q-31 53 -25 123
q4 33 44 140q41 107 47 149q10 72 -44 83zM368 -262q22 12 45.5 5t35.5 -29q12 -21 5.5 -45t-28.5 -36t-45.5 -5t-35.5 28q-12 22 -5.5 46t28.5 36zM226 -283q22 12 46 5t36 -29q12 -21 5 -45t-29 -36q-21 -12 -45 -5t-36 28q-12 22 -5.5 46t28.5 36z" />
    <glyph glyph-name="uni064B" unicode="&#x64b;" 
d="M120 343l10 -7q-8 -36 -12 -50q-7 -34 -37 -46q-14 -7 -135 -46l-28 -9q-19 -6 -31 -22q-5 -6 -17 -25l-4 13l9 38q6 25 26 34q18 8 35 13q133 43 148 53q21 14 36 54zM120 208l10 -7q-8 -36 -12 -50q-7 -34 -37 -46q-14 -7 -135 -46l-28 -9q-19 -6 -31 -22
q-5 -6 -17 -25l-4 13l9 38q6 25 26 34q18 8 35 13q133 43 148 53q21 14 36 54z" />
    <glyph glyph-name="uni064C" unicode="&#x64c;" 
d="M-19 84l-30 -6q-79 -17 -100 36q-19 49 22 113q50 79 147 100q43 9 90 4l-19 -16q-109 7 -170 -61q-46 -52 -32 -105q14 -55 85 -64q4 -1 7 -1zM124 233q20 -55 -21 -113q-36 -49 -106 -83q-63 -32 -120 -37l-16 8q53 18 97 39q62 31 100 66q44 39 37 81q-3 13 -12.5 18
t-24.5 -5q32 -16 21 -33q-18 -38 -42 -17q-19 19 -18.5 38t14.5 36q25 30 53 31t38 -29z" />
    <glyph glyph-name="uni064D" unicode="&#x64d;" 
d="M120 16l10 -7q-8 -36 -12 -50q-7 -34 -37 -46q-14 -7 -135 -46l-28 -9q-19 -6 -31 -22q-5 -6 -17 -25l-4 13l9 38q6 25 26 34q18 8 35 13q133 43 148 53q21 14 36 54zM120 -119l10 -7q-8 -36 -12 -50q-7 -34 -37 -46q-14 -7 -135 -46l-28 -9q-19 -6 -31 -22
q-5 -6 -17 -25l-4 13l9 38q6 25 26 34q18 8 35 13q133 43 148 53q21 14 36 54z" />
    <glyph glyph-name="uni064E" unicode="&#x64e;" 
d="M120 206l10 -7q-8 -36 -12 -50q-7 -34 -37 -46q-14 -7 -135 -46l-28 -9q-19 -6 -31 -22q-5 -6 -17 -25l-4 13l9 38q6 25 26 34q18 8 35 13q133 43 148 53q21 14 36 54z" />
    <glyph glyph-name="uni064F" unicode="&#x64f;" 
d="M124 233q20 -55 -21 -113q-36 -49 -106 -83q-63 -32 -120 -37l-16 8q53 18 97 39q62 31 100 66q44 39 37 81q-3 13 -12.5 18t-24.5 -5q32 -16 21 -33q-18 -38 -42 -17q-19 19 -18.5 38t14.5 36q25 30 53 31t38 -29z" />
    <glyph glyph-name="uni0650" unicode="&#x650;" 
d="M120 12l10 -7q-8 -36 -12 -50q-7 -34 -37 -46q-14 -7 -135 -46l-28 -9q-19 -6 -31 -22q-5 -6 -17 -25l-4 13l9 38q6 25 26 34q18 8 35 13q133 43 148 53q21 14 36 54z" />
    <glyph glyph-name="uni0651" unicode="&#x651;" 
d="M73 169q9 0 15 -13q4 -11 5 -14q18 -47 13 -71q-17 -87 -83 -38q-28 -33 -58 -33q-33 0 -39 44q-2 10 7 44q-18 -11 -30 -4t-13 23q0 39 28 41q34 4 40 -37q2 -16 1 -24q-3 -24 9 -32q20 -14 30 0q8 9 -4 48q-1 3 -7 18l16 16q2 3 6.5 8t7.5 8q14 -12 17 -33
q4 -26 11 -37q13 -22 27 -20q4 1 5 8q0 13 -20 44q-9 15 -4 27q3 7 9.5 16.5t10.5 10.5z" />
    <glyph glyph-name="uni0652" unicode="&#x652;" 
d="M-39 212q30 13 43 -9q12 -22 1 -52q18 -15 28 -21q23 -19 27 -33q2 -9 0 -23q-5 -36 -28.5 -58t-53.5 -16q-46 10 -30 67q6 24 18 47q9 16 19 39q-27 -2 -39 21q-13 23 15 38zM-16 107l-8 -21q-11 -29 15 -41q23 -11 35 3q5 7 1 17q-5 11 -26 28z" />
    <glyph glyph-name="uni0653" unicode="&#x653;" 
d="M40 70l67 -33q-34 -23 -87 -14l-37 6q-36 6 -60 -5q-13 -8 -30 -24q20 51 61 58q16 2 36 0q19 -2 36 4q11 3 14 8z" />
    <glyph glyph-name="uni0654" unicode="&#x654;" 
d="M84 215q16 -4 16 -23q0 -11 -7 -17.5t-17 -6.5q-24 0 -25 23q-22 2 -40 -11q-22 -15 -4 -31q13 -12 36 -14q6 -1 18 -1q6 0 18 -2q22 -5 32 -25.5t2 -41.5q-8 -24 -35.5 -37t-72.5 -5q-24 3 -38 7q-34 6 -60 -6q-13 -8 -30 -24q20 51 62 58q17 2 36 0q20 -2 38 4.5
t12 17.5q-8 13 -33 14q-33 3 -48 13t-13 36q1 39 61 63q55 22 92 9z" />
    <glyph glyph-name="uni0655" unicode="&#x655;" 
d="M84 -34q16 -4 16 -23q0 -11 -7 -17.5t-17 -6.5q-24 0 -25 23q-22 2 -40 -11q-22 -15 -4 -31q13 -12 36 -14q6 -1 18 -1q6 0 18 -2q22 -5 32 -25.5t2 -41.5q-8 -24 -35.5 -37t-72.5 -5q-24 3 -38 7q-34 6 -60 -6q-13 -7 -30 -24q20 51 62 58q17 1 36 0q20 -2 38 4.5
t12 17.5q-8 13 -33 14q-33 3 -48 13t-13 36q1 39 61 63q55 22 92 9z" />
    <glyph glyph-name="uni0660" unicode="&#x660;" horiz-adv-x="431" 
d="M181 467q-91 0 -129 -74q-34 -65 -16 -162q19 -97 74 -162q60 -75 139 -75q94 0 130 75q35 65 15 162q-19 95 -74 162q-61 74 -139 74zM240 15q-14 3 -26 22q-24 40 -41 123q-18 84 -19 161q-2 81 16 113q9 17 23 14.5t27 -22.5q9 -15 23 -52q19 -57 31 -151
q11 -86 3 -147q-3 -30 -12.5 -46.5t-24.5 -14.5z" />
    <glyph glyph-name="uni0661" unicode="&#x661;" horiz-adv-x="332" 
d="M302 84q2 -93 -56 -101q-31 -6 -86 20q12 3 15 29q5 42 -11 156q-14 119 -7 190q5 45 23 70q-26 -23 -38 -77q-10 -54 -26 -64q-24 -15 -86 26q11 6 18 17q15 16 28 35q41 56 76 79q53 37 99 19q-11 -6 -10 -35q1 -39 31 -168q27 -116 30 -196z" />
    <glyph glyph-name="uni0662" unicode="&#x662;" horiz-adv-x="474" 
d="M418 79q1 -7 -5 -11t-17 -4q-32 0 -134 13q-43 5 -76 2q28 20 52 33q36 19 67 47q85 72 86 160q0 71 -63 121q-61 48 -144 48q-99 0 -135 -63q-32 -51 -12 -130q18 -72 66 -104q52 -36 102 12q-9 1 -21 21q-16 34 -20 50q-24 73 -21 128q2 68 44 68q60 0 65 -86
q2 -84 -32 -173q-37 -102 -81 -142q-39 -20 -30 -72q2 10 22 10q31 -2 118 -25q33 -10 71 -18q81 -16 110 4q34 25 -12 111z" />
    <glyph glyph-name="uni0663" unicode="&#x663;" horiz-adv-x="458" 
d="M203 241q39 0 73 -67q28 -63 20 -122q-11 -64 -67 -57q-37 4 -47 54q-10 41 0 91q5 49 21 54q-35 28 -60 34q-55 12 -77 -36q-22 -46 0 -106q10 -27 32 -53q55 -55 143 -55t140 29q57 36 44 103q-14 66 -83 108q-51 32 -111 41l110 119q35 21 25 69q-1 -9 -22 -9
q-35 3 -117 26q-14 4 -41 9.5t-30 6.5q-83 16 -111 -2q-34 -26 11 -113q1 15 26 16q10 0 62 -4q115 -16 156 -12l-102 -106q-7 -2 -8.5 -6.5t2.5 -8t11 -3.5z" />
    <glyph glyph-name="uni0664" unicode="&#x664;" horiz-adv-x="385" 
d="M353 203q4 -37 -2 -53q-8 -16 -22 -17q9 -97 -17 -130q-33 -43 -123 0q16 4 18 49q0 32 -9 108q-39 2 -67 -18q-32 -35 -101 21q5 1 14 18q14 31 18 42q35 85 52 119q32 71 71 110q49 45 96 31q-11 -7 -11 -32q2 -35 28 -156q3 -11 21 -97q28 0 34 5zM185 332
q2 80 24 113q-29 -28 -39 -106q-1 -8 -2.5 -24t-2.5 -24q-3 -52 -12 -92q-5 -22 -10 -35q21 18 52 24q-11 90 -10 144z" />
    <glyph glyph-name="uni0665" unicode="&#x665;" horiz-adv-x="421" 
d="M169 269q-39 0 -70 -7q-11 82 8 137l60 -16q78 -23 121 -23q24 0 38 12q28 27 -18 111q0 -15 -22 -15q-17 -1 -56 4q-101 16 -140 11q-73 -10 -57 -82q3 15 48 5q-11 -32 -11 -86q2 -54 7 -86q4 1 15.5 5t19.5 6q23 5 55 5q40 0 73 -69t28 -126q-3 -31 -17 -47.5
t-42 -12.5q-38 4 -47 50q-9 42 2 86q7 45 24 52q-36 28 -62 34q-56 13 -77 -33q-24 -42 -3 -101q9 -25 33 -52q53 -53 142 -53q85 0 131 29q49 35 37 103q-9 51 -53 93q-41 34 -89 52q-47 14 -78 14z" />
    <glyph glyph-name="uni0666" unicode="&#x666;" horiz-adv-x="412" 
d="M161 250q3 60 24 127q24 63 57 84q9 7 6.5 11t-13.5 2q-116 -8 -169 -88q-47 -72 -33 -167q13 -92 68 -162q61 -74 135 -74q102 0 135 67q26 56 -8 131q-34 72 -90 99q-62 29 -112 -30zM232 2q-36 0 -56 69q-21 71 -15 154q25 35 50 9q19 -21 36 -82q12 -54 9 -101
q-3 -49 -24 -49z" />
    <glyph glyph-name="uni0667" unicode="&#x667;" horiz-adv-x="375" 
d="M134 179q4 7 25 1l44 -11q-6 -8 -23 -29t-24 -30t-15.5 -23.5t-12.5 -26.5q-16 -52 60 -96q-13 19 4 80q7 21 52 119q36 -2 55 19q22 26 21 84q-9 -23 -38 -25q41 88 53 130q18 65 1 93q-4 -5 -28 -2q-5 1 -15 2t-19.5 2t-18.5 3q-94 16 -133 16q-72 0 -88 -35
q-19 -47 52 -146q-23 53 24 65q25 4 112 0q72 -5 94 15q-10 -35 -20 -60q-15 -38 -40 -81q-9 1 -27 4.5t-22 4.5q-28 7 -44 4q-46 -5 -29 -77z" />
    <glyph glyph-name="uni0668" unicode="&#x668;" horiz-adv-x="417" 
d="M151 472q-57 -12 -88 -41.5t-33 -68.5q-1 -39 24.5 -78.5t74.5 -71.5q-43 -4 -65 -22t-24 -45q-8 -51 46 -102q60 -55 132 -55q107 0 148 47q38 44 8 107q-32 65 -123 118q72 23 86 85q15 63 -32 104q-54 47 -154 23zM170 460q31 3 51 -35q12 -29 16 -79q2 -44 -8 -73
l-3 1q-3 1 -4 2q-67 33 -90 79q-24 37 -10 71q11 31 48 34zM252 17q-42 -4 -71 28q-26 28 -33 75q-5 46 11 76q99 -56 123 -117q9 -25 0 -42t-30 -20z" />
    <glyph glyph-name="uni0669" unicode="&#x669;" horiz-adv-x="393" 
d="M231 214q-17 -99 -78 -217q-4 -8 0.5 -11.5t12.5 1.5q142 88 185 216q33 113 -17 199q-24 40 -64.5 63t-89.5 23q-101 0 -135 -76q-30 -61 -3 -148q29 -84 81 -106q60 -25 108 56zM184 470q33 0 49 -59q14 -51 7 -131q-5 -30 -18 -49t-26 -19t-22 19q-9 16 -17 48
q-15 73 -10 124q7 67 37 67z" />
    <glyph glyph-name="uni066A" unicode="&#x66a;" horiz-adv-x="516" 
d="M173 484q-87 0 -124 -54q-35 -51 -8 -102q28 -54 98 -54q78 0 111 54q28 49 6 102q-24 54 -83 54zM133 294q-5 1 -8 15q-2 29 9 75q15 53 30 71q8 12 15 11t8 -15q2 -31 -10 -74q-10 -50 -27 -73q-11 -11 -17 -10zM116 7q25 -33 61 -1q29 27 66 105q20 41 61 152
q11 25 29 73q26 71 43 104q8 15 14 15q-19 13 -42 2q-36 -23 -77 -116q-33 -78 -70 -181q-41 -111 -59 -136q-13 -21 -26 -17zM344 -17q87 0 125 54q32 49 9 102q-27 55 -97 55q-78 0 -112 -55q-30 -51 -6 -102q21 -54 81 -54zM386 174q6 -1 7 -14q0 -32 -9 -77
q-14 -50 -31 -71q-5 -8 -10.5 -10.5t-8.5 1.5t-3 13q-2 28 9 74q13 52 29 74q9 10 17 10z" />
    <glyph glyph-name="uni066D" unicode="&#x66d;" horiz-adv-x="432" 
d="M305 314q9 -14 -18 -58q-22 -41 -55 -74q10 18 27 67q14 41 17 77q-39 8 -62 3q-45 -12 -48 -56q-3 -36 10 -80q9 -26 9 -28q-28 31 -50 82q-21 57 -17 86q-87 -71 -78 -120q12 -47 112 -56q-61 -13 -89 -34q-62 -42 -11 -83q27 -22 69 -30q-5 7 1 24q13 36 44 77
q19 25 32 35q-14 -33 -27 -67q-16 -46 -16 -73q58 -12 85 6q23 16 25 54q3 30 -8 64q27 -30 45 -63l10 -29q2 -12 -6 -20q58 43 79 70q44 51 -27 66q-43 9 -92 12q62 12 95 33q31 20 34 42.5t-21 42.5q-19 17 -69 30z" />
    <glyph glyph-name="uni066E" unicode="&#x66e;" horiz-adv-x="780" 
d="M465 375v11q21 -15 31.5 -40.5t5.5 -46.5q-9 -38 -61 -45q-44 -7 -100 0q-55 5 -83 4q-45 -2 -67 -25q-11 -11 -13 -31q-4 -59 105 -92q95 -29 207 -24q115 5 134 42q7 13 -8 44q-18 33 -40 78q51 36 116 77q9 -18 23 -39q22 -38 30 -67q4 -15 4 -37q0 -63 -51 -106
q-72 -59 -234 -74q-170 -15 -292 27q-142 47 -141 154q1 92 98 121q76 22 171 0q3 -1 15 -3t19 -4q43 -9 82 -8q43 2 53 29q5 15 -2 39q-2 10 -2 16z" />
    <glyph glyph-name="uni0670" unicode="&#x670;" 
d="M-34 168l28 41q32 -57 37 -102q4 -48 -25 -107l-5 6q7 43 -4 84q-8 27 -31 78z" />
    <glyph glyph-name="uni0671" unicode="&#x671;" horiz-adv-x="221" 
d="M73 847l1 -1q-10 -3 -12.5 -19t1.5 -25q3 -19 11 -41q6 -14 6 -43q0 -3 -0.5 -10t-1.5 -10q24 24 48 40q31 19 54 15q33 -5 38 -37q7 -43 -52 -69q-53 -25 -116 -18q-65 5 -71 45q-3 21 26 35v-2q-1 -1 -1 -3q-18 -12 -10 -27q7 -16 28 -16q27 -2 31 26q2 14 -6 28
q-7 12 -12 28q-19 34 -7 68q6 15 18.5 26t26.5 10zM153 713q-34 -9 -50 -44q14 0 36 8q25 9 32 20q6 10 0 14.5t-18 1.5zM161 586q9 0 9 -1t-8 -3q-25 -6 -32 -53q-7 -36 -1 -69q14 -71 48 -150q38 -91 11 -177q-23 -73 -100 -150l-6 8q43 81 28 154q-8 35 -24 71
q-50 115 -60 174q-9 50 9 96q16 40 52 71q35 30 74 29z" />
    <glyph glyph-name="uni0679" unicode="&#x679;" horiz-adv-x="780" 
d="M437 641l1 -1q-10 -3 -12.5 -19t1.5 -25q3 -19 11 -41q6 -14 6 -43q0 -3 -0.5 -10t-1.5 -10q24 24 48 40q31 19 54 15q33 -5 38 -37q7 -43 -52 -69q-53 -25 -116 -18q-65 5 -71 45q-3 21 26 35v-2q-1 -1 -1 -3q-18 -12 -10 -27q7 -16 28 -16q27 -2 31 26q2 14 -6 28
q-7 12 -12 28q-19 34 -7 68q6 15 18.5 26t26.5 10zM517 507q-34 -9 -50 -44q14 0 36 8q25 9 32 20q6 10 0 14.5t-18 1.5zM465 375v11q21 -15 31.5 -40.5t5.5 -46.5q-9 -38 -61 -45q-44 -7 -100 0q-55 5 -83 4q-45 -2 -67 -25q-11 -11 -13 -31q-4 -59 105 -92q95 -29 207 -24
q115 5 134 42q7 13 -8 44q-18 33 -40 78q51 36 116 77q9 -18 23 -39q22 -38 30 -67q4 -15 4 -37q0 -63 -51 -106q-72 -59 -234 -74q-170 -15 -292 27q-142 47 -141 154q1 92 98 121q76 22 171 0q3 -1 15 -3t19 -4q43 -9 82 -8q43 2 53 29q5 15 -2 39q-2 10 -2 16z" />
    <glyph glyph-name="uni067E" unicode="&#x67e;" horiz-adv-x="780" 
d="M465 375v11q21 -15 31.5 -40.5t5.5 -46.5q-9 -38 -61 -45q-44 -7 -100 0q-55 5 -83 4q-45 -2 -67 -25q-11 -11 -13 -31q-4 -59 105 -92q95 -29 207 -24q115 5 134 42q7 13 -8 44q-18 33 -40 78q51 36 116 77q9 -18 23 -39q22 -38 30 -67q4 -15 4 -37q0 -63 -51 -106
q-72 -59 -234 -74q-170 -15 -292 27q-142 47 -141 154q1 92 98 121q76 22 171 0q3 -1 15 -3t19 -4q43 -9 82 -8q43 2 53 29q5 15 -2 39q-2 10 -2 16zM474 -59q25 0 42.5 -17t17.5 -42t-17.5 -42.5t-42.5 -17.5t-42.5 17.5t-17.5 42.5t17.5 42t42.5 17zM335 -84
q25 0 42.5 -17t17.5 -42t-17.5 -42.5t-42.5 -17.5t-42.5 17.5t-17.5 42.5t17.5 42t42.5 17zM433 -209q25 0 42.5 -17.5t17.5 -42.5t-17.5 -42t-42.5 -17t-42.5 17t-17.5 42t17.5 42.5t42.5 17.5z" />
    <glyph glyph-name="uni0686" unicode="&#x686;" horiz-adv-x="770" 
d="M181 382q57 26 117 -3q38 -18 114 -74q74 -55 166 -85q63 -21 162 -30l-56 -57q-10 -10 -28 -28.5t-28 -28.5q-100 29 -160 36q-75 9 -152 -7q-80 -14 -129 -47q-63 -42 -59 -106q4 -77 85 -115q70 -34 173 -27q97 6 160 44q39 24 46 50q8 30 -25 56l-2 8q54 -26 52 -67
q-1 -84 -110 -135q-91 -43 -185 -45q-77 -2 -142 21q-77 27 -115 76q-45 56 -32 136q18 108 125 171q82 48 209 72q-44 30 -46 32q-59 40 -112 50q-29 5 -54 -7t-35 -35t6 -39v4q0 17 12.5 29.5t29.5 12.5t29.5 -12.5t12.5 -29.5q0 -15 -12.5 -29t-27.5 -17q-51 -10 -75 21
q-32 41 -9 100q13 31 39.5 61.5t55.5 43.5zM404 81q25 0 42.5 -17t17.5 -42t-17.5 -42.5t-42.5 -17.5t-42.5 17.5t-17.5 42.5t17.5 42t42.5 17zM265 56q25 0 42.5 -17t17.5 -42t-17.5 -42.5t-42.5 -17.5t-42.5 17.5t-17.5 42.5t17.5 42t42.5 17zM355 -52q25 0 42.5 -17.5
t17.5 -42.5t-17.5 -42t-42.5 -17t-42.5 17t-17.5 42t17.5 42.5t42.5 17.5z" />
    <glyph glyph-name="uni0688" unicode="&#x688;" horiz-adv-x="448" 
d="M125 641l1 -1q-10 -3 -12.5 -19t1.5 -25q3 -19 11 -41q6 -14 6 -43q0 -3 -0.5 -10t-1.5 -10q24 24 48 40q31 19 54 15q33 -5 38 -37q7 -43 -52 -69q-53 -25 -116 -18q-65 5 -71 45q-3 21 26 35v-2q-1 -1 -1 -3q-18 -12 -10 -27q7 -16 28 -16q27 -2 31 26q2 14 -6 28
q-7 12 -12 28q-19 34 -7 68q6 15 18.5 26t26.5 10zM205 507q-34 -9 -50 -44q14 0 36 8q25 9 32 20q6 10 0 14.5t-18 1.5zM81 327q-5 -34 12 -51q15 -15 42 -17q37 -3 65 1q11 2 31 4.5t30 3.5q128 20 153 -76q13 -50 -19 -90q-32 -41 -106 -71q-71 -28 -140 -30
q-70 -1 -94 46q-13 25 -23 112l8 2q1 1 3.5 1.5t3.5 0.5q39 -36 135 -27q94 9 123 46q22 27 -1 36q-10 3 -26 3q-31 0 -63 -5q-25 -5 -47 -4q-33 0 -63 15q-33 16 -37 52q-3 20 4 46q1 1 5 1q3 0 4 1z" />
    <glyph glyph-name="uni0691" unicode="&#x691;" horiz-adv-x="388" 
d="M169 641l1 -1q-10 -3 -12.5 -19t1.5 -25q3 -19 11 -41q6 -14 6 -43q0 -3 -0.5 -10t-1.5 -10q24 24 48 40q31 19 54 15q33 -5 38 -37q7 -43 -52 -69q-53 -25 -116 -18q-65 5 -71 45q-3 21 26 35v-2q-1 -1 -1 -3q-18 -12 -10 -27q7 -16 28 -16q27 -2 31 26q2 14 -6 28
q-7 12 -12 28q-19 34 -7 68q6 15 18.5 26t26.5 10zM249 507q-34 -9 -50 -44q14 0 36 8q25 9 32 20q6 10 0 14.5t-18 1.5zM226 332q17 -5 47 -17l26 -11q-15 -15 -17 -35t3 -37t17 -45q52 -123 55 -187q6 -108 -55 -159q-58 -50 -146 -25q-41 12 -92 56q-46 37 -64 36
q-12 0 -12 6.5t10 13.5q27 18 54 -4q33 -28 60 -39.5t63 -5.5q49 10 61 81q5 29 -24 100q-16 37 -27 61q-14 29 -27 62q-16 43 -21 72q-7 43 10 72q15 24 79 5z" />
    <glyph glyph-name="uni0698" unicode="&#x698;" horiz-adv-x="388" 
d="M151 659q25 0 42.5 -17t17.5 -42t-17.5 -42.5t-42.5 -17.5t-42.5 17.5t-17.5 42.5t17.5 42t42.5 17zM250 534q25 0 42.5 -17.5t17.5 -42.5t-17.5 -42t-42.5 -17t-42.5 17t-17.5 42t17.5 42.5t42.5 17.5zM111 509q25 0 42.5 -17.5t17.5 -42.5t-17.5 -42t-42.5 -17
t-42.5 17t-17.5 42t17.5 42.5t42.5 17.5zM226 332q17 -5 47 -17l26 -11q-15 -15 -17 -35t3 -37t17 -45q52 -123 55 -187q6 -108 -55 -159q-58 -50 -146 -25q-41 12 -92 56q-46 37 -64 36q-12 0 -12 6.5t10 13.5q27 18 54 -4q33 -28 60 -39.5t63 -5.5q49 10 61 81
q5 29 -24 100q-16 37 -27 61q-14 29 -27 62q-16 43 -21 72q-7 43 10 72q15 24 79 5z" />
    <glyph glyph-name="uni06A4" unicode="&#x6a4;" horiz-adv-x="795" 
d="M461 675q20 -15 23 -39.5t-13 -44.5q-15 -20 -39.5 -23t-44.5 13q-20 15 -22.5 39t12.5 44t39.5 23t44.5 -12zM593 601q20 -15 23 -39.5t-13 -44.5q-15 -20 -39.5 -23t-44.5 13q-20 15 -22.5 39t12.5 44t39.5 23t44.5 -12zM471 526q20 -15 23 -39.5t-13 -44.5
q-15 -20 -39.5 -23t-44.5 13q-20 15 -22.5 39.5t12.5 44.5t39.5 22.5t44.5 -12.5zM680 409q32 -25 54 -68t28 -91q14 -113 -59 -173q-61 -50 -199 -70q-137 -19 -264 5q-135 27 -187 115q-23 38 -22.5 76t23.5 66q54 64 174 36q70 -17 116 -15q70 4 50 68q-2 10 -2 16v11
q22 -16 33 -46.5t0 -50.5q-21 -41 -96 -39q-44 2 -65 4q-52 5 -72 -9q-40 -30 7 -82q42 -47 151 -59q123 -13 211 9q43 10 62 29q-82 8 -104 15q-42 14 -53 62q-12 48 6 97.5t57 83.5q74 67 151 10zM571 335q-15 0 -19.5 -17t4.5 -41q9 -21 36 -33q10 -5 50 -12
q-19 59 -37 80q-20 23 -34 23z" />
    <glyph glyph-name="uni06A9" unicode="&#x6a9;" horiz-adv-x="784" 
d="M713 586q9 0 9 -1t-8 -3q-25 -7 -33 -52q-6 -38 0 -70q10 -59 47 -150q26 -61 25 -123q-2 -68 -50 -111q-60 -49 -200 -69q-137 -19 -264 5q-130 27 -183 110q-24 35 -25.5 73t17.5 66q42 66 152 49q15 -1 29 -6q28 -9 49 -4q12 3 28 14q4 -31 -37 -51q-22 -11 -65 -14
q-29 -2 -35.5 -19t10.5 -39q40 -55 136 -82q117 -34 257 6q78 22 73 75q-3 25 -16 50q-42 89 -52 150q-8 50 10 96q16 40 52 71q35 30 74 29zM499 403q16 -4 16 -23q0 -11 -7 -17.5t-17 -6.5q-24 0 -25 23q-22 2 -40 -11q-20 -15 -4 -31q13 -12 36 -14q6 -1 18 -1q6 0 18 -2
q22 -5 32 -25.5t2 -41.5q-8 -24 -35.5 -37t-72.5 -5q-24 3 -37 7q-34 6 -60 -6q-13 -8 -30 -24q20 51 62 58q17 2 36 0q20 -2 37.5 4.5t11.5 17.5q-8 13 -32 14q-33 3 -48 13t-13 36q1 39 61 63q54 22 91 9z" />
    <glyph glyph-name="uni06AF" unicode="&#x6af;" horiz-adv-x="784" 
d="M713 586q9 0 9 -1t-8 -3q-25 -7 -33 -52q-6 -38 0 -70q10 -59 47 -150q26 -61 25 -123q-2 -68 -50 -111q-60 -49 -200 -69q-137 -19 -264 5q-130 27 -183 110q-24 35 -25.5 73t17.5 66q42 66 152 49q15 -1 29 -6q28 -9 49 -4q12 3 28 14q4 -31 -37 -51q-22 -11 -65 -14
q-29 -2 -35.5 -19t10.5 -39q40 -55 136 -82q117 -34 257 6q78 22 73 75q-3 25 -16 50q-42 89 -52 150q-8 50 10 96q16 40 52 71q35 30 74 29zM519 552q-99 -96 -197 -150q-52 -28 -99 -33l-16 4q-12 2 -17 3q42 6 95 33q36 18 92 58q47 34 98 79l22 3q3 1 11 2t11 1z
M499 403q16 -4 16 -23q0 -11 -7 -17.5t-17 -6.5q-24 0 -25 23q-22 2 -40 -11q-20 -15 -4 -31q13 -12 36 -14q6 -1 18 -1q6 0 18 -2q22 -5 32 -25.5t2 -41.5q-8 -24 -35.5 -37t-72.5 -5q-24 3 -37 7q-34 6 -60 -6q-13 -8 -30 -24q20 51 62 58q17 2 36 0q20 -2 37.5 4.5
t11.5 17.5q-8 13 -32 14q-33 3 -48 13t-13 36q1 39 61 63q54 22 91 9z" />
    <glyph glyph-name="uni06CC" unicode="&#x6cc;" horiz-adv-x="590" 
d="M79 431q65 15 80 -37q14 -45 -6 -114q-5 -20 -19 -60q-25 -66 -30 -114q-9 -68 45 -121q59 -60 154 -80q104 -23 154 16q27 20 31 45t-18 47q-6 6 -14 10.5t-18 7.5t-18 5t-21 4t-19.5 2.5t-20.5 1.5t-17 1q-100 8 -133 48q-51 60 -18 148q33 87 120 122q45 16 85 9.5
t64 -26.5q22 -19 22 -49q0 -19 -13 -32t-32 -13q-18 0 -31 13t-13 32q0 17 12 30q-55 0 -101 -33q-47 -34 -47 -76q0 -22 15.5 -33t45.5 -17q35 -6 60 -7q96 -9 136 -48q29 -28 41 -74t-3 -100q-37 -106 -160 -139q-127 -34 -239 35q-57 34 -96 101q-31 53 -25 123
q4 33 44 140q41 107 47 149q10 72 -44 83z" />
    <glyph glyph-name="uni200C" unicode="&#x200c;" horiz-adv-x="20" 
d="M18 0h-16v597h16v-597z" />
    <glyph glyph-name="uni200D" unicode="&#x200d;" horiz-adv-x="20" 
d="M60 626l-38 -38l38 -40l-11 -11l-31 31v-568h-16v568l-31 -31l-11 11l39 40l-39 38l11 12l39 -40l39 40z" />
    <glyph glyph-name="uni200E" unicode="&#x200e;" horiz-adv-x="20" 
d="M112 588l-49 -51l-12 12l32 31h-65v-580h-16v597h79l-30 29l12 12z" />
    <glyph glyph-name="uni200F" unicode="&#x200f;" horiz-adv-x="20" 
d="M-31 626l-30 -29h79v-597h-16v580h-65l32 -31l-12 -12l-49 51l49 50z" />
    <glyph glyph-name="endash" unicode="&#x2013;" horiz-adv-x="328" 
d="M33 250q-12 -50 26 -75q30 -20 93 -25q74 -2 145 10q5 31 -8 50q-26 35 -95 41q-53 6 -120 1q-17 -2 -41 -2z" />
    <glyph glyph-name="emdash" unicode="&#x2014;" horiz-adv-x="423" 
d="M32 250q-11 -51 41 -75q42 -20 125 -25q97 -2 194 10q6 42 -40 66q-42 20 -111 25q-52 5 -125 3q-76 -4 -84 -4z" />
    <glyph glyph-name="quoteleft" unicode="&#x2018;" horiz-adv-x="164" 
d="M134 357q0 27 -7 55q-9 36 -30 40q-2 2 -7 9q-7 17 -6 37q-13 9 -24.5 1.5t-18.5 -28.5q-21 -49 -4 -96q11 -36 38 -47q32 -12 59 29z" />
    <glyph glyph-name="quoteright" unicode="&#x2019;" horiz-adv-x="165" 
d="M30 464q2 -32 9 -54q9 -36 28 -41q2 -1 8 -9q5 -10 5 -36q13 -9 25 -1.5t20 27.5q19 51 3 96q-13 38 -38 47q-34 12 -60 -29z" />
    <glyph glyph-name="quotesinglbase" unicode="&#x201a;" horiz-adv-x="166" 
d="M30 96q2 -30 10 -56q12 -37 29 -40q4 -2 7 -9q5 -9 5 -36q14 -10 26 -2t20 28q18 47 2 96q-10 36 -39 47q-32 13 -60 -28z" />
    <glyph glyph-name="quotedblleft" unicode="&#x201c;" horiz-adv-x="272" 
d="M134 357q-3 38 -7 55q-11 36 -30 40q-2 2 -4 6q-1 2 -2 3q-8 15 -6 37q-28 19 -45 -27q-19 -50 -4 -96q13 -37 40 -47q30 -12 58 29zM242 357q-3 37 -8 55q-9 36 -30 40q-2 2 -4 6q-1 2 -2 3q-8 15 -5 37q-28 18 -45 -27q-20 -48 -4 -96q11 -37 39 -47q30 -12 59 29z" />
    <glyph glyph-name="quotedblright" unicode="&#x201d;" horiz-adv-x="272" 
d="M30 464q2 -32 9 -54q9 -36 28 -41q2 -1 8 -9q5 -10 5 -36q13 -9 25 -1.5t20 27.5q19 51 3 96q-13 38 -38 47q-33 12 -60 -29zM137 464q2 -32 9 -54q11 -36 28 -41q4 -2 9 -9q5 -15 4 -36q14 -9 26 -1.5t20 27.5q18 47 2 96q-11 37 -37 47q-33 12 -61 -29z" />
    <glyph glyph-name="quotedblbase" unicode="&#x201e;" horiz-adv-x="273" 
d="M30 96q2 -28 9 -56q12 -37 29 -40q4 -2 7 -9q5 -8 6 -36q13 -10 25 -2t20 28q19 49 3 96q-12 36 -40 47q-31 13 -59 -28zM137 96q2 -30 10 -56q12 -37 28 -40q5 -2 8 -9q5 -12 5 -36q26 -20 46 26q18 47 2 96q-10 36 -39 47q-32 13 -60 -28z" />
    <glyph glyph-name="dagger" unicode="&#x2020;" horiz-adv-x="249" 
d="M34 407q-12 -48 11 -71q19 -22 60 -27q4 -28 16 -86q28 -127 34 -164q15 -77 14 -110q-1 -18 -11 -19q22 -14 32 -4q21 17 15 100t-27 184q-17 84 -20 98q25 2 42 5q14 4 17 4q9 47 -18 73q-18 16 -64 22l-14 81q-4 30 1 34q-28 6 -34 -27q-7 -28 0 -89q-27 -4 -54 -4z
" />
    <glyph glyph-name="daggerdbl" unicode="&#x2021;" horiz-adv-x="299" 
d="M34 407q-11 -49 11 -71q19 -22 60 -27q4 -26 16 -82q3 -12 8.5 -39.5l8.5 -42.5q-7 0 -26.5 -1.5t-27.5 -1.5q-11 -49 13 -73q18 -20 62 -25q10 -53 11 -81q0 -32 -11 -33q31 -19 42 13q8 24 3 100q28 2 45 6l19 3q7 46 -18 72q-21 19 -61 21l-31 163q24 1 43 5
q12 4 16 4q10 49 -18 73q-18 17 -63 22q-2 9 -15 81q-3 31 1 34q-28 6 -33 -27q-8 -27 -1 -89q-27 -4 -54 -4z" />
    <glyph glyph-name="bullet" unicode="&#x2022;" horiz-adv-x="186" 
d="M31 221v-22q-2 -14 1 -27q2 -33 25 -48q25 -20 84 -12q5 18 10 32q8 38 2 67q-8 36 -46 46q-42 9 -76 -36z" />
    <glyph glyph-name="ellipsis" unicode="&#x2026;" horiz-adv-x="482" 
d="M30 106q0 -5 2 -16.5t2 -18.5q2 -47 44 -66q23 -11 67 -3q2 5 4.5 15l3.5 14q2 37 -6 65q-14 37 -48 43q-41 9 -69 -33zM179 106q0 -3 1 -9.5l2 -13t1 -12.5q4 -48 45 -66q21 -11 66 -3q5 12 7 29q5 33 -4 65q-14 36 -49 43q-41 9 -69 -33zM328 106q0 -3 1 -9.5l2 -13
t1 -12.5q4 -48 45 -66q21 -11 66 -3q5 16 8 29q4 35 -6 65q-14 37 -48 43q-40 9 -69 -33z" />
    <glyph glyph-name="perthousand" unicode="&#x2030;" horiz-adv-x="668" 
d="M172 484q-87 0 -124 -54q-33 -52 -8 -102q30 -54 99 -54q79 0 110 54q30 51 6 102q-24 54 -83 54zM132 294q-6 2 -6 15q-2 31 7 75q16 52 30 71q9 12 15.5 11t8.5 -15q2 -30 -9 -74q-12 -51 -27 -73q-11 -11 -19 -10zM115 7q27 -35 62 -1q28 26 67 105q8 16 61 152
q21 53 27 73q35 88 44 104q8 15 13 15q-19 13 -40 2q-38 -24 -77 -116q-20 -45 -71 -181q-37 -106 -60 -136q-13 -20 -26 -17zM496 -17q87 0 124 54q33 51 9 102q-27 55 -98 55q-49 0 -80 -22q-28 22 -70 22q-77 0 -112 -55q-29 -49 -6 -102q23 -54 82 -54q53 0 89 22
q27 -22 62 -22zM537 174q5 -1 6 -14q3 -29 -8 -77q-15 -50 -30 -71q-6 -8 -11.5 -10.5t-9 1.5t-3.5 13q-2 16 2 33q5 41 20 83q9 21 17.5 32t16.5 10zM387 174q3 -1 6 -14q2 -31 -9 -77q-14 -49 -30 -71q-6 -8 -11.5 -10.5t-9 1.5t-3.5 13q-1 21 11 74q8 44 28 74
q10 10 18 10z" />
    <glyph glyph-name="guilsinglleft" unicode="&#x2039;" horiz-adv-x="269" 
d="M239 86q-34 20 -80 50q-29 19 -63 47q-32 28 -45 48q39 -36 87 -38q46 0 58 29q9 35 -37 88q2 -19 -41 -38q-40 -19 -88 -21q-3 -43 48 -113q49 -66 101 -89q56 -27 60 37z" />
    <glyph glyph-name="guilsinglright" unicode="&#x203a;" horiz-adv-x="270" 
d="M30 263q9 -6 37.5 -23.5t43.5 -27.5q82 -55 107 -94q-42 37 -85 37q-47 2 -58 -29q-14 -33 36 -87q-3 17 41 38q44 20 88 20q1 43 -50 114q-21 29 -48.5 54t-50.5 36q-55 24 -61 -38z" />
    <glyph glyph-name="fraction" unicode="&#x2044;" horiz-adv-x="334" 
d="M30 -16q25 -34 61 -1q29 28 66 105q21 45 63 152q18 50 27 73q33 85 43 104q10 15 14 15q-20 15 -41 2q-38 -24 -77 -116q-34 -75 -70 -181q-43 -111 -60 -135q-14 -20 -26 -18z" />
    <glyph glyph-name="Euro" unicode="&#x20ac;" horiz-adv-x="455" 
d="M229 464q-97 4 -142 -58q-39 -56 -27 -149q-4 -1 -12 -1h-10q-25 -30 30 -40l6 -19h-15q-24 -30 31 -41q33 -74 87 -117q59 -49 128 -49q79 0 108 53q12 22 11.5 42.5t-11.5 32.5q5 -12 -1.5 -32t-20.5 -36q-33 -44 -87 -29q-64 20 -96 129h33q35 2 51 5q16 20 -15 32
q-35 11 -81 11l-1 12q9 1 28 1l48 3q15 20 -13 31q-23 9 -70 12q-6 76 9 131q15 57 48 57q23 0 30 -34q6 -34 -3 -70q-8 -37 -24 -47q91 -28 130 13q17 18 16 43t-19 49q-44 57 -146 65z" />
    <glyph glyph-name="trademark" unicode="&#x2122;" horiz-adv-x="540" 
d="M259 512q5 0 12 -21q4 -19 -7 -93q-11 -75 -6 -96q10 -45 59 -45q-11 9 -20 34q-12 39 -12 104l-3 52q9 -44 23 -92q18 -56 37 -77q28 -32 63 -18q-3 0 -8 9t-8 18q-19 65 0 140q3 -63 22 -113q19 -56 44 -56q11 0 24 8q23 19 31 43q-24 -28 -45 25q-18 54 -18 111
q0 66 26 67q-5 1 -15 5q-21 7 -26 7q-33 0 -40 -50q-26 -82 -21 -138q-1 10 -8 32q-2 5 -5.5 19.5t-6.5 22.5q-18 55 -35 78q-26 36 -57 24zM251 506q0 -12 -20 -9q-17 1 -49 8q-90 19 -115 15q-54 -11 -29 -83q3 14 19 20q23 7 94 7q20 -1 52 1q26 3 39 12.5t9 28.5z
M132 260q63 -30 72 18q4 25 -12 107q-6 24 -10 50q0 23 6 25q-40 0 -49 -48q-5 -29 2 -96q1 -16 1 -38q-2 -17 -10 -18z" />
    <glyph glyph-name="minus" unicode="&#x2212;" horiz-adv-x="328" 
d="M33 250q-13 -50 27 -75q29 -20 91 -25q74 -2 146 10q6 28 -9 50q-26 34 -93 41q-56 6 -121 1q-17 -2 -41 -2z" />
    <glyph glyph-name="uni2421" unicode="&#x2421;" horiz-adv-x="586" 
d="M30 262h74q29 0 38 -3q66 -15 66 -103t-66 -105q-24 -4 -34 -4h-78v215zM389 236h-126v-65h118v-26h-118v-72h131v-26h-161v215h156v-26zM451 73h105v-26h-135v215h30v-189zM59 236v-163h46q35 0 52 15q22 24 22 68q0 61 -38 76q-12 4 -37 4h-45z" />
    <glyph glyph-name="dottedcircle" unicode="&#x25cc;" horiz-adv-x="289" 
d="M107 256q9 0 12 -9q5 -11 -5 -11t-15 11q-3 9 8 9zM72 250q11 0 14 -11q4 -11 -6 -11q-12 0 -16 11q-3 11 8 11zM146 250q11 0 14 -11q4 -11 -6 -11q-11 0 -15 11q-3 11 7 11zM47 228q13 0 17 -11q3 -10 -10 -10q-9 0 -12 10q-4 11 5 11zM186 228q9 0 13 -11
q3 -10 -6 -10q-12 0 -15 10q-4 11 8 11zM39 197q9 0 14 -11q3 -10 -7 -10q-12 0 -15 10q-5 11 8 11zM218 197q9 0 14 -11q3 -10 -9 -10q-10 0 -13 10q-5 11 8 11zM43 160q11 0 14 -10q3 -8 1.5 -9t-8.5 -1q-10 0 -14 10q-3 10 7 10zM238 160q10 0 13 -10q2 -8 0.5 -9
t-6.5 -1q-12 0 -16 10q-3 10 9 10zM65 123q10 0 14 -11q3 -10 -7 -10q-12 0 -15 10q-4 11 8 11zM242 123q12 0 16 -11q3 -10 -9 -10q-10 0 -13 10q-4 11 6 11zM95 91q13 0 17 -10q3 -11 -8 -11t-14 11q-4 10 5 10zM234 91q9 0 13 -10q3 -11 -5 -11q-11 0 -14 11
q-2 5 -1.5 7.5t7.5 2.5zM136 70q10 0 13 -10q4 -10 -6 -10q-12 0 -16 10q-2 6 0 8t9 2zM210 70q10 0 13 -10q4 -10 -6 -10q-11 0 -15 10q-3 10 8 10zM175 64q8 0 13 -11q3 -10 -6 -10q-11 0 -14 10q-5 11 7 11z" />
    <glyph glyph-name="uniF8FF" unicode="&#xf8ff;" horiz-adv-x="624" 
d="M438 647q2 -18 2 -19q0 -57 -47 -107q-22 -21 -45 -28q-20 -6 -42 -6q2 129 132 160zM446 498q45 0 85 -26q27 -19 42 -40q-16 -11 -26 -24q-8 -9 -20 -21q-26 -35 -26 -83t27.5 -87.5t65.5 -49.5q-18 -51 -52 -99q-52 -76 -104 -76q-20 0 -55 12q-30 13 -61 13
q-20 0 -57 -14q-30 -13 -55 -13q-53 0 -99.5 68t-65.5 135q-15 49 -15 97q0 91 45 147.5t115 56.5q26 0 72 -11q40 -13 56 -13q22 0 57 13q42 15 71 15z" />
    <glyph glyph-name="uni0651064B" 
d="M83 461l10 -7q-8 -36 -12 -50q-7 -34 -37 -46q-14 -7 -135 -46l-28 -9q-19 -6 -31 -22q-5 -6 -17 -25l-4 13l9 38q6 25 26 34q18 8 35 13q133 43 148 53q21 14 36 54zM99 356l10 -7q-8 -36 -12 -50q-7 -34 -37 -46q-14 -7 -135 -46l-28 -9q-19 -6 -31 -22q-5 -6 -17 -25
l-4 13l9 38q6 25 26 34q18 8 35 13q133 43 148 53q21 14 36 54zM52 169q8 0 15 -13q4 -11 5 -14q18 -47 13 -71q-17 -87 -83 -38q-30 -33 -58 -33q-34 0 -39 44q-2 10 7 44q-18 -11 -30 -4t-13 23q0 39 28 41q34 4 40 -37q2 -16 1 -24q-3 -24 9 -32q20 -14 30 0q7 10 -4 48
q-1 3 -7 18l15 16q3 3 7.5 8t6.5 8q15 -12 18 -33q4 -26 11 -37q13 -22 27 -20q4 1 5 8q0 13 -20 44q-9 15 -4 27q3 7 9.5 16.5t10.5 10.5z" />
  </font>
</defs>
</svg>
